<svg xmlns="http://www.w3.org/2000/svg" height="511pt" version="1.1" viewBox="-43 1 511 511.99925" width="511pt">
<g id="surface1">
<path d="M 318.304688 3.265625 C 316.367188 1.222656 313.714844 0 310.960938 0 L 146.246094 0 C 119.117188 0 96.472656 19.886719 91.984375 45.792969 C 69.140625 49.773438 51.1875 67.824219 47.210938 90.570312 C 20.796875 94.648438 0.5 117.597656 0.5 145.132812 L 0.5 456.617188 C 0.5 487.011719 25.078125 512 55.472656 512 L 279.039062 512 C 306.167969 512 328.710938 492.210938 333.300781 466.304688 C 356.65625 462.738281 375.21875 444.378906 379.195312 421.125 C 405.101562 416.636719 424.785156 393.996094 424.785156 366.761719 L 424.785156 119.535156 C 424.785156 116.882812 423.867188 114.332031 422.03125 112.394531 Z M 320.753906 36.003906 L 390.925781 109.132812 L 345.640625 109.132812 C 332.175781 109.132812 320.753906 98.320312 320.753906 84.855469 Z M 279.039062 491.601562 L 55.472656 491.601562 C 36.296875 491.601562 20.898438 475.792969 20.898438 456.617188 L 20.898438 145.136719 C 20.898438 129.222656 31.097656 115.761719 46.394531 111.683594 L 46.394531 411.742188 C 46.394531 442.136719 70.976562 467.125 101.367188 467.125 L 312.1875 467.125 C 307.800781 481.402344 294.644531 491.601562 279.039062 491.601562 Z M 324.9375 446.726562 L 101.367188 446.726562 C 82.296875 446.726562 66.792969 430.917969 66.792969 411.742188 L 66.792969 100.257812 C 66.792969 84.652344 76.992188 71.496094 91.269531 67.109375 L 91.269531 366.867188 C 91.269531 397.257812 115.851562 422.246094 146.246094 422.246094 L 358.082031 422.246094 C 353.699219 436.527344 340.539062 446.726562 324.9375 446.726562 Z M 369.8125 401.847656 L 146.246094 401.847656 C 127.171875 401.847656 111.671875 386.039062 111.671875 366.863281 L 111.671875 55.382812 C 111.671875 36.308594 127.070312 20.398438 146.246094 20.398438 L 300.355469 20.398438 L 300.355469 84.855469 C 300.355469 109.640625 320.855469 129.53125 345.640625 129.53125 L 404.386719 129.53125 L 404.386719 366.863281 C 404.386719 386.039062 388.988281 401.847656 369.8125 401.847656 Z M 369.8125 401.847656 " style=" stroke:none;fill-rule:nonzero;fill:rgb(0%,0%,0%);fill-opacity:1;" />
<path d="M 341.96875 336.574219 L 174.089844 336.574219 C 168.480469 336.574219 163.890625 341.164062 163.890625 346.773438 C 163.890625 352.382812 168.480469 356.972656 174.089844 356.972656 L 342.070312 356.972656 C 347.679688 356.972656 352.269531 352.382812 352.269531 346.773438 C 352.269531 341.164062 347.679688 336.574219 341.96875 336.574219 Z M 341.96875 336.574219 " style=" stroke:none;fill-rule:nonzero;fill:rgb(0%,0%,0%);fill-opacity:1;" />
<path d="M 212.746094 268.035156 C 215.601562 268.035156 218.457031 266.8125 220.496094 264.464844 C 224.167969 260.179688 223.65625 253.753906 219.375 250.082031 L 182.65625 218.773438 L 219.375 187.460938 C 223.65625 183.789062 224.167969 177.363281 220.496094 173.078125 C 216.824219 168.796875 210.398438 168.285156 206.113281 171.957031 L 160.320312 211.019531 C 158.078125 212.957031 156.75 215.816406 156.75 218.773438 C 156.75 221.730469 158.074219 224.585938 160.320312 226.523438 L 206.113281 265.585938 C 208.054688 267.21875 210.398438 268.035156 212.746094 268.035156 Z M 212.746094 268.035156 " style=" stroke:none;fill-rule:nonzero;fill:rgb(0%,0%,0%);fill-opacity:1;" />
<path d="M 355.738281 211.019531 L 309.941406 171.957031 C 305.660156 168.285156 299.234375 168.796875 295.5625 173.082031 C 291.890625 177.363281 292.398438 183.789062 296.683594 187.460938 L 333.402344 218.773438 L 296.683594 250.085938 C 292.402344 253.757812 291.890625 260.179688 295.5625 264.464844 C 297.601562 266.8125 300.457031 268.035156 303.3125 268.035156 C 305.660156 268.035156 308.003906 267.21875 309.941406 265.585938 L 355.738281 226.523438 C 357.980469 224.585938 359.308594 221.730469 359.308594 218.773438 C 359.308594 215.816406 357.980469 212.960938 355.738281 211.019531 Z M 355.738281 211.019531 " style=" stroke:none;fill-rule:nonzero;fill:rgb(0%,0%,0%);fill-opacity:1;" />
<path d="M 239.671875 297.101562 C 240.382812 297.203125 241.097656 297.308594 241.8125 297.308594 C 246.503906 297.308594 250.789062 294.042969 251.808594 289.25 L 280.363281 153.601562 C 281.488281 148.09375 278.019531 142.6875 272.511719 141.566406 C 267.003906 140.441406 261.597656 143.910156 260.476562 149.417969 L 231.917969 285.066406 C 230.695312 290.472656 234.164062 295.878906 239.671875 297.101562 Z M 239.671875 297.101562 " style=" stroke:none;fill-rule:nonzero;fill:rgb(0%,0%,0%);fill-opacity:1;" />
</g>
</svg>