<svg width="41" height="40" viewBox="0 0 41 40" fill="none" xmlns="http://www.w3.org/2000/svg">
<circle cx="20.9082" cy="20" r="19.5" stroke="#CCCCCC"/>
<path d="M9.60825 17.8442L9.8086 18.1394C9.4079 18.1277 8.98834 18.0892 8.9082 17.9189C8.9082 17.9107 8.91056 17.9025 8.91292 17.8944C9.13684 17.836 9.32894 17.8325 9.60825 17.8442ZM11.7367 18.7425L11.8333 19.0342L11.607 19.0435L11.6612 18.7449C11.6864 18.7449 11.7116 18.7449 11.7367 18.7425ZM12.5074 20.8717C12.3071 21.0537 12.1527 21.175 12.0337 21.4515C11.8687 21.3174 11.7826 21.0514 11.7296 20.7539C11.6707 20.4295 11.6518 20.069 11.607 19.7995L11.6212 19.6619L11.8533 19.6455L12.445 20.7539L12.5074 20.8705V20.8717ZM12.2081 18.1394C12.2375 17.9401 12.2677 17.741 12.2988 17.542L12.3754 17.5374C12.3189 17.738 12.2623 17.9387 12.2081 18.1394ZM12.0466 15.4304L13.1073 15.715C13.1056 15.7306 13.104 15.7461 13.1026 15.7617C12.6088 16.1234 12.1527 16.282 11.9075 16.9354L12.0007 15.4817L12.0466 15.4316V15.4304ZM13.0366 13.9254C12.9682 14.6021 13.0649 14.9007 13.1839 15.3207C13.3725 15.4537 13.4479 15.5342 13.3866 15.7314C13.0684 15.575 12.7313 15.4117 12.2434 15.4374C12.2315 15.4239 12.2197 15.4103 12.2081 15.3966C12.3448 14.8634 12.6111 14.5356 12.8174 14.1132L13.0378 13.9242L13.0366 13.9254ZM14.5616 13.0247L14.6075 13.0212C14.4614 13.5206 14.4025 14.6721 14.1467 15.1294C13.5422 14.8459 13.5539 13.6174 14.2304 13.1321L14.5616 13.0247ZM13.9983 16.723L14.5074 17.2702C14.307 17.8792 13.9287 18.3377 13.7684 19.0435L13.4679 19.0202C13.211 18.3097 13.8533 17.1524 13.9629 16.6344L14.4343 16.688C14.4932 16.8339 14.5498 16.9797 14.6075 17.1267L13.9983 16.723ZM15.3913 13.0201C15.3394 13.6116 15.4714 13.9184 15.5068 14.3757C15.2074 14.5274 14.9069 14.6767 14.6075 14.8272C14.6631 14.2149 14.8113 13.6144 15.0471 13.0457L15.3913 13.0201ZM15.7401 12.1217L15.8073 12.1171L15.7059 12.4052L15.5068 12.4181L15.66 12.2396L15.7401 12.1217ZM15.8073 14.8809L14.9069 15.4292C14.9257 15.0979 15.3524 14.6511 15.7095 14.5274L15.792 14.5717L15.8073 14.8809ZM16.4083 12.8066C16.3529 13.1122 16.2987 13.4167 16.2457 13.7224L16.0772 13.8274L15.9876 13.9242C15.825 13.6979 15.7837 13.1426 15.8191 12.7202L16.4083 12.8066ZM17.007 12.1182C17.007 12.1299 17.0047 12.1392 17.0035 12.1486L16.7737 12.3667C16.6205 12.4251 16.6016 12.4227 16.4083 12.4157C16.4331 12.3166 16.4614 12.2174 16.4885 12.1182H17.007ZM17.6081 10.9142L17.3394 11.5151L16.4083 11.4486L16.4119 11.3996C16.7949 11.2246 17.1308 11.0169 17.6069 10.9131L17.6081 10.9142ZM17.1225 12.4776L17.2215 12.4192L17.3075 12.7202L17.007 12.6619L17.1225 12.4764V12.4776ZM17.9074 13.3677C17.5503 13.5054 17.0565 13.4669 16.7701 13.6244C16.7496 13.5038 16.7287 13.3832 16.7077 13.2627L16.8939 13.0212C17.1968 13.1379 17.4996 13.2569 17.8013 13.3747L17.9074 13.3677ZM17.1402 13.9091L16.7324 13.9242C16.723 13.8822 16.7159 13.8402 16.7077 13.7971C16.9941 13.6816 17.4749 13.6711 17.9074 13.6232L17.4513 13.8717L17.1402 13.9091ZM18.2068 13.9091C17.8638 13.9942 17.535 14.2941 17.3099 14.5274C17.2663 14.2544 17.7955 13.7737 18.0488 13.6232C18.1608 13.7224 18.1726 13.7119 18.2068 13.9091ZM18.8078 10.3122L18.8031 10.3589L18.4425 10.5747L17.9074 10.6132L17.9121 10.5666L18.8078 10.3122ZM18.3223 11.2152L18.2068 11.0461C18.4778 10.8209 19.0753 10.9446 19.4077 10.9784L18.3223 11.2152ZM21.0069 10.3286C21.5078 10.3694 21.9663 10.4861 22.3151 10.7019L22.407 10.6961L22.3516 10.7731L21.872 10.9131C21.5832 10.8734 21.2945 10.8314 21.0069 10.7906L19.1072 10.5234L19.1119 10.4849C19.7321 10.3391 20.371 10.2868 21.0069 10.3297V10.3286ZM23.0022 10.1699L22.8961 10.3122C22.6085 10.2919 22.3336 10.1871 22.1065 10.0112L23.0069 10.1244L23.0022 10.1699ZM24.6003 11.2829L24.8489 11.1896L25.107 11.4089C25.0717 11.6597 24.8277 11.8651 24.6403 12.1089L24.4965 12.1182C24.1053 11.4766 23.6115 10.7754 22.7453 10.5281L22.7075 10.4522L23.0576 10.3122C23.6457 10.5152 24.1359 10.8232 24.6816 11.0006C24.7523 11.1697 24.7299 11.1126 24.5991 11.2829H24.6003ZM25.3239 12.7097L25.2555 12.6432L25.107 12.6537L25.3545 12.4204L25.3239 12.7097ZM25.589 16.0324C25.9945 16.38 26.0982 16.884 25.9296 17.5374C25.7552 17.15 25.582 16.7615 25.4064 16.3742C25.4653 16.2879 25.5207 16.2015 25.5784 16.1152C25.582 16.0872 25.5843 16.0592 25.589 16.0324ZM25.7069 13.3257L25.7022 13.3817L25.4889 13.6232L25.4064 13.4634C25.5348 13.2359 25.4417 13.3584 25.6103 13.3351L25.7069 13.3257ZM25.9567 13.3222L26.9066 13.6711C26.9051 13.7023 26.9023 13.7334 26.8984 13.7644C26.8182 13.8192 26.7381 13.8717 26.658 13.9242L25.7069 13.5766L25.7151 13.4821L25.9567 13.3222ZM27.807 14.5274L27.2802 14.1809L27.2072 14.0409C27.4358 13.9009 27.4028 13.9079 27.6444 13.9546C27.6974 14.1459 27.7528 14.3372 27.807 14.5274ZM28.1064 14.4131L28.0003 14.5274C27.873 14.4621 27.8506 14.3792 27.807 14.2252L28.0816 14.3442L28.1064 14.4131ZM27.8825 13.5509L27.807 13.5567C27.8895 13.4786 27.972 13.4004 28.0569 13.3234C27.9979 13.3992 27.939 13.4751 27.8825 13.5509ZM29.3073 15.0652L29.16 15.1294C28.8922 14.9809 28.6247 14.8319 28.3574 14.6826C28.2735 14.5699 28.1898 14.4571 28.1064 14.3442C28.5224 14.0409 28.5377 14.3932 28.9302 14.5857L29.3073 15.0652ZM29.6066 15.3312L29.3073 15.2227L29.4876 15.1294L29.6066 15.3312ZM29.2413 15.8165C29.3497 16.0324 29.3497 15.9717 29.6066 15.939L29.1458 16.3334L28.7062 15.5027L28.7121 15.4514C29.0362 15.3826 29.1399 15.498 29.457 15.5447L29.5783 15.7384L29.2413 15.8165ZM29.3073 16.3567L29.9072 16.0324C29.7869 16.3007 29.6302 16.4384 29.4452 16.6344L29.3073 16.3567ZM30.507 17.5059C30.3444 17.6447 30.2383 17.689 29.9307 17.7147L30.1782 17.7415L30.1735 17.7847L29.3285 18.1394L29.3073 17.066L29.8895 16.3835L29.9955 16.3334L30.507 17.5059ZM30.2065 15.8585C31.8635 15.4012 31.5429 16.2715 30.804 16.9354C30.6037 16.5772 30.4045 16.2179 30.2065 15.8585ZM31.7068 16.0324C31.0963 18.872 30.9784 19.0272 28.8194 20.2475C28.7832 20.1902 28.7454 20.1338 28.7062 20.0784L28.7828 19.761C30.1912 19.3644 30.9914 18.634 30.9077 16.9809L31.6137 16.0825L31.7068 16.0324ZM31.7798 16.0324C31.7563 15.9344 31.7327 15.8364 31.7068 15.7384L31.9307 15.7314L31.7798 16.0324ZM28.1064 18.7939L28.1276 18.48L28.1464 18.2117L28.3539 18.1429C28.3645 18.1429 28.3739 18.1405 28.3833 18.1394C28.4422 18.4952 28.3833 18.7577 28.2655 19.0435C28.1641 18.9794 28.1441 18.9525 28.1064 18.7939ZM26.9066 21.4282L26.9113 21.3757L27.305 20.4435L27.3875 20.2475L28.0804 20.2942C28.091 20.3455 28.0981 20.3957 28.1017 20.4435C28.1323 20.7982 28.0086 21.0817 27.8813 21.4515L26.9066 21.4282ZM27.2072 22.6369L27.2154 22.1702L27.2272 22.0535L27.734 22.0909L27.807 22.085C27.6904 22.2752 27.5749 22.4654 27.4605 22.6567L27.2072 22.6369ZM26.9102 20.6885L26.9408 20.6734L27.18 20.5509L27.2072 20.5485L27.1718 20.6734L27.0316 21.1505L26.9066 20.7259L26.9102 20.6885ZM26.4423 22.1877L26.3068 22.0535C26.4388 22.1445 26.3527 22.0559 26.4423 22.1877ZM25.7069 21.8295C25.8754 21.7245 26.0581 21.7572 26.3079 21.7595L26.2337 22.001C26.0275 22.0827 25.998 22.0524 25.7658 22.0279L25.7069 21.8295ZM26.0746 22.9565L26.3068 23.5002C26.1276 23.6204 25.9473 23.7394 25.7682 23.8607C25.6079 23.6425 25.7823 23.0324 26.0746 22.9565ZM25.4818 21.0665L25.4064 21.0724L25.5054 20.8495L25.4818 21.0665ZM26.3457 21.1505L26.3068 21.126L26.4388 20.8507L26.4824 20.8495L26.6073 21.1389L26.3457 21.1505ZM28.4234 17.2364L28.4069 17.1349C28.4859 17.0392 28.5365 16.9797 28.6721 16.9365L28.7074 17.1139C28.6485 17.1524 28.5896 17.1897 28.5318 17.2294L28.4234 17.2364ZM28.4069 17.9714C28.3527 18.0425 28.256 18.0822 28.1877 18.1394L28.1064 16.6344L28.4069 17.9714ZM27.8565 19.9897C28.0545 19.88 28.0828 19.9815 28.1064 20.2464H27.5065L27.5171 20.153L27.8565 19.9897ZM27.5619 19.1579L27.6974 19.0435L27.807 19.2372L27.7563 19.3445L27.5065 19.3154L27.5619 19.1579ZM27.5065 19.9559L27.1942 20.2475L26.9903 20.2137L26.9078 20.2219C26.955 20.1297 27.0044 20.0375 27.0528 19.9465L27.5065 19.9559ZM26.3751 19.7844C26.2502 19.698 26.3398 19.7097 26.3162 19.6444L26.3751 19.7844ZM27.3203 18.4404L26.3068 17.92C26.3539 17.2317 26.4388 16.4407 26.3704 15.7314C27.1518 16.0114 27.853 17.2702 27.3203 18.4404ZM26.6073 18.4404C26.856 18.571 26.843 18.69 27.1883 18.795C27.2484 19.0179 27.1565 19.1065 27.0127 19.3434L26.645 19.3294C26.5696 18.9327 26.6521 18.7052 26.6073 18.4404ZM26.6756 20.3875C26.5495 20.3012 26.6403 20.3129 26.6167 20.2475L26.6756 20.3875ZM28.7062 17.4895L28.7098 17.4335L28.9808 17.2364C29.028 17.5444 29.0103 18.0577 28.9396 18.4404C28.7793 18.3167 28.7498 17.794 28.7062 17.4895ZM28.7062 18.4404C28.7675 18.34 28.8288 18.2397 28.8877 18.1394L28.7817 18.4357L28.7062 18.4404ZM30.4563 17.5409L30.507 17.5374C30.5212 18.6912 29.8023 18.9012 28.8571 19.334L28.7062 19.3445L29.2955 18.1359L30.4563 17.5409ZM28.6768 15.2869C28.6862 15.3172 28.6968 15.3464 28.7051 15.3767L28.6308 15.4304L28.4057 15.1294L28.6768 15.2869ZM28.4057 15.7885L28.414 15.736C28.4359 15.7343 28.458 15.7328 28.48 15.7314L28.7062 16.0324C28.5318 15.9507 28.5035 15.9309 28.4057 15.7885ZM28.7051 16.5585L28.3008 16.9354L27.4323 15.687L26.3056 14.7187L26.5531 14.5274C27.0987 14.7607 28.0533 15.2052 28.2454 15.7605C28.3079 15.9414 28.0922 16.0907 28.2384 16.2412C28.4128 16.4209 28.5872 16.2925 28.7062 16.5574L28.7051 16.5585ZM26.1736 18.4404L26.2655 18.4765L26.3056 19.3445L26.1653 19.3119C26.0333 19.215 25.9414 18.767 26.0616 18.5722L26.1736 18.4404ZM25.5089 19.95L25.6055 19.9465L25.7057 20.1822L25.5525 20.2405L25.4052 20.2475C25.4405 20.1484 25.4759 20.0492 25.5089 19.95ZM25.2355 24.7637L25.1058 24.3239C25.2909 24.2714 25.4747 24.2189 25.6598 24.164L25.7069 24.1617C25.7045 24.1752 25.7025 24.1889 25.701 24.2025L25.2355 24.7637ZM24.8053 23.5597C24.8607 23.3824 24.8996 23.3555 24.9998 23.2575L25.0823 23.2902L25.1058 23.3672L24.9208 23.5469L24.8053 23.5585V23.5597ZM24.9467 23.8607L24.8053 23.7067L25.1058 23.5597L25.0281 23.8549L24.9467 23.8607ZM24.6309 25.2257C24.5885 25.193 24.5484 25.1592 24.506 25.1242L24.5979 25.1184L25.0611 24.7637L25.1058 25.1254L24.7511 25.3657L24.6309 25.2257ZM24.6545 28.6743C23.932 28.7047 23.4995 28.5227 22.9103 28.4713L22.235 27.1495L22.1053 27.0165C23.2391 26.8835 23.9521 26.3422 24.7924 25.9677C25.0893 26.2477 25.7623 27.6734 25.1695 28.3045C25.0281 28.5203 24.8701 28.5425 24.6545 28.6743ZM21.5526 27.1892L21.8237 27.1717C22.2326 27.4435 22.5107 27.93 22.7064 28.3768L21.5055 28.0327C21.595 27.7317 21.6327 27.426 21.5526 27.1892ZM20.6899 26.0529L22.0429 25.6667L24.1689 25.872L24.2066 25.9782C23.5738 26.2605 22.8537 26.4985 22.1277 26.8625C21.3416 26.9244 21.1519 26.6339 20.6074 26.4425L20.6899 26.0529ZM20.6062 27.4715L20.6333 27.2102L21.1507 27.1717C21.1931 27.3992 21.2379 27.5264 21.1743 27.7737L20.6062 27.4704V27.4715ZM20.0052 27.9429L20.2067 27.8332C20.4542 27.671 20.6392 27.8869 20.9056 27.972L20.7995 28.0747L20.0052 27.9429ZM20.5886 27.4727C20.5232 27.4439 20.458 27.4147 20.3929 27.3852L20.3057 27.1717L20.6062 27.1904L20.5886 27.4727ZM19.7058 27.4727L20.0064 27.7282C20.0064 27.8857 19.9922 27.8682 19.9557 28.0747L19.7058 27.4727ZM18.928 26.3445C19.2097 26.2594 19.5845 26.278 20.0064 26.2687L19.6139 26.5697L18.8066 26.4915L18.928 26.3445ZM18.2068 11.2561C18.7642 10.7287 20.1619 10.8862 20.512 11.2211L20.6062 11.2129C20.1407 11.6434 19.4195 11.6924 18.9763 12.1182C18.6287 11.8896 18.3411 11.7426 18.2068 11.2561ZM21.2709 12.1182L21.5066 12.3831C21.2969 12.3947 21.0765 12.4076 20.8561 12.4262C20.3599 12.4682 19.8697 12.5417 19.5267 12.7179L19.4819 12.7202C19.4571 12.6818 19.4324 12.6433 19.4077 12.6047C19.9706 12.3124 20.5921 12.1474 21.2273 12.1217L21.2709 12.1182ZM22.44 10.6132C22.8278 10.9982 23.4064 11.2269 23.6068 11.8172C22.7936 11.4427 21.542 11.4486 20.9079 10.8524C21.4666 10.9702 21.9427 10.9259 22.44 10.6132ZM22.7075 12.7202L23.8201 12.8719L23.9073 12.8649L23.0151 13.6232C22.8737 13.3444 22.8407 12.9664 22.7075 12.7202ZM24.1371 14.0082L23.9073 13.9732L24.2066 13.9242L24.1359 14.0082H24.1371ZM23.9073 13.2884L24.1819 13.0212L24.2066 13.3222L24.0075 13.2791L23.9073 13.2884ZM24.4518 23.2517L24.3198 23.2575L24.2066 23.1525L24.2938 23.0394L24.506 22.9577L24.4518 23.2517ZM24.2125 23.8024C24.2479 23.7604 24.2856 23.7184 24.3233 23.6764L24.3327 23.5597L24.5072 23.8339L24.2066 23.8607L24.2125 23.8024ZM24.0935 24.7637L23.9073 24.542L24.5072 24.4627L24.2208 24.7544L24.0935 24.7637ZM24.2066 25.6667L23.6068 25.5955L24.031 25.3657L24.2066 25.6667ZM23.7859 24.8174L23.9073 24.9317L23.4724 25.0414L23.0069 25.0647L23.6551 24.7637L23.7859 24.8174ZM22.1077 11.8172C22.4577 11.8266 22.8278 11.9141 23.0069 12.1182C22.7653 12.0949 22.3304 12.1334 22.2208 11.9491L22.1077 11.8172ZM22.4117 13.0212C22.5826 13.1694 22.6427 13.3444 22.6121 13.6232C22.3481 13.5334 22.4165 13.2476 22.4117 13.0212ZM22.7064 14.9194L22.717 14.8681C23.3145 14.7397 23.4429 14.9451 23.1707 15.1294C22.935 15.0967 22.8278 15.0092 22.7064 14.9194ZM23.4759 22.6555L23.6068 22.6882C23.605 22.7022 23.6034 22.7162 23.602 22.7302L23.3074 22.9565L23.43 22.659L23.4759 22.6555ZM23.311 15.3126L23.5349 15.1294L23.6068 15.4304L23.3074 15.3651L23.3098 15.3126H23.311ZM24.2066 23.3625L23.4818 23.5504L23.3074 23.5585C23.3074 23.5492 23.3098 23.5387 23.3121 23.5294C23.5832 23.4757 23.7576 23.387 23.9179 23.2575L24.1725 23.3042L24.2066 23.3625ZM23.6893 22.6555L23.6068 22.4887L23.813 22.3545L23.9073 22.4047L23.7894 22.6474L23.6893 22.6555ZM21.8072 24.738L22.1642 24.4627L23.2697 24.556L23.3074 24.6377L22.5602 25.0647C22.2833 25.0192 22.044 24.8979 21.9003 24.731L21.8072 24.738ZM21.2521 24.7637L21.806 25.0647L20.9068 24.9072C21.0223 24.8605 21.1366 24.8115 21.2521 24.7637ZM21.2073 25.3785C21.206 25.4026 21.2048 25.4267 21.2038 25.4509L21.0329 25.5442L20.9068 25.5605L20.9115 25.4882C21.0423 25.3167 21.0199 25.3739 21.2061 25.3785H21.2073ZM19.7931 13.1251C19.7646 13.0949 19.736 13.0649 19.707 13.0352C20.0052 12.8742 20.4754 12.7972 20.9374 12.7611C21.3181 12.7296 21.6928 12.7261 21.9615 12.7202L22.1077 13.6232C21.7152 13.5812 21.3416 13.5299 20.9374 13.5124C20.5881 13.4953 20.238 13.5077 19.8909 13.5497C19.8589 13.408 19.8263 13.2665 19.7931 13.1251ZM20.2338 25.2059L20.3069 25.3342L20.2362 25.6037L19.4077 25.6667C19.4961 25.3984 19.6281 25.2689 19.7707 25.0647L20.2338 25.2059ZM19.2109 24.1617C18.8337 24.1407 18.3175 23.8677 18.2068 23.5597L19.4077 23.8619L19.2109 24.1617ZM19.6328 24.1454L19.4077 24.1617L19.4148 24.0894L19.6646 23.8607C19.6528 23.9552 19.6434 24.0497 19.6328 24.1454ZM18.8078 13.1356L19.1732 13.0212L19.4077 13.3129L19.1602 13.3222L18.8078 13.1356ZM18.8031 26.0622C18.7831 26.1275 18.7654 26.194 18.7465 26.2605C18.7174 26.262 18.6883 26.2648 18.6593 26.2687C18.6088 26.1683 18.5581 26.0679 18.5073 25.9677L18.8078 25.998L18.8031 26.0622ZM18.9693 24.7637L19.6693 24.9037L19.707 24.997L19.1637 25.6667L18.5073 25.571L18.9693 24.7637ZM24.2066 15.3277L24.3422 15.1306L24.3917 15.1294L24.7688 15.2227L24.8065 15.2764L24.3858 15.4304C24.3261 15.396 24.2664 15.3618 24.2066 15.3277ZM25.0186 14.3547L24.8065 14.2264C25.0222 14.3046 24.8984 14.2159 25.0186 14.3547ZM24.9503 15.7314L24.8065 15.61L25.107 15.4304L24.9503 15.7314ZM24.8065 17.8384L25.2732 17.9527C25.3993 18.0017 25.3958 18.0145 25.4064 18.1394C25.206 18.0635 24.8713 18.011 24.8065 17.8384ZM24.8536 17.0182L24.9173 16.9365L25.107 17.2364L24.8065 17.178L24.8536 17.0182ZM18.776 26.9244L18.8078 27.0037L18.4036 27.1565L18.2068 27.1717L18.2115 27.1309L18.3494 26.9174C18.5403 26.8299 18.545 26.887 18.776 26.9244ZM17.9074 11.8161C18.169 12.0097 18.2374 12.2477 18.1962 13.0212C18.0241 12.8031 17.9192 12.3399 17.9074 11.8172V11.8161ZM18.0795 11.2152L18.0583 11.4334L17.9086 11.4439L18.0807 11.2152H18.0795ZM17.9074 11.5162C17.8992 11.5886 17.8933 11.6609 17.8838 11.7332L17.6069 11.6831L17.8355 11.5209L17.9062 11.5162H17.9074ZM17.9074 28.9788L18.0559 27.4459L19.1072 27.1717L18.0017 28.9228L17.9074 28.9788ZM17.9817 24.8582L18.1431 24.7637C18.2904 24.9364 18.1584 25.1849 18.0194 25.3657C17.9039 25.2584 17.8909 25.1907 17.9216 24.9469L17.9817 24.8582ZM17.007 24.7112L17.3523 24.1617L17.9062 24.4837C17.7177 24.7777 17.5256 25.0717 17.3347 25.3657C17.1626 25.214 17.0565 24.9912 17.007 24.7124V24.7112ZM17.007 27.069L17.5609 26.5697L17.8214 26.593L17.9074 26.733C17.8838 26.88 17.8626 27.0259 17.8414 27.1717L17.007 27.069ZM16.1078 26.6607L16.7678 26.2687L17.2698 26.3469L17.3075 26.4157L16.7784 26.8707C16.5144 26.8439 16.3388 26.7739 16.2009 26.6549L16.1066 26.6607H16.1078ZM16.0194 26.0785L16.261 25.9677L16.3647 25.9899L16.4072 26.0389L15.7083 26.2687L15.5079 26.1987L16.0194 26.0785ZM15.2074 25.7962L15.3842 25.3727C15.7118 25.3307 15.7896 25.4905 16.0359 25.592L16.1066 25.6994L15.7401 25.9479L15.4419 25.9677L15.2074 25.7962ZM14.6064 27.0317L15.0436 26.2687C15.3335 26.2687 15.3689 26.292 15.4879 26.4437C15.5409 26.5324 15.495 26.4845 15.3795 26.5044L15.3524 26.7669L15.8073 26.8369C15.7177 27.0574 15.7036 27.0282 15.5692 27.1682C15.1214 27.1915 14.9187 27.1075 14.6064 27.0317ZM14.102 25.9677L14.8645 26.1952L14.9069 26.285L14.4178 26.8707L13.7072 26.6397L14.102 25.9677ZM11.1639 25.1534L11.1733 25.0635L11.5988 25.3879L11.6353 25.4742C10.7502 26.1509 12.1044 28.3558 13.6447 26.9267L14.307 27.1904C14.0525 27.6395 13.6152 27.8169 13.1544 28.0712C12.0525 28.1622 10.511 26.3807 11.1639 25.1534ZM12.1916 25.4614L12.2081 25.6655C12.1256 25.6037 12.0431 25.5442 11.9629 25.4824L11.9075 25.3645L12.1916 25.4614ZM13.7072 26.74L13.1591 27.16C12.0796 27.272 11.6424 26.5324 11.607 25.6235L11.818 25.3715L11.9099 25.3645C12.4532 25.788 12.934 26.4344 13.6718 26.6479L13.7072 26.74ZM12.6618 22.3534C12.564 22.2834 12.5581 22.2484 12.5086 22.1294L12.7137 21.357L12.9529 21.1494L13.1073 21.3734L12.6618 22.3534ZM12.5086 22.6135L12.9812 21.5064L13.0778 21.4504C13.2959 21.8307 13.6117 22.0034 13.7072 22.5202L12.9953 23.2564C12.774 23.0931 12.6046 22.8704 12.5074 22.6147L12.5086 22.6135ZM13.4078 23.5352L14.0089 22.9554L14.307 23.5585C14.0073 23.5496 13.7076 23.5418 13.4078 23.5352ZM14.9069 17.451C14.6229 18.0519 14.2446 18.4602 14.0183 19.0424C13.9193 18.5139 14.5156 17.7544 14.7077 17.2877L14.7996 17.2352L14.9069 17.451ZM14.9069 15.7944C15.3536 15.6579 15.6529 15.4082 15.9723 15.1282L16.1078 15.5295L15.7283 16.0312L14.9069 15.7944ZM16.4072 15.8259L16.2445 16.0312L16.1078 16.0079L16.1102 15.9752L16.3836 15.7302L16.4072 15.8259ZM16.1715 14.5286L16.2186 14.5262L16.4072 14.9194L16.3364 15.1282C16.0618 14.9859 16.0725 14.8167 16.1715 14.5286ZM16.1149 23.2564L16.3918 23.4535L16.1078 23.3299C16.1094 23.3053 16.1118 23.2808 16.1149 23.2564ZM16.1102 23.5585L16.4072 23.6857C16.4054 23.6973 16.4038 23.709 16.4024 23.7207L15.766 24.1605C15.5834 24.0789 15.561 23.9167 15.5068 23.7405L15.5127 23.7032L16.1102 23.5585ZM15.2227 22.9554L15.5079 23.0697L15.3547 23.1572L15.2074 23.1735L15.2227 22.9554ZM15.2074 16.9354C15.568 17.0357 15.4537 16.968 15.469 17.2352C15.3041 17.1395 15.2923 17.0952 15.2074 16.9354ZM15.2074 22.3125L15.2322 22.0524C15.3724 22.1492 15.4207 22.2064 15.5079 22.3534C15.4078 22.3395 15.3076 22.3259 15.2074 22.3125ZM15.8085 18.5524C15.6953 18.6959 15.7 18.6574 15.5079 18.7402L15.6388 18.4392L15.8085 18.5524ZM15.8085 17.3414L15.6199 17.5362C15.4313 17.4312 15.5197 17.4732 15.6046 17.2784L15.7165 17.2352L15.8085 17.3414ZM15.7837 16.8292L15.5079 16.6332C15.7201 16.7137 15.6706 16.6647 15.7837 16.8292ZM15.2074 22.3534L15.5079 22.5902C15.3547 22.5867 15.2722 22.554 15.2074 22.3534ZM16.1078 22.3417L15.9852 22.3534L15.8804 22.162L15.8073 22.0687L15.9699 22.0524C16.0159 22.1492 16.0607 22.246 16.1078 22.3417ZM15.9428 16.7674L15.8073 16.6344C15.9393 16.7254 15.8521 16.6367 15.9416 16.7685L15.9428 16.7674ZM15.9605 21.7257L15.8073 21.4107L15.8721 21.1517L15.9098 21.1494L16.1078 21.7514C16.0587 21.7427 16.0096 21.7342 15.9605 21.7257ZM15.1744 25.2292L15.2074 25.2689L15.1002 25.6667C14.974 25.6148 14.8628 25.5326 14.7768 25.4275C14.6908 25.3224 14.6326 25.1977 14.6075 25.0647L15.1744 25.2304V25.2292ZM14.307 25.6667L14.6075 25.9304C14.4154 25.8464 14.4037 25.8499 14.307 25.6667ZM14.8256 22.9974L14.8609 23.2575L14.6075 22.9565L14.8256 22.9974ZM14.5286 24.4055L14.307 23.8607C14.5698 23.9599 14.7749 24.2574 14.9081 24.4627L14.5286 24.4055ZM14.7643 19.0459L14.8385 19.0435L14.6193 19.3445C14.584 19.2699 14.6276 19.1987 14.749 19.1112L14.7643 19.0459ZM14.6075 21.6335L14.5474 21.7525L14.3754 21.6207C14.3526 21.5729 14.3298 21.525 14.307 21.4772L14.5427 21.4515L14.6075 21.6335ZM12.5074 24.1617C13.1085 24.549 14.1302 24.9084 14.307 25.6667C13.5944 25.3144 12.9773 24.7984 12.5074 24.1617ZM14.0666 23.87L14.307 24.1617L13.7072 23.8607L14.0666 23.87ZM16.2634 24.7637L15.8073 24.3087L16.6051 23.5597L16.7077 24.3845L16.2634 24.7637ZM16.7077 25.2665L16.7866 25.0705L16.8927 25.0647L17.007 25.3657L16.7077 25.2665ZM17.1119 24.1617L17.007 23.8607L17.2251 23.9004L17.1119 24.1617ZM16.7077 14.0234L16.71 13.9966C16.809 13.9732 16.908 13.9499 17.007 13.9242L16.7996 14.2252L16.7077 14.0234ZM13.6824 20.2475L13.4078 19.6455C13.7602 19.7214 13.7024 19.9699 13.6824 20.2475ZM12.9482 20.5485C12.6913 20.3724 12.5275 20.0212 12.5074 19.6455C13.0342 19.768 13.0048 19.9734 13.1085 20.4494L12.9482 20.5485ZM12.6382 18.977C12.2552 18.6189 12.8127 17.1862 13.0578 16.856C13.1874 16.6939 13.3501 16.6974 13.5646 16.6344L13.7072 16.6705C13.3465 17.3029 13.1038 18.1639 13.0177 19.0435L12.6382 18.977ZM12.0784 23.8607L12.2611 24.1652L12.0973 24.5444L12.003 24.6435C12.1374 24.6622 12.168 24.5479 12.3684 24.3857C12.7573 25.0099 13.3512 25.6072 14.0065 25.9467L13.6494 26.5697L12.5652 25.879C12.4414 25.6515 12.6123 25.3902 12.4131 25.2514C12.2328 25.1254 12.0007 25.3074 11.8168 25.2525L11.3077 24.7905C11.4574 24.4592 11.6011 24.1349 11.8969 23.9657L12.0784 23.8607ZM11.0413 20.5404C11.0822 20.2401 11.1409 19.9425 11.2169 19.649L11.257 19.6455L11.4137 20.5404L11.4962 21.007C11.7319 21.658 11.97 22.3079 12.2081 22.9565C11.6377 22.6485 11.2853 21.9357 11.336 20.9767C11.1993 21.2859 11.3124 21.7724 11.3572 22.0454C11.0072 21.7514 10.9636 21.1669 11.0413 20.5404ZM10.5204 20.8495C10.4659 20.7356 10.4316 20.6133 10.4191 20.4879C10.4023 20.319 10.4039 20.1489 10.4238 19.9804L10.4756 19.873L10.7078 19.6455L10.577 20.4867L10.5204 20.8484V20.8495ZM31.4062 23.8595L30.8064 23.6309L31.3886 23.5597L31.4062 23.8595ZM15.5315 28.7595L15.6883 28.6778L15.5068 28.9777L15.5303 28.7607L15.5315 28.7595ZM11.0072 18.4415L10.7514 18.4182C10.4332 18.3144 10.135 17.9469 10.1079 17.5385C10.5947 17.5817 10.7597 17.8104 11.0001 18.0892C11.0024 18.2059 11.006 18.3237 11.0072 18.4415ZM10.9718 18.417C11.0072 17.7672 10.5063 17.3612 9.85574 17.3787C9.96652 16.4664 10.7679 15.9997 11.4821 15.6929L11.62 15.6824C11.501 16.828 11.5917 17.815 11.1592 18.8067C10.8398 19.537 9.70724 19.523 9.76853 20.65L9.77678 20.7434C9.93823 22.2414 11.5835 22.5459 11.8109 23.863C9.37136 25.0915 12.3448 30.254 14.274 27.2219C14.6205 27.2709 14.9281 27.426 15.3583 27.2767C15.5586 27.167 15.5975 27.0784 15.6753 26.8497L16.3647 27.2032L16.4001 27.2895C15.7684 27.7749 15.3229 28.441 14.6441 28.896L14.7089 28.7117L14.5321 28.6802L14.4343 28.7327L14.3459 29.141C14.7337 29.533 15.9086 28.1155 16.2528 27.8379C16.0583 28.511 15.5775 28.8575 15.3099 29.4735L15.3924 29.5575C15.8992 29.1982 16.5203 28.1809 16.6146 27.4074L17.3735 27.5322C16.4225 28.805 13.9794 31.605 12.6948 32.3528C12.8904 31.745 13.2016 31.2807 13.3595 30.7813L13.2676 30.7883C13.2402 30.7602 13.2127 30.7322 13.1851 30.7043C12.8728 31.3133 12.3577 31.7415 12.2658 32.5628C12.3207 32.6442 12.3902 32.715 12.4709 32.7717C13.9983 32.5197 16.5486 28.7198 17.7672 27.6815C17.4372 30.9598 15.6623 31.4708 14.1232 33.4565C15.5221 32.7658 16.3706 31.0042 17.5668 30.0265C17.4348 31.395 17.106 34.4552 16.2787 35L16.4154 34.9895C17.3441 34.4178 17.3983 32.067 17.7082 30.8653L17.8402 29.6018L19.1661 27.7585L19.2627 27.706C19.4112 28.1668 20.083 28.6673 20.8101 28.5332L21.3322 28.3162L22.6427 28.8015C22.8148 30.6682 22.7488 31.7147 21.555 33.1357C22.7747 32.5185 23.2226 30.1408 22.816 28.8785C25.6527 29.204 25.5384 28.2567 25.001 26.2115L25.4995 26.2197C25.4075 26.0832 25.1589 26.1847 24.9691 26.0797C24.8831 26.0249 24.8996 26.0354 24.8466 25.9537C25.5207 25.2012 27.1447 25.949 26.8029 27.1985C27.2696 26.1625 26.2384 25.2409 25.2449 25.6119C25.6692 25.1137 26.183 24.7042 26.4517 24.045L26.5484 23.9937L28.8818 26.4204L29.0197 26.4099L29.1258 26.2675C28.3833 25.3972 27.642 24.5257 26.9019 23.6542L27.14 23.5469C27.1926 23.4931 27.2572 23.4523 27.3287 23.4278C27.4001 23.4033 27.4764 23.3957 27.5513 23.4057C27.512 23.3863 27.4727 23.3669 27.4334 23.3474C28.6249 23.4652 30.1476 24.4487 31.3909 24.1314C31.5052 23.9342 31.5111 23.828 31.4416 23.6355C32.7663 23.6682 35.1492 23.2295 35.9082 22.5925C33.8694 23.016 31.5736 23.1595 29.7021 22.9122L28.0439 22.7197L27.9508 22.7267L28.3975 21.9334C29.7646 21.9077 33.3496 21.8739 34.0744 21.0245L33.9141 20.8122L33.2895 20.7235C33.2458 20.7926 33.2214 20.8719 33.2188 20.9534L33.7138 21.0059C32.639 21.2742 29.6455 21.84 28.6685 21.5099C28.566 21.3862 28.6414 20.9569 28.6461 20.6477C28.6479 20.5924 28.6455 20.537 28.6391 20.482C30.0439 20.0667 31.0869 19.131 31.5147 17.7194C31.7586 16.9109 31.5972 15.8492 32.1251 15.3452C32.4622 15.3744 32.5306 15.5155 32.778 15.6112C32.6472 15.4316 32.4598 15.3312 32.2253 15.2496L31.7857 15.5494C31.3838 15.7034 30.9631 15.3009 30.2807 15.6147C29.7268 15.1457 29.4145 14.4049 28.6662 14.1214L28.5896 13.9931L29.497 13.1192C29.2 13.3654 28.8972 13.6559 28.5943 13.9476L27.9862 13.6781L27.9508 13.5906C28.6438 13.1052 29.259 12.9256 30.0474 13.0796C30.0839 13.1519 30.1228 13.2231 30.1605 13.2954C30.124 13.3572 30.091 13.3747 30.0592 13.3922L29.794 13.3222C29.9083 13.3887 30.0274 13.4097 30.1464 13.4307L30.2466 13.3339L30.2619 13.1986C30.0898 13.0469 30.0368 12.9372 29.6986 12.9256L29.86 12.6899C29.4735 12.9536 28.6886 13.0236 28.3044 13.2522L29.193 12.5592L29.299 12.4181L27.655 13.3887C27.3038 13.3654 26.9302 13.2021 26.7405 13.0072C26.7102 13.0095 26.68 13.0119 26.6497 13.0142L28.6014 11.7076L28.5695 11.5757C27.8294 12.0027 27.0881 12.4297 26.3492 12.8579L25.6397 12.6852L25.7057 12.0541L30.7934 8.09907L30.8842 8.09207L30.8123 7.91824C30.6237 7.82957 29.8494 8.4514 29.5571 8.6369C28.4305 9.35207 27.4346 10.2422 26.3268 10.8886C26.7841 10.3134 27.6208 9.74057 27.7599 8.9029L27.536 8.8749L27.1871 9.1689L27.5666 9.00557C27.3215 9.74407 26.2113 11.0624 25.5843 11.4801L25.5113 11.3062C25.919 10.6272 26.3209 9.71373 26.1323 8.84223L25.7906 8.6439L25.424 8.67073C25.6586 8.7629 25.8177 8.78507 25.9897 8.89823C26.0993 9.7429 25.6798 10.3146 25.4535 10.9982L25.3569 11.0496C25.206 10.7731 25.2154 10.6401 24.9055 10.5899L24.8784 10.4126L25.0905 10.1279L25.2367 10.0276C25.2862 10.1209 25.2885 10.0871 25.3038 10.2469C25.3473 10.1782 25.3713 10.0992 25.3734 10.0182L25.2001 9.94123L24.7417 10.4219C24.3587 10.1687 23.9367 9.90273 23.3982 9.80357C23.7034 9.17707 24.6309 8.17024 24.1524 7.37574C23.5679 6.40974 21.5726 7.52274 20.8419 8.28924C20.7572 8.3747 20.6835 8.47033 20.6227 8.5739C20.6951 8.51696 20.7681 8.46096 20.8419 8.4059C21.5632 7.8739 23.483 6.59991 23.899 7.6184C24.3351 8.18657 23.4995 9.27973 23.2721 9.72423C22.4942 9.64607 21.6811 9.57257 20.8443 9.5889C19.9636 9.5965 19.0891 9.73574 18.2504 10.0019C17.8261 10.1407 16.0159 11.2141 15.9464 11.2001L15.1214 10.4091L13.396 9.55157L13.3866 9.6414L13.2852 9.73823L15.4962 11.5909L15.1591 11.7951C14.2493 11.1126 13.6223 10.6984 12.2682 10.3496L12.0395 10.3671C12.8303 10.9061 13.627 11.3996 14.4225 11.8942L14.5816 12.1066C14.0136 12.3434 13.7732 12.8357 13.2935 13.1414C12.544 12.7867 11.8498 12.4647 10.9412 12.1929L10.8775 12.3772L12.5793 13.4622L12.6712 13.4552L12.3778 13.6559C12.2422 14.1074 11.9771 14.6312 11.7555 15.2682C10.907 15.9519 9.80742 15.911 9.63653 17.304C9.36547 17.3775 9.17455 17.4009 8.92706 17.5805L8.9082 17.7614C9.06377 17.976 10.4415 18.5535 10.7703 18.6095L10.973 18.4159L10.9718 18.417ZM21.0364 8.78507L21.1625 8.8084L20.994 8.7874C20.9645 8.7874 20.935 8.78973 20.9068 8.7909C21.0399 8.5459 21.4312 8.48523 21.8072 8.51207L21.7812 8.6894L21.0458 8.72557L21.0364 8.78507ZM21.562 9.10823L21.9156 8.9939C22.0688 8.7419 22.156 8.47473 22.0782 8.2309C21.7141 8.15974 21.5043 8.24724 21.1637 8.38957C21.1017 8.48933 21.04 8.58927 20.9787 8.6894L20.9079 8.80607C20.9297 8.83111 20.9534 8.85451 20.9787 8.87607C21.0941 8.9694 21.2332 9.00207 21.489 8.98107C21.5597 9.10007 21.4772 9.04757 21.3511 9.08023L21.5632 9.10823H21.562ZM30.2866 11.8184L29.9072 11.8884L30.1405 11.8721L30.408 11.9864L30.0026 12.7214C30.2112 12.4776 30.4186 12.3049 30.507 11.9351L30.2866 11.8184ZM28.1064 23.5609C28.0121 23.394 27.9096 23.2844 27.807 23.2587C27.8978 23.3439 28.0027 23.4442 28.1064 23.5609ZM26.9066 27.1729L26.6073 27.3455L26.8371 27.3245L26.9078 27.1729H26.9066ZM28.1064 23.5609C28.4116 23.9015 28.6402 24.5549 28.5742 25.0659C28.9207 24.325 28.5259 23.863 28.1064 23.5609Z" fill="white"/>
</svg>
