<svg width="236" height="182" viewBox="0 0 236 182" fill="none" xmlns="http://www.w3.org/2000/svg">
<g clip-path="url(#clip0_3060_79768)">
<rect width="236" height="182" fill="white"/>
<path d="M214.772 81.7094L142.838 44.4134L123.228 81.5063L115.757 95.9264C115.297 96.6806 114.555 98.917 115.258 101.828C115.962 104.739 119.266 106.977 120.83 107.732L161.461 132.505C164.898 134.68 172.455 139.28 175.182 140.275C178.592 141.518 180.231 141.563 182.892 140.321C185.021 139.328 186.947 136.269 187.643 134.864L214.772 81.7094Z" fill="white"/>
<path d="M166.894 136.808L195.428 102.985L177.077 141.233L166.894 136.808Z" fill="black"/>
<path d="M152.131 28.7962L143.415 45.8343L214.88 81.5803C217.886 76.6418 223.973 65.6273 224.276 61.0772C224.578 56.5271 218.974 53.0372 216.135 51.861L162.475 27.1468C161.244 26.5369 158.296 25.4635 156.354 26.0497C154.411 26.6358 152.73 28.1249 152.131 28.7962Z" fill="url(#paint0_linear_3060_79768)"/>
<path d="M208.686 80.4349L137.743 38.0508L115.513 74.6133L107.026 88.8365C106.512 89.5763 105.62 91.8076 106.158 94.8148C106.696 97.822 109.923 100.303 111.469 101.167L151.313 128.881C154.679 131.307 162.09 136.453 164.805 137.634C168.2 139.109 169.866 139.255 172.651 138.154C174.878 137.273 177.026 134.277 177.821 132.889L208.686 80.4349Z" fill="white"/>
<path d="M148.193 20.6368L137.743 38.0514L208.687 80.4354C212.212 75.419 219.435 64.1907 220.13 59.408C220.825 54.6254 215.32 50.5769 212.48 49.1505L159.034 19.57C157.811 18.846 154.851 17.5211 152.792 18.0132C150.734 18.5052 148.868 19.9673 148.193 20.6368Z" fill="url(#paint1_linear_3060_79768)" fill-opacity="0.8"/>
<path d="M156.199 64.5603C159.91 66.635 160.33 70.9774 160.244 73.8289C160.209 74.9695 161.065 75.9192 162.668 74.8826C164.892 73.4449 171.296 72.2761 175.574 77.0242C179.853 81.7723 179.743 88.6581 173.791 97.0493C166.029 107.991 146.641 107.785 143.458 105.824C140.274 103.863 130.497 89.2136 135.44 75.1839C140.384 61.1543 151.561 61.9669 156.199 64.5603Z" fill="white"/>
<path d="M166.969 39.774L165.702 42.6901C164.43 42.5223 161.556 41.3508 160.242 38.0065C158.6 33.826 160.501 29.452 162.19 25.5639C163.88 21.6759 169.621 13.7707 177.169 17.6284C183.207 20.7147 181.395 27.3613 179.735 30.2989L175.37 28.4023C175.751 26.6417 176.221 22.9943 175.057 22.4885C173.602 21.8563 170.059 22.0499 166.68 29.826C163.977 36.0469 166.127 37.2895 167.54 37.1332C167.561 37.5275 167.476 38.6076 166.969 39.774Z" fill="white"/>
<path d="M201.161 59.2758L199.894 62.1919C198.622 62.0242 195.749 60.8527 194.435 57.5083C192.792 53.3279 194.278 49.9082 195.968 46.0201C197.657 42.1321 203.813 33.2725 211.361 37.1303C217.4 40.2165 215.588 46.8631 213.927 49.8007L209.562 47.9041C210.9 46.1513 212.159 43.2547 209.249 41.9903C207.794 41.3581 204.251 41.5517 200.872 49.3278C198.169 55.5487 200.319 56.7914 201.732 56.6351C201.753 57.0293 201.668 58.1094 201.161 59.2758Z" fill="white"/>
<path d="M144.689 26.0478L108.779 86.1322C107.611 87.9357 105.397 92.0581 105.885 94.119C106.495 96.6953 107.042 98.0888 111.469 101.168C115.011 103.632 145.228 124.312 159.894 134.344" stroke="black" stroke-linecap="round"/>
<path d="M163.348 137.001C164.985 138.098 168.998 139.918 171.952 138.429C175.644 136.566 177.185 134.347 177.818 132.889C178.325 131.722 196.734 100.857 205.875 85.5697L218.923 63.5058C219.577 62.4421 220.654 59.5206 219.728 56.3448C218.802 53.169 215.984 51.2512 214.691 50.6892L205.899 45.7132" stroke="black" stroke-linecap="round"/>
<path d="M147.069 21.8821C148.076 20.0083 151.012 17.5863 154.453 18.1574C157.895 18.7285 161.727 21.319 163.667 22.1614" stroke="black" stroke-linecap="round"/>
<path d="M171.258 138.704L176.592 141.022C178.37 141.795 182.501 142.55 184.797 139.388C187.094 136.226 188.513 133.491 188.935 132.519L220.059 71.51C221.649 68.7344 224.75 62.5709 224.431 60.1211C224.032 57.0588 223.274 56.1514 218.15 53.3473" stroke="black" stroke-linecap="round"/>
<path d="M137.742 38.052L208.686 80.4361M209.804 79.1888L214.443 81.7822" stroke="black" stroke-linecap="round"/>
<path d="M166.387 33.1641C168.178 35.6758 167.88 39.0133 166.128 41.7186C164.376 44.4239 160.328 46.5708 156.805 44.6004C152.628 42.2649 154.275 37.1457 156.028 34.4406C156.978 32.9737 158.731 31.7635 159.659 31.3964" stroke="black" stroke-linecap="round"/>
<path d="M200.522 53.1996C202.313 55.7113 202.016 59.0489 200.264 61.7542C198.512 64.4595 194.163 67.0678 190.94 64.6359C187.329 61.911 188.411 57.1812 190.164 54.4761C191.114 53.0092 192.867 51.799 193.795 51.4319" stroke="black" stroke-linecap="round"/>
<path d="M175.795 27.4305C176.358 26.1345 176.903 23.2896 174.575 22.2781C171.665 21.0136 168.161 26.4242 167.105 28.8543C166.049 31.2843 163.452 35.9336 167.543 37.1335" stroke="black" stroke-linecap="round"/>
<path d="M179.945 29.8129C181.374 26.9671 182.819 20.5461 177.169 17.6285C170.106 13.9815 164.091 21.1899 161.134 27.994C158.177 34.7981 160.852 40.5827 162.792 41.4256" stroke="black" stroke-linecap="round"/>
<path d="M210.268 46.9759C210.929 45.7267 211.689 42.9314 209.445 41.7445C206.641 40.2609 202.734 45.3881 201.496 47.7305C200.258 50.0728 197.314 54.5103 201.301 56.02" stroke="black" stroke-linecap="round"/>
<path d="M214.228 49.6696C215.87 46.9412 217.801 40.6488 212.39 37.3068C205.627 33.1293 199.08 39.857 195.613 46.4157C192.146 52.9744 194.371 58.9475 196.241 59.9366" stroke="black" stroke-linecap="round"/>
<path d="M171.217 26.02L199.258 41.0942" stroke="black" stroke-linecap="round"/>
<path d="M150.658 63.2243L150.221 56.8527L158.706 58.7985L150.658 63.2243Z" fill="url(#paint2_linear_3060_79768)" fill-opacity="0.8"/>
<path d="M150.659 63.2228L118.723 81.3008L113.742 48.6045L150.222 56.8512C150.461 57.2084 150.969 58.3477 151.085 60.0468C151.202 61.7459 150.85 62.8721 150.659 63.2228Z" fill="white"/>
<path d="M117.934 81.5548L64.7802 90.823L61.731 55.7693L113.239 48.3325C114.506 48.7938 117.083 50.831 118.404 53.1849C119.725 55.5388 119.247 60.0047 118.7 62.2064C120.136 64.3499 121.401 67.7639 121.863 70.7412C122.325 73.7186 119.174 79.2752 117.934 81.5548Z" fill="white"/>
<path d="M52.4589 94.3479L39.7073 96.2753L34.5751 56.6814L42.3836 55.4743C46.2762 55.0916 54.6344 54.2288 56.9268 53.8394C59.7923 53.3526 60.2941 53.6254 61.7296 55.769C63.165 57.9125 65.1078 65.1027 66.2626 72.546C67.4175 79.9894 65.1349 88.9716 64.2769 90.5498C63.5905 91.8123 61.5086 92.4525 60.5534 92.6147L52.4589 94.3479Z" fill="#F3F4F7"/>
<path d="M39.2067 96.0022L25.4513 97.3839C22.2045 98.5721 15.3483 97.0709 13.8976 81.5608C12.447 66.0506 17.3368 60.485 19.963 59.641C23.5444 58.6347 31.223 56.6301 33.2866 56.6615C35.3502 56.6929 37.1109 59.195 37.7332 60.4421C38.5229 61.7802 40.3343 66.8997 41.2626 76.6735C42.1908 86.4472 40.2787 93.6317 39.2067 96.0022Z" fill="white"/>
<path d="M65.5684 90.5715L117.935 81.5566L158.893 58.8423L113.24 48.3343L86.4467 52.1694" stroke="black" stroke-linecap="round"/>
<path d="M66.4062 69.8928L105.951 64.1303" stroke="black" stroke-linecap="round"/>
<path d="M108.814 63.6476L118.701 62.2069" stroke="black" stroke-linecap="round"/>
<path d="M117.934 81.5538C119.532 79.0145 121.923 73.4992 121.863 70.7402C121.802 67.9811 119.992 63.8163 118.701 62.2054C119.105 61.0623 119.799 58.0319 119.337 55.0545C118.875 52.0772 115.414 49.5138 113.741 48.6043" stroke="black" stroke-linecap="round"/>
<path d="M82.7925 52.905L61.7305 55.7667" stroke="black" stroke-linecap="round"/>
<path d="M150.222 56.8538C150.796 57.8476 151.659 60.3613 150.945 62.6994" stroke="black" stroke-linecap="round"/>
<path d="M39.2091 96.001C40.0121 96.4376 46.9943 95.2356 50.385 94.58C54.0149 94.2817 61.8188 93.1629 63.9946 91.0744C66.7143 88.4638 66.1261 75.1945 66.0505 71.7457C65.9749 68.2969 63.0932 54.4622 59.51 53.8772C56.6434 53.4092 40.3097 55.7064 33.2891 56.6603" stroke="black" stroke-linecap="round"/>
<path d="M46.3677 92.397C47.2958 89.4939 48.5394 80.6263 47.6357 73.3215C46.551 64.5532 44.8241 58.1619 41.5971 55.7259" stroke="black" stroke-linecap="round"/>
<path d="M52.4616 94.3454C53.2459 90.9097 54.6546 82.1793 54.0157 74.7438" stroke="black" stroke-linecap="round"/>
<path d="M39.2091 96.001C42.0692 90.7405 42.0951 83.1863 41.1193 74.5484C39.8889 63.6562 37.3741 57.5181 33.2891 56.6603" stroke="black" stroke-linecap="round"/>
<path d="M39.2257 95.9649C33.8997 96.5367 25.1721 97.6921 23.2533 97.6712C19.3514 97.6289 14.7471 91.6568 13.9243 78.7335C13.163 66.7772 17.3185 60.4621 21.2979 59.1581C24.9279 57.9687 29.6936 57.2519 33.2852 56.6618" stroke="black" stroke-linecap="round"/>
<path d="M24.723 94.6973C26.1172 90.3818 25.9911 81.7595 24.4289 74.5786" stroke="black" stroke-linecap="round"/>
<path d="M64.032 61.1057C64.5501 63.023 65.4963 67.5813 65.9046 69.6208L65.8884 55.2994L61.7332 55.7665C62.2836 56.7473 63.514 59.1883 64.032 61.1057Z" fill="black"/>
<path d="M159.887 58.8388C54.9165 273.018 99.6354 42.8344 99.6353 111.559C99.6353 143.099 67.6264 206.175 67.6256 153.454C67.6241 51.9592 27.5685 230.368 -59.0003 190.578" stroke="black" stroke-linecap="round"/>
</g>
<defs>
<linearGradient id="paint0_linear_3060_79768" x1="189.94" y1="36.7277" x2="178.64" y2="68.82" gradientUnits="userSpaceOnUse">
<stop stop-color="#77F8CA"/>
<stop offset="1" stop-color="#8BDEF5"/>
</linearGradient>
<linearGradient id="paint1_linear_3060_79768" x1="153.914" y1="15.0591" x2="165.514" y2="80.2602" gradientUnits="userSpaceOnUse">
<stop stop-color="#4BD0A0"/>
<stop offset="0.2" stop-color="#55D4A7"/>
<stop offset="0.7" stop-color="#B5FFEA"/>
<stop offset="1" stop-color="#91E3FD"/>
</linearGradient>
<linearGradient id="paint2_linear_3060_79768" x1="147.478" y1="60.9009" x2="155.631" y2="55.9775" gradientUnits="userSpaceOnUse">
<stop stop-color="#4BD0A0"/>
<stop offset="0.2" stop-color="#55D4A7"/>
<stop offset="0.7" stop-color="#B5FFEA"/>
<stop offset="1" stop-color="#91E3FD"/>
</linearGradient>
<clipPath id="clip0_3060_79768">
<rect width="236" height="182" fill="white"/>
</clipPath>
</defs>
</svg>
