<svg width="236" height="182" viewBox="0 0 236 182" fill="none" xmlns="http://www.w3.org/2000/svg">
<g clip-path="url(#clip0_3060_79659)">
<rect width="236" height="182" fill="white"/>
<path d="M238.899 166.736C-0.710285 131.368 271.588 59.5189 221.264 87.8258C182.145 109.83 76.6304 126.377 110.674 107.008C229.082 39.6395 20.1489 136.745 34.1569 0.446845" stroke="black" stroke-linecap="round"/>
<path d="M31.4749 136.467L74.0469 37.7488C75.049 34.7498 77.8031 34 79.0549 34L99.7148 34.6248C115.158 35.4579 146.92 37.249 150.426 37.7488C154.808 38.3736 155.434 39.6232 156.686 41.4976C157.688 42.9971 157.521 46.7043 157.312 48.3704L161.695 58.3672C162.738 58.7837 165.075 60.2416 166.077 62.7408C167.079 65.24 166.912 67.9475 166.703 68.9888L162.321 85.8584L141.661 148.338C140.826 152.087 137.654 160.585 131.644 164.583C125.634 168.582 107.854 165 99.7148 162.709C83.4373 160.001 50.131 154.337 47.1259 153.337C43.3695 152.087 37.1094 147.089 33.3531 143.965C30.348 141.466 30.8489 137.925 31.4749 136.467Z" fill="#F3F4F7"/>
<path d="M46.5004 148.963L35.8574 138.966V138.341L57.7695 141.465L109.732 148.963C111.61 149.379 116.369 149.587 120.375 147.088C124.382 144.589 126.636 139.382 127.262 137.091L136.653 108.975L152.304 63.3649L157.313 48.9945L164.199 63.3649L152.93 97.1041L142.287 128.344C139.157 137.3 132.771 155.585 132.27 157.085C131.644 158.959 131.018 160.834 129.14 161.459C127.638 161.958 124.758 161.667 123.506 161.459L109.106 158.959L49.0046 149.587L46.5004 148.963Z" fill="white"/>
<path d="M68.4175 82.7332C63.6156 107.282 83.4373 112.099 90.3305 111.475C94.7063 111.475 115.109 109.599 124.124 92.1047C135.394 70.2367 120.31 60.8417 112.868 58.3662C99.7209 53.9929 73.4282 57.1168 68.4175 82.7332Z" fill="url(#paint0_linear_3060_79659)" fill-opacity="0.8"/>
<path d="M83.4355 90.8573L91.5743 68.3645L109.73 80.8605L83.4355 90.8573Z" fill="white"/>
<path d="M72.1673 42.7466L32.0996 135.217" stroke="black" stroke-linecap="round"/>
<path d="M75.9261 35.8744C77.1782 34.6248 77.8043 34 82.8127 34C86.8195 34 129.141 36.4992 149.801 37.7488C152.305 37.7488 157.314 39.1234 157.314 44.6216C157.314 50.1198 155.644 54.4101 154.809 55.868L126.637 138.342C125.385 142.09 120.752 149.463 112.237 148.963C101.594 148.338 40.8668 138.966 37.1105 138.342C33.3541 137.717 30.2239 140.216 32.7281 143.34C34.7315 145.839 40.8668 150.838 47.1274 153.337M164.2 63.3656L157.057 48.3704" stroke="black" stroke-linecap="round"/>
<path d="M104.723 56.4936C96.5839 55.8688 78.4282 58.8678 70.9155 75.8624C61.5246 97.1056 74.0458 110.226 86.5669 111.476C101.593 112.976 122.879 105.228 127.261 82.7351C131.018 63.4556 116.618 58.9927 109.106 57.1183" stroke="black" stroke-linecap="round"/>
<path d="M38.3594 141.465L59.6454 144.589" stroke="black" stroke-linecap="round"/>
<path d="M47.127 145.839L65.2826 148.338" stroke="black" stroke-linecap="round"/>
<path d="M123.506 161.46C125.175 161.876 128.89 162.334 130.393 160.835C131.895 159.335 135.61 148.13 137.279 142.716L164.2 63.9907" stroke="black" stroke-linecap="round"/>
<path d="M47.127 153.337C49.1303 153.837 93.4553 161.876 115.367 165.833C119.541 166.666 129.015 167.332 133.523 163.334C138.031 159.335 139.992 154.17 140.41 152.087L159.191 93.9807" stroke="black" stroke-linecap="round"/>
<path d="M160.441 90.8571C162.946 83.9843 167.704 69.114 166.702 64.6155C166.006 61.4915 164.406 59.8253 163.572 59.6171" stroke="black" stroke-linecap="round"/>
<path d="M84.0625 90.2329L91.5752 67.7401L109.731 80.8609L84.0625 90.2329Z" stroke="black" stroke-linecap="round"/>
<path d="M35.2305 138.966L45.8735 148.338" stroke="black" stroke-linecap="round"/>
<path d="M49.0039 149.589L121.001 160.835" stroke="black" stroke-linecap="round"/>
<path d="M159.817 54.6181L149.174 73.3621L156.687 48.3701L159.817 54.6181Z" fill="black"/>
<path d="M148.549 92.106L155.435 71.4875" stroke="black" stroke-linecap="round"/>
</g>
<defs>
<linearGradient id="paint0_linear_3060_79659" x1="71.7351" y1="53.6749" x2="128.693" y2="94.1827" gradientUnits="userSpaceOnUse">
<stop stop-color="#4BD0A0"/>
<stop offset="0.2" stop-color="#55D4A7"/>
<stop offset="0.7" stop-color="#B5FFEA"/>
<stop offset="1" stop-color="#91E3FD"/>
</linearGradient>
<clipPath id="clip0_3060_79659">
<rect width="236" height="182" fill="white"/>
</clipPath>
</defs>
</svg>
