<svg width="236" height="182" viewBox="0 0 236 182" fill="none" xmlns="http://www.w3.org/2000/svg">
<g clip-path="url(#clip0_3060_79811)">
<rect width="236" height="182" fill="white"/>
<path d="M192 -29C75.4263 208.462 35.8429 64 70.4862 11.307C88.4438 -16.0068 62.4279 174.59 53.616 132.729C22.9666 -12.8702 54.4052 236.793 -82.7062 176.839" stroke="black" stroke-linecap="round"/>
<path d="M205.444 68.876C200.9 84.1883 184.869 92.895 169.641 88.3287C154.413 83.7623 145.747 67.6501 150.291 52.3378C154.836 37.0256 170.867 28.3189 186.095 32.8852C201.323 37.4515 209.989 53.5638 205.444 68.876Z" fill="url(#paint0_linear_3060_79811)" fill-opacity="0.8" stroke="black"/>
<path d="M198.029 47.1105C201.878 52.9255 203.22 60.3533 201.079 67.5687C197.255 80.4548 183.76 87.786 170.94 83.9419" stroke="black" stroke-miterlimit="10" stroke-linecap="round"/>
<path d="M159.145 76.0688C154.214 70.0246 152.263 61.705 154.653 53.6515C158.477 40.7654 171.972 33.4342 184.792 37.2783" stroke="black" stroke-miterlimit="10" stroke-linecap="round"/>
<path d="M168.314 64.851L176.815 67.3999" stroke="black" stroke-linecap="round" stroke-linejoin="round"/>
<path d="M189.292 55.5347C191.713 47.3759 183.356 45.3502 178.969 44.0346L174.224 60.0213C178.337 61.2547 186.871 63.6934 189.292 55.5347Z" fill="url(#paint1_linear_3060_79811)" fill-opacity="0.8"/>
<path d="M178.969 44.0346C183.356 45.3502 191.713 47.3759 189.292 55.5347C186.871 63.6934 178.337 61.2547 174.224 60.0213M178.969 44.0346L174.224 60.0213M178.969 44.0346L176.501 43.2945M169.48 76.008L174.224 60.0213" stroke="black" stroke-linecap="round" stroke-linejoin="round"/>
<path d="M127.614 91.5873C135.959 105.206 131.711 122.948 118.132 131.216C104.553 139.484 86.779 135.151 78.4337 121.533C70.0883 107.914 74.3361 90.1722 87.915 81.9041C101.494 73.636 119.268 77.9685 127.614 91.5873Z" fill="white" stroke="black"/>
<path d="M106.473 82.5445C113.37 83.5718 119.79 87.541 123.723 93.9585C130.746 105.419 127.172 120.355 115.74 127.315" fill="white"/>
<path d="M106.473 82.5445C113.37 83.5718 119.79 87.541 123.723 93.9585C130.746 105.419 127.172 120.355 115.74 127.315" stroke="black" stroke-miterlimit="10" stroke-linecap="round"/>
<path d="M101.999 130.82C94.2079 130.444 86.7178 126.33 82.3286 119.168C75.3055 107.707 78.8796 92.7709 90.3108 85.8106" fill="white"/>
<path d="M101.999 130.82C94.2079 130.444 86.7178 126.33 82.3286 119.168C75.3055 107.707 78.8796 92.7709 90.3108 85.8106" stroke="black" stroke-miterlimit="10" stroke-linecap="round"/>
<path d="M99.7891 116.501L107.369 111.886" stroke="black" stroke-linecap="round" stroke-linejoin="round"/>
<path d="M106.893 94.6743C102.447 87.4179 95.3515 92.2766 91.4392 94.6587L100.152 108.877C103.82 106.644 111.34 101.931 106.893 94.6743Z" fill="white"/>
<path d="M91.4392 94.6587C95.3515 92.2766 102.447 87.4179 106.893 94.6743C111.34 101.931 103.82 106.644 100.152 108.877M91.4392 94.6587L100.152 108.877M91.4392 94.6587L89.2386 95.9986M108.865 123.096L100.152 108.877" stroke="black" stroke-linecap="round" stroke-linejoin="round"/>
<path d="M214.386 140.734C212.627 156.609 198.393 168.019 182.597 166.224C166.8 164.429 155.416 150.108 157.174 134.233C158.933 118.358 173.167 106.947 188.963 108.742C204.76 110.537 216.144 124.858 214.386 140.734Z" fill="white" stroke="black"/>
<path d="M203.231 120.627C208.05 125.668 210.687 132.74 209.859 140.221C208.379 153.581 196.397 163.188 183.1 161.677" fill="white"/>
<path d="M203.231 120.627C208.05 125.668 210.687 132.74 209.859 140.221C208.379 153.581 196.397 163.188 183.1 161.677" stroke="black" stroke-miterlimit="10" stroke-linecap="round"/>
<path d="M170.095 156.019C164.171 150.944 160.777 143.102 161.701 134.752C163.181 121.393 175.163 111.786 188.461 113.297" fill="white"/>
<path d="M170.095 156.019C164.171 150.944 160.777 143.102 161.701 134.752C163.181 121.393 175.163 111.786 188.461 113.297" stroke="black" stroke-miterlimit="10" stroke-linecap="round"/>
<path d="M177.129 143.354L185.947 144.355" stroke="black" stroke-linecap="round" stroke-linejoin="round"/>
<path d="M196.125 130.467C197.062 122.008 188.478 121.495 183.927 120.978L182.091 137.553C186.358 138.038 195.188 138.925 196.125 130.467Z" fill="white"/>
<path d="M183.927 120.978C188.478 121.495 197.062 122.008 196.125 130.467C195.188 138.925 186.358 138.038 182.091 137.553M183.927 120.978L182.091 137.553M183.927 120.978L181.367 120.687M180.255 154.127L182.091 137.553" stroke="black" stroke-linecap="round" stroke-linejoin="round"/>
</g>
<defs>
<linearGradient id="paint0_linear_3060_79811" x1="162.877" y1="21.9888" x2="208.558" y2="75.0216" gradientUnits="userSpaceOnUse">
<stop stop-color="#4BD0A0"/>
<stop offset="0.2" stop-color="#55D4A7"/>
<stop offset="0.7" stop-color="#B5FFEA"/>
<stop offset="1" stop-color="#91E3FD"/>
</linearGradient>
<linearGradient id="paint1_linear_3060_79811" x1="178.041" y1="41.8173" x2="195.873" y2="53.6021" gradientUnits="userSpaceOnUse">
<stop stop-color="#4BD0A0"/>
<stop offset="0.2" stop-color="#55D4A7"/>
<stop offset="0.7" stop-color="#B5FFEA"/>
<stop offset="1" stop-color="#91E3FD"/>
</linearGradient>
<clipPath id="clip0_3060_79811">
<rect width="236" height="182" fill="white"/>
</clipPath>
</defs>
</svg>
