<svg width="236" height="182" viewBox="0 0 236 182" fill="none" xmlns="http://www.w3.org/2000/svg">
<g clip-path="url(#clip0_3060_79840)">
<rect width="236" height="182" fill="white"/>
<path d="M189.892 114.842C197.016 130.713 193.185 150.497 190.159 159.136C190.004 159.576 189.59 159.852 189.125 159.818C157.695 157.484 95.8062 148.54 93.6882 130.858C91.6393 113.752 96.1941 100.977 99.0265 96.1439C99.2335 95.7907 99.2315 95.355 99.0226 95.003C96.4235 90.6216 96.0735 86.4643 96.2685 84.3835C96.3059 83.985 96.1504 83.5884 95.8494 83.3246C90.529 78.6611 93.9169 70.0422 96.3574 66.2122L100.958 57.0091C101.06 56.8054 101.093 56.575 101.055 56.3503C100.716 54.3394 100.327 50.6091 101.115 49.3833C101.795 48.3257 103.545 49.3476 104.778 50.3487C105.212 50.7008 105.845 50.7092 106.254 50.328L107.158 49.4836C107.23 49.4171 107.312 49.3595 107.399 49.3152C127.582 39.0412 139.026 44.0917 150.74 49.2615L151.016 49.3833C162.853 54.6061 165.522 66.6764 166.451 73.0598C167.181 78.081 170.14 83.738 171.599 86.0591C171.649 86.1375 171.704 86.2026 171.772 86.2656C174.859 89.128 182.637 98.6759 189.892 114.842Z" fill="white"/>
<mask id="mask0_3060_79840" style="mask-type:alpha" maskUnits="userSpaceOnUse" x="93" y="43" width="101" height="117">
<path d="M189.89 114.845C197.014 130.716 193.183 150.5 190.157 159.139C190.003 159.579 189.588 159.855 189.123 159.82C157.693 157.486 95.8042 148.543 93.6863 130.861C91.6373 113.754 96.1921 100.98 99.0246 96.1465C99.2315 95.7934 99.2295 95.3577 99.0207 95.0057C96.4215 90.6243 96.0715 86.467 96.2666 84.3862C96.3039 83.9877 96.1484 83.5911 95.8475 83.3273C90.5271 78.6638 93.915 70.0449 96.3554 66.2149L100.956 57.0118C101.058 56.808 101.091 56.5776 101.053 56.353C100.714 54.3421 100.325 50.6118 101.113 49.386C101.793 48.3284 103.543 49.3503 104.776 50.3514C105.21 50.7035 105.843 50.7119 106.252 50.3307L107.156 49.4863C107.228 49.4198 107.31 49.3622 107.397 49.3179C127.58 39.0439 139.024 44.0944 150.738 49.2642L151.014 49.386C162.851 54.6088 165.52 66.6791 166.449 73.0625C167.179 78.0837 170.138 83.7407 171.597 86.0617C171.647 86.1402 171.702 86.2052 171.77 86.2683C174.857 89.1307 182.635 98.6786 189.89 114.845Z" fill="#FCEEE0"/>
</mask>
<g mask="url(#mask0_3060_79840)">
<g filter="url(#filter0_f_3060_79840)">
<path d="M222.501 142.351C222.501 159.53 211.122 173.456 197.086 173.456C119.334 160.341 170.047 155.351 170.047 138.173C174.805 115.425 169.936 83.1599 183.972 83.1599C198.009 83.1599 222.501 125.173 222.501 142.351Z" fill="white"/>
</g>
<g filter="url(#filter1_f_3060_79840)">
<ellipse cx="107.148" cy="139.334" rx="31.101" ry="31.1044" fill="white"/>
</g>
<g filter="url(#filter2_f_3060_79840)">
<ellipse cx="31.1015" cy="12.5608" rx="31.1015" ry="12.5608" transform="matrix(0.920479 -0.390793 0.390719 0.92051 108.076 40.6173)" fill="white"/>
</g>
</g>
<path d="M119.152 65.5222C122.027 64.4061 125.964 67.4598 127.574 69.1262C124.991 72.7302 121.173 72.7302 119.152 72.2651C117.131 71.8001 117.019 66.3505 119.152 65.5222Z" fill="white"/>
<path d="M101.107 61.0661C102.377 60.1661 104.117 62.6287 104.828 63.9725C103.687 66.879 102 66.879 101.107 66.504C100.213 66.1289 100.164 61.7341 101.107 61.0661Z" fill="white"/>
<path d="M101.231 49.035C102.531 48.385 104.403 50.4664 105.177 51.5883L101.231 57.2753C100.69 54.7994 99.9316 49.6849 101.231 49.035Z" fill="white"/>
<path d="M150.783 74.3368C150.226 67.5588 144.981 60.0612 142.428 57.1597C145.213 55.9991 154.613 58.3203 155.889 61.57C156.911 64.1698 152.911 71.1644 150.783 74.3368Z" fill="white"/>
<path d="M166.45 153.027L223.778 168.579L229 199.335L218.44 212.914L-27.1186 215.584L-40 157.321L-13.1928 137.707L31.6018 120.181L166.45 153.027Z" fill="url(#paint0_linear_3060_79840)"/>
<path d="M166.45 153.027L223.778 168.579L229 199.335L218.44 212.914L-27.1186 215.584L-40 157.321L-13.1928 137.707L31.6018 120.181L166.45 153.027Z" fill="url(#paint1_linear_3060_79840)" fill-opacity="0.8"/>
<path d="M-10.2918 54.7225L-29.904 44.0449L-31.0645 171.712L3.75004 206.879L86.0283 218.601L175.153 158.481V152.214C175.618 149.893 172.33 148.693 170.628 148.384L63.2828 123.083L57.4804 121.69L15.0067 137.938C8.93353 117.357 -3.51458 74.2672 -4.72148 66.5607C-5.92839 58.8543 -8.93791 55.4575 -10.2918 54.7225Z" fill="#E8E4E4"/>
<path d="M27.6548 135.385L16.166 139.795L34.7337 207.343L81.2691 209.548L135.812 173.337L27.6548 135.385Z" fill="#E8E4E4"/>
<path d="M84.6352 205.602L26.3789 166.954" stroke="black" stroke-width="1.3" stroke-linecap="round"/>
<path d="M98.0974 197.361L22.666 154.071" stroke="black" stroke-width="1.3" stroke-linecap="round"/>
<path d="M112.72 187.843L19.8809 144.204" stroke="black" stroke-width="1.3" stroke-linecap="round"/>
<path d="M124.558 180.068L26.6133 139.331" stroke="black" stroke-width="1.3" stroke-linecap="round"/>
<path d="M90.5545 80.7196C87.9241 81.8028 82.1294 84.2943 79.9941 85.5942" stroke="black" stroke-width="1.3" stroke-linecap="round"/>
<path d="M88.3488 78.282C84.7126 78.901 76.0245 80.6264 70.3613 82.5762" stroke="black" stroke-width="1.3" stroke-linecap="round"/>
<path d="M122.004 83.5049C127.265 84.5108 132.379 85.5476 135.814 87.2189" stroke="black" stroke-width="1.3" stroke-linecap="round"/>
<path d="M98.0986 96.852C96.5126 100.063 94.291 105.739 93.6888 111.36C92.6443 121.109 92.5283 122.734 93.6888 128.421" stroke="black" stroke-width="1.3" stroke-linecap="round"/>
<path d="M117.594 85.2469C121.114 86.2238 133.333 90.9442 140.919 96.0406" stroke="black" stroke-width="1.3" stroke-linecap="round"/>
<path d="M114.461 75.4969C114.384 72.3633 113.092 66.0263 108.543 65.7478C102.856 65.3996 100.187 84.6526 108.078 86.4067C111.211 87.1031 115.157 82.035 114.461 78.1663" stroke="black" stroke-width="1.3" stroke-linecap="round"/>
<path d="M104.828 50.7756C103.628 49.7311 101.114 48.083 100.65 49.8471C100.186 51.6113 101.153 55.6115 101.694 57.3911" stroke="black" stroke-width="1.3" stroke-linecap="round"/>
<path d="M99.373 68.532C100.108 67.4488 101.182 65.9311 102.158 66.9071C103.319 68.0678 103.28 71.8204 103.435 72.7102M116.316 77.0046C123.975 75.1476 139.688 71.4336 141.266 71.4336C142.845 71.4336 144.168 72.2847 144.632 72.7102" stroke="black" stroke-width="1.3" stroke-linecap="round"/>
<path d="M103.318 61.686C102.931 61.8794 102.204 62.9162 102.389 65.516C105.36 63.7519 104.246 62.2276 103.318 61.686Z" fill="black" stroke="black" stroke-width="1.3" stroke-linecap="round"/>
<path d="M96.0098 85.8266C96.4353 89.3471 98.7717 96.8756 104.713 98.8255C112.14 101.263 118.059 100.102 118.987 99.9861C119.916 99.87 126.53 101.959 132.681 99.9861" stroke="black" stroke-width="1.3" stroke-linecap="round"/>
<path d="M99.8369 78.3996C99.0633 80.6048 99.6908 85.0936 105.755 89.5415C109.237 92.0948 114.266 92.0561 116.664 90.9342" stroke="black" stroke-width="1.3" stroke-linecap="round"/>
<path d="M96.8201 64.9349C94.3444 68.262 90.0896 78.282 94.7312 83.0405C96.4001 84.7514 97.8649 83.0405 99.1411 80.7193" stroke="black" stroke-width="1.3" stroke-linecap="round"/>
<path d="M89.627 66.2125L95.5454 65.748" stroke="black" stroke-width="1.3" stroke-linecap="round"/>
<path d="M99.0255 70.6221C99.3737 67.1403 98.7703 59.4802 93.5714 59.4802C87.0727 59.4802 88.018 79.3267 93.5714 79.3267C96.3564 79.3267 97.9812 76.7733 98.5614 74.22" stroke="black" stroke-width="1.3" stroke-linecap="round"/>
<path d="M102.929 72.9989C102.349 72.1478 100.724 70.5384 98.8674 70.9098C97.1246 71.2584 98.7216 74.5654 99.9159 76.4737C100.047 76.6827 100.308 76.7658 100.538 76.6773L103.161 75.6683" stroke="black" stroke-width="1.3" stroke-linecap="round"/>
<path d="M99.7207 60.4098C100.572 59.2105 102.808 55.7674 104.943 51.5892C107.612 46.3664 126.967 39.1918 143.587 46.2505C160.53 53.4464 163.547 57.8565 167.609 76.1942C171.671 94.5318 201.959 108.808 191.979 153.607" stroke="black" stroke-width="1.3" stroke-linecap="round"/>
<path d="M142.312 56.6951C145.175 56.4243 151.712 56.7879 154.962 60.4091C159.023 64.9354 149.856 73.524 150.552 74.6846" stroke="black" stroke-width="1.3" stroke-linecap="round"/>
<path d="M100.303 61.9169C103.088 60.0599 104.666 61.8008 104.48 63.1936C104.295 64.5863 103.552 66.3272 101.579 66.3272M114.461 68.1842C115.196 68.3776 117.014 68.2074 118.406 65.979C120.147 63.1936 128.27 68.1842 127.574 69.693C126.878 71.2018 122.12 74.2194 116.898 71.2018" stroke="black" stroke-width="1.3" stroke-linecap="round"/>
<path d="M121.655 65.8639C121.114 67.9143 120.355 71.9687 121.655 71.783C123.28 71.5509 123.86 65.8639 121.655 65.8639Z" fill="black" stroke="black" stroke-width="1.3" stroke-linecap="round"/>
<path d="M168.887 96.5043C175.154 108.226 174.295 136.244 164.361 146.643" stroke="black" stroke-width="1.3" stroke-linecap="round"/>
<path d="M17.0957 137.127L53.9991 123.199C55.2756 122.658 58.4785 121.737 61.078 122.387C63.6775 123.037 134.653 139.912 169.815 148.268C172.794 148.771 177.707 150.659 173.529 154.188C168.307 158.598 60.6138 230.904 50.7497 233.574C47.787 234.375 44.0576 233.109 42.6263 232.761" stroke="black" stroke-width="1.3" stroke-linecap="round"/>
<path d="M171.673 160.454C132.836 186.839 54.5199 238.399 52.1437 239.028C48.1981 240.072 45.645 238.834 43.9043 239.028" stroke="black" stroke-width="1.3" stroke-linecap="round"/>
<path d="M40.8842 241L-29.209 174.497" stroke="black" stroke-width="1.3" stroke-linecap="round"/>
<path d="M18.1406 139.098L27.4212 135.744C27.6485 135.661 27.8972 135.66 28.1253 135.74L134.369 172.975C135.193 173.264 135.325 174.374 134.59 174.848L62.1615 221.567C61.7901 221.806 61.3084 221.788 60.9567 221.52L34.8516 201.655" stroke="black" stroke-width="1.3" stroke-linecap="round"/>
<path d="M122.933 172.059L56.2051 212.913" stroke="black" stroke-width="1.3" stroke-linecap="round"/>
<path d="M112.603 168.229L45.875 209.083" stroke="black" stroke-width="1.3" stroke-linecap="round"/>
<path d="M102.275 164.4L39.7246 201.888" stroke="black" stroke-width="1.3" stroke-linecap="round"/>
<path d="M91.946 160.57L33.9219 194.692" stroke="black" stroke-width="1.3" stroke-linecap="round"/>
<path d="M81.6184 156.74L31.6016 186.22" stroke="black" stroke-width="1.3" stroke-linecap="round"/>
<path d="M71.2911 152.91L29.5137 177.05" stroke="black" stroke-width="1.3" stroke-linecap="round"/>
<path d="M60.7295 149.893L32.1816 164.748" stroke="black" stroke-width="1.3" stroke-linecap="round"/>
<path d="M48.8926 145.831L32.1816 154.535" stroke="black" stroke-width="1.3" stroke-linecap="round"/>
<path d="M177.357 156.043L217.046 166.953" stroke="black" stroke-width="1.3" stroke-linecap="round"/>
<path d="M45.0638 123.779L31.4862 120.529L15.3555 125.984" stroke="black" stroke-width="1.3" stroke-linecap="round"/>
<path d="M77.8082 129.844L54.9736 139.971C54.0963 140.36 54.1579 141.625 55.0689 141.927L94.1017 154.867C94.3572 154.952 94.6356 154.935 94.8791 154.821L121.417 142.331C122.312 141.91 122.182 140.599 121.223 140.362L78.486 129.784C78.2597 129.728 78.0213 129.749 77.8082 129.844Z" stroke="black" stroke-width="1.3" stroke-linecap="round"/>
<path d="M40.8849 240.884C41.6198 238.989 42.6488 233.921 40.8849 228.814C39.1209 223.707 15.7024 139.447 -4.60608 67.721C-6.07603 62.9238 -5.99866 56.1149 -14.7023 51.9367L-31.5293 43" stroke="black" stroke-width="1.3" stroke-linecap="round"/>
<path d="M105.244 -27.3831C340.424 66.8468 93.0626 37.7055 165.859 32.2636C199.267 29.7662 268.615 58.6767 212.77 62.8523C105.263 70.8908 297.413 99.1922 262.121 194.04" stroke="black" stroke-linecap="round"/>
</g>
<defs>
<filter id="filter0_f_3060_79840" x="143.298" y="72.6612" width="89.7013" height="111.293" filterUnits="userSpaceOnUse" color-interpolation-filters="sRGB">
<feFlood flood-opacity="0" result="BackgroundImageFix"/>
<feBlend mode="normal" in="SourceGraphic" in2="BackgroundImageFix" result="shape"/>
<feGaussianBlur stdDeviation="5.24931" result="effect1_foregroundBlur_3060_79840"/>
</filter>
<filter id="filter1_f_3060_79840" x="23.5538" y="55.7364" width="167.188" height="167.195" filterUnits="userSpaceOnUse" color-interpolation-filters="sRGB">
<feFlood flood-opacity="0" result="BackgroundImageFix"/>
<feBlend mode="normal" in="SourceGraphic" in2="BackgroundImageFix" result="shape"/>
<feGaussianBlur stdDeviation="26.2465" result="effect1_foregroundBlur_3060_79840"/>
</filter>
<filter id="filter2_f_3060_79840" x="102.063" y="12.7514" width="79.0988" height="54.548" filterUnits="userSpaceOnUse" color-interpolation-filters="sRGB">
<feFlood flood-opacity="0" result="BackgroundImageFix"/>
<feBlend mode="normal" in="SourceGraphic" in2="BackgroundImageFix" result="shape"/>
<feGaussianBlur stdDeviation="5.24931" result="effect1_foregroundBlur_3060_79840"/>
</filter>
<linearGradient id="paint0_linear_3060_79840" x1="94.5" y1="120.181" x2="94.5" y2="215.584" gradientUnits="userSpaceOnUse">
<stop stop-color="#60F7C5"/>
<stop offset="1" stop-color="#89E0F2"/>
</linearGradient>
<linearGradient id="paint1_linear_3060_79840" x1="-21.9487" y1="114.881" x2="66.7315" y2="275.994" gradientUnits="userSpaceOnUse">
<stop stop-color="#4BD0A0"/>
<stop offset="0.2" stop-color="#55D4A7"/>
<stop offset="0.7" stop-color="#B5FFEA"/>
<stop offset="1" stop-color="#91E3FD"/>
</linearGradient>
<clipPath id="clip0_3060_79840">
<rect width="236" height="182" fill="white"/>
</clipPath>
</defs>
</svg>
