<svg width="140" height="32" viewBox="0 0 140 32" fill="none" xmlns="http://www.w3.org/2000/svg">
<path d="M40.8867 2.46473H43.9576L46.8514 7.9985L49.7451 2.46473H52.6979V12.7196H50.2175V6.04427L47.6781 10.688H45.9065L43.3671 6.04427V12.7196H40.8867V2.46473Z" fill="black"/>
<path d="M59.7792 12.9518C59.0705 12.9518 58.3947 12.8486 57.7516 12.6422C57.1217 12.4229 56.5705 12.1005 56.0981 11.6748C55.6256 11.2362 55.2516 10.688 54.976 10.0301C54.7004 9.35937 54.5626 8.57896 54.5626 7.68892V7.30194C54.5626 6.45059 54.6938 5.70889 54.9563 5.07682C55.2188 4.44476 55.5797 3.92234 56.039 3.50957C56.4983 3.08389 57.0298 2.76786 57.6335 2.56147C58.2372 2.34219 58.8868 2.23254 59.5823 2.23254C61.2228 2.23254 62.4695 2.65822 63.3225 3.50957C64.1756 4.36092 64.6021 5.59279 64.6021 7.2052V8.28873H57.2201C57.2332 8.7402 57.312 9.13363 57.4563 9.46901C57.6007 9.79149 57.791 10.0559 58.0272 10.2623C58.2634 10.4687 58.5325 10.6235 58.8343 10.7267C59.1493 10.817 59.4642 10.8621 59.7792 10.8621C60.4485 10.8621 60.9538 10.7654 61.295 10.5719C61.6362 10.3784 61.879 10.0946 62.0233 9.72054H64.4052C64.1953 10.7912 63.6769 11.5974 62.8501 12.1391C62.0233 12.6809 60.9997 12.9518 59.7792 12.9518ZM59.6808 4.32222C59.3789 4.32222 59.0771 4.36092 58.7753 4.43831C58.4865 4.51571 58.2306 4.63825 58.0075 4.80594C57.7844 4.97363 57.6007 5.19937 57.4563 5.48315C57.312 5.76693 57.2332 6.10876 57.2201 6.50864H62.0824C62.0693 6.08296 61.9971 5.72823 61.8658 5.44445C61.7477 5.16067 61.5771 4.93493 61.354 4.76724C61.144 4.59955 60.8947 4.48346 60.606 4.41896C60.3173 4.35447 60.0089 4.32222 59.6808 4.32222Z" fill="black"/>
<path d="M65.4941 10.5912H66.6752C66.8064 10.3978 66.9245 10.1204 67.0295 9.75924C67.1345 9.38517 67.2133 8.97239 67.2658 8.52092C67.3314 8.05654 67.3773 7.57282 67.4036 7.06975C67.4429 6.55378 67.4626 6.05072 67.4626 5.56054V2.46473H75.632V10.5912H76.9115V15.1382H74.6281V12.7196H67.7776V15.1382H65.4941V10.5912ZM73.0335 10.5912V4.5931H69.8445V5.94752C69.8445 6.39899 69.8314 6.84402 69.8052 7.28259C69.7789 7.72117 69.7395 8.14684 69.687 8.55962C69.6477 8.95949 69.5886 9.33357 69.5099 9.68185C69.4311 10.0301 69.3327 10.3333 69.2146 10.5912H73.0335Z" fill="black"/>
<path d="M78.5848 2.46473H81.1832V9.04334L85.829 2.46473H88.2306V12.7196H85.6321V6.14101L80.9864 12.7196H78.5848V2.46473Z" fill="black"/>
<path d="M93.7297 12.9518C93.1654 12.9518 92.6667 12.8744 92.2336 12.7196C91.8005 12.5519 91.4331 12.3262 91.1312 12.0424C90.8294 11.7457 90.5997 11.4039 90.4422 11.0169C90.2848 10.617 90.206 10.1849 90.206 9.72054C90.206 7.65667 91.4528 6.62473 93.9462 6.62473H97.0565V6.14101C97.0565 5.47025 96.899 4.99943 96.5841 4.72854C96.2822 4.45766 95.7966 4.32222 95.1273 4.32222C94.5368 4.32222 94.1103 4.42541 93.8478 4.6318C93.5853 4.82529 93.4344 5.07037 93.395 5.36706H90.7966C90.8228 4.92848 90.9344 4.51571 91.1312 4.12873C91.3412 3.74175 91.6299 3.41282 91.9974 3.14194C92.378 2.85816 92.8373 2.63887 93.3754 2.48408C93.9134 2.31639 94.5302 2.23254 95.2258 2.23254C95.8951 2.23254 96.4987 2.30349 97.0368 2.44538C97.588 2.58727 98.0539 2.81946 98.4345 3.14194C98.8282 3.45152 99.13 3.85785 99.34 4.36092C99.55 4.86399 99.655 5.47025 99.655 6.17971V10.1075C99.655 10.6493 99.6615 11.1266 99.6746 11.5393C99.7009 11.9392 99.7403 12.3326 99.7928 12.7196H97.3715C97.319 12.4358 97.2862 12.223 97.273 12.0811C97.273 11.9263 97.273 11.7006 97.273 11.4039C96.9843 11.8167 96.5447 12.1778 95.9541 12.4874C95.3767 12.797 94.6352 12.9518 93.7297 12.9518ZM94.5368 10.9782C94.8517 10.9782 95.1601 10.9395 95.462 10.8621C95.7638 10.7718 96.0329 10.6428 96.2691 10.4751C96.5053 10.2946 96.6956 10.0688 96.84 9.79794C96.9843 9.52706 97.0565 9.21103 97.0565 8.84985V8.36613H94.4384C93.9397 8.36613 93.546 8.48222 93.2572 8.71441C92.9816 8.93369 92.8438 9.23682 92.8438 9.6238C92.8438 10.0366 92.9882 10.3655 93.2769 10.6106C93.5656 10.8557 93.9856 10.9782 94.5368 10.9782Z" fill="black"/>
<path d="M40.8867 19.5811H43.4852V23.5476H47.934V19.5811H50.5325V29.8359H47.934V25.6759H43.4852V29.8359H40.8867V19.5811Z" fill="black"/>
<path d="M57.6261 30.0681C56.9175 30.0681 56.2416 29.9649 55.5985 29.7586C54.9686 29.5393 54.4174 29.2168 53.945 28.7911C53.4725 28.3525 53.0985 27.8043 52.8229 27.1465C52.5473 26.4757 52.4095 25.6953 52.4095 24.8053V24.4183C52.4095 23.5669 52.5408 22.8252 52.8032 22.1932C53.0657 21.5611 53.4266 21.0387 53.8859 20.6259C54.3452 20.2002 54.8767 19.8842 55.4804 19.6778C56.0841 19.4585 56.7337 19.3489 57.4293 19.3489C59.0697 19.3489 60.3164 19.7746 61.1695 20.6259C62.0225 21.4772 62.449 22.7091 62.449 24.3215V25.4051H55.067C55.0802 25.8565 55.1589 26.25 55.3033 26.5853C55.4476 26.9078 55.6379 27.1723 55.8741 27.3786C56.1104 27.585 56.3794 27.7398 56.6812 27.843C56.9962 27.9333 57.3112 27.9785 57.6261 27.9785C58.2954 27.9785 58.8007 27.8817 59.1419 27.6882C59.4831 27.4947 59.7259 27.211 59.8702 26.8369H62.2522C62.0422 27.9075 61.5238 28.7137 60.697 29.2555C59.8702 29.7973 58.8466 30.0681 57.6261 30.0681ZM57.5277 21.4386C57.2259 21.4386 56.924 21.4772 56.6222 21.5546C56.3335 21.632 56.0775 21.7546 55.8544 21.9223C55.6313 22.09 55.4476 22.3157 55.3033 22.5995C55.1589 22.8833 55.0802 23.2251 55.067 23.625H59.9293C59.9162 23.1993 59.844 22.8446 59.7128 22.5608C59.5947 22.277 59.424 22.0513 59.2009 21.8836C58.991 21.7159 58.7416 21.5998 58.4529 21.5353C58.1642 21.4708 57.8558 21.4386 57.5277 21.4386Z" fill="black"/>
<path d="M66.6678 21.7094H63.341V19.5811H72.5931V21.7094H69.2663V29.8359H66.6678V21.7094Z" fill="black"/>
<path d="M78.6955 30.0681C77.9869 30.0681 77.311 29.9649 76.6679 29.7586C76.038 29.5393 75.4868 29.2103 75.0144 28.7718C74.5419 28.3332 74.1679 27.785 73.8923 27.1271C73.6167 26.4693 73.4789 25.6953 73.4789 24.8053V24.4183C73.4789 23.5798 73.6167 22.8446 73.8923 22.2125C74.1679 21.5804 74.5419 21.0516 75.0144 20.6259C75.4868 20.2002 76.038 19.8842 76.6679 19.6778C77.311 19.4585 77.9869 19.3489 78.6955 19.3489C79.4042 19.3489 80.0735 19.4585 80.7034 19.6778C81.3333 19.8842 81.8845 20.2002 82.357 20.6259C82.8426 21.0516 83.2231 21.5804 83.4987 22.2125C83.7743 22.8446 83.9121 23.5798 83.9121 24.4183V24.8053C83.9121 25.6824 83.7743 26.4499 83.4987 27.1078C83.2231 27.7656 82.8426 28.3138 82.357 28.7524C81.8845 29.191 81.3333 29.5199 80.7034 29.7392C80.0735 29.9585 79.4042 30.0681 78.6955 30.0681ZM78.6955 27.9011C79.4304 27.9011 80.0407 27.6431 80.5263 27.1271C81.0249 26.6111 81.2743 25.8372 81.2743 24.8053V24.4183C81.2743 23.4766 81.0249 22.7607 80.5263 22.2706C80.0407 21.7675 79.4304 21.5159 78.6955 21.5159C77.9475 21.5159 77.3307 21.7675 76.8451 22.2706C76.3595 22.7607 76.1167 23.4766 76.1167 24.4183V24.8053C76.1167 25.8501 76.3595 26.6305 76.8451 27.1465C77.3307 27.6495 77.9475 27.9011 78.6955 27.9011Z" fill="black"/>
<path d="M85.6807 30.0681C85.5757 30.0681 85.4445 30.0617 85.287 30.0488C85.1295 30.0488 84.9983 30.0359 84.8933 30.0101V27.7076C84.9589 27.7205 85.0574 27.7269 85.1886 27.7269C85.4379 27.7269 85.6545 27.656 85.8382 27.5141C86.0219 27.3593 86.1728 27.1013 86.291 26.7401C86.4222 26.379 86.5141 25.9017 86.5666 25.3083C86.6322 24.7021 86.665 23.9539 86.665 23.0639V19.5811H94.9328V29.8359H92.3343V21.7094H89.0666V23.4508C89.0666 24.7795 88.9944 25.8759 88.85 26.7401C88.7188 27.5915 88.5088 28.2622 88.2201 28.7524C87.9445 29.2426 87.5902 29.5844 87.1571 29.7779C86.7372 29.9714 86.245 30.0681 85.6807 30.0681Z" fill="black"/>
<path d="M102.014 30.0681C101.305 30.0681 100.63 29.9649 99.9865 29.7586C99.3566 29.5393 98.8054 29.2103 98.333 28.7718C97.8605 28.3332 97.4865 27.785 97.2109 27.1271C96.9353 26.4693 96.7975 25.6953 96.7975 24.8053V24.4183C96.7975 23.5798 96.9353 22.8446 97.2109 22.2125C97.4865 21.5804 97.8605 21.0516 98.333 20.6259C98.8054 20.2002 99.3566 19.8842 99.9865 19.6778C100.63 19.4585 101.305 19.3489 102.014 19.3489C102.723 19.3489 103.392 19.4585 104.022 19.6778C104.652 19.8842 105.203 20.2002 105.676 20.6259C106.161 21.0516 106.542 21.5804 106.817 22.2125C107.093 22.8446 107.231 23.5798 107.231 24.4183V24.8053C107.231 25.6824 107.093 26.4499 106.817 27.1078C106.542 27.7656 106.161 28.3138 105.676 28.7524C105.203 29.191 104.652 29.5199 104.022 29.7392C103.392 29.9585 102.723 30.0681 102.014 30.0681ZM102.014 27.9011C102.749 27.9011 103.359 27.6431 103.845 27.1271C104.344 26.6111 104.593 25.8372 104.593 24.8053V24.4183C104.593 23.4766 104.344 22.7607 103.845 22.2706C103.359 21.7675 102.749 21.5159 102.014 21.5159C101.266 21.5159 100.649 21.7675 100.164 22.2706C99.6781 22.7607 99.4353 23.4766 99.4353 24.4183V24.8053C99.4353 25.8501 99.6781 26.6305 100.164 27.1465C100.649 27.6495 101.266 27.9011 102.014 27.9011Z" fill="black"/>
<path d="M109.29 19.5811H116.77V21.7094H111.888V29.8359H109.29V19.5811Z" fill="black"/>
<path d="M118.34 19.5811H120.938V26.1597L125.584 19.5811H127.986V29.8359H125.387V23.2573L120.741 29.8359H118.34V19.5811Z" fill="black"/>
<path d="M130.355 19.5811H132.953V26.1597L137.599 19.5811H140.001V29.8359H137.402V23.2573L132.756 29.8359H130.355V19.5811Z" fill="black"/>
<path fill-rule="evenodd" clip-rule="evenodd" d="M8.38862 16.7688C8.18143 16.7524 7.97197 16.7441 7.76054 16.7441C3.47451 16.7441 0 20.1593 0 24.372C0 28.5848 3.47451 32 7.76054 32C12.0466 32 15.5211 28.5848 15.5211 24.372C15.5211 24.0487 15.5006 23.73 15.4609 23.4172C11.7909 23.1283 8.84104 20.3299 8.38862 16.7688Z" fill="black"/>
<path fill-rule="evenodd" clip-rule="evenodd" d="M15.5211 7.62791C15.5211 3.41513 12.0466 4.1853e-07 7.76054 0C3.47451 -7.57816e-07 4.25808e-07 3.41513 0 7.62791C-7.70993e-07 11.8407 3.47451 15.2558 7.76054 15.2558C7.95902 15.2558 8.15576 15.2485 8.35046 15.2341C8.63729 11.4836 11.6833 8.48967 15.499 8.20774C15.5136 8.01637 15.5211 7.823 15.5211 7.62791Z" fill="black"/>
<path fill-rule="evenodd" clip-rule="evenodd" d="M23.8242 15.1966C24.1425 15.2357 24.4667 15.2558 24.7957 15.2558C29.0817 15.2558 32.5562 11.8407 32.5562 7.62791C32.5562 3.41513 29.0817 7.86824e-07 24.7957 0C20.5097 -7.8682e-07 17.0352 3.41513 17.0352 7.62791C17.0352 7.83572 17.0436 8.0416 17.0602 8.24525C20.6832 8.68993 23.5303 11.5894 23.8242 15.1966Z" fill="black"/>
<path fill-rule="evenodd" clip-rule="evenodd" d="M17.1005 23.3776C17.0574 23.7031 17.0352 24.035 17.0352 24.372C17.0352 28.5848 20.5097 32 24.7957 32C29.0817 32 32.5562 28.5848 32.5562 24.372C32.5562 20.1593 29.0817 16.7441 24.7957 16.7441C24.4528 16.7441 24.1151 16.766 23.784 16.8084C23.3313 20.2258 20.5773 22.9326 17.1005 23.3776Z" fill="black"/>
</svg>
