<svg width="185" height="43" viewBox="0 0 185 43" fill="none" xmlns="http://www.w3.org/2000/svg">
<path d="M54 3.312H58.056L61.878 10.748L65.7 3.312H69.6V17.092H66.324V8.122L62.97 14.362H60.63L57.276 8.122V17.092H54V3.312Z" fill="white"/>
<path d="M78.9529 17.404C78.0169 17.404 77.1242 17.2653 76.2749 16.988C75.4429 16.6933 74.7149 16.26 74.0909 15.688C73.4669 15.0987 72.9729 14.362 72.6089 13.478C72.2449 12.5767 72.0629 11.528 72.0629 10.332V9.812C72.0629 8.668 72.2362 7.67133 72.5829 6.822C72.9296 5.97267 73.4062 5.27067 74.0129 4.716C74.6196 4.144 75.3216 3.71933 76.1189 3.442C76.9162 3.14733 77.7742 3 78.6929 3C80.8596 3 82.5062 3.572 83.6329 4.716C84.7596 5.86 85.3229 7.51533 85.3229 9.682V11.138H75.5729C75.5902 11.7447 75.6942 12.2733 75.8849 12.724C76.0756 13.1573 76.3269 13.5127 76.6389 13.79C76.9509 14.0673 77.3062 14.2753 77.7049 14.414C78.1209 14.5353 78.5369 14.596 78.9529 14.596C79.8369 14.596 80.5042 14.466 80.9549 14.206C81.4056 13.946 81.7262 13.5647 81.9169 13.062H85.0629C84.7856 14.5007 84.1009 15.584 83.0089 16.312C81.9169 17.04 80.5649 17.404 78.9529 17.404ZM78.8229 5.808C78.4242 5.808 78.0256 5.86 77.6269 5.964C77.2456 6.068 76.9076 6.23267 76.6129 6.458C76.3182 6.68333 76.0756 6.98667 75.8849 7.368C75.6942 7.74933 75.5902 8.20867 75.5729 8.746H81.9949C81.9776 8.174 81.8822 7.69733 81.7089 7.316C81.5529 6.93467 81.3276 6.63133 81.0329 6.406C80.7556 6.18067 80.4262 6.02467 80.0449 5.938C79.6636 5.85133 79.2562 5.808 78.8229 5.808Z" fill="white"/>
<path d="M86.501 14.232H88.061C88.2343 13.972 88.3903 13.5993 88.529 13.114C88.6677 12.6113 88.7717 12.0567 88.841 11.45C88.9277 10.826 88.9883 10.176 89.023 9.5C89.075 8.80667 89.101 8.13067 89.101 7.472V3.312H99.891V14.232H101.581V20.342H98.565V17.092H89.517V20.342H86.501V14.232ZM96.459 14.232V6.172H92.247V7.992C92.247 8.59867 92.2297 9.19667 92.195 9.786C92.1603 10.3753 92.1083 10.9473 92.039 11.502C91.987 12.0393 91.909 12.542 91.805 13.01C91.701 13.478 91.571 13.8853 91.415 14.232H96.459Z" fill="white"/>
<path d="M103.791 3.312H107.223V12.152L113.359 3.312H116.531V17.092H113.099V8.252L106.963 17.092H103.791V3.312Z" fill="white"/>
<path d="M123.794 17.404C123.049 17.404 122.39 17.3 121.818 17.092C121.246 16.8667 120.761 16.5633 120.362 16.182C119.963 15.7833 119.66 15.324 119.452 14.804C119.244 14.2667 119.14 13.686 119.14 13.062C119.14 10.2887 120.787 8.902 124.08 8.902H128.188V8.252C128.188 7.35067 127.98 6.718 127.564 6.354C127.165 5.99 126.524 5.808 125.64 5.808C124.86 5.808 124.297 5.94667 123.95 6.224C123.603 6.484 123.404 6.81333 123.352 7.212H119.92C119.955 6.62267 120.102 6.068 120.362 5.548C120.639 5.028 121.021 4.586 121.506 4.222C122.009 3.84067 122.615 3.546 123.326 3.338C124.037 3.11267 124.851 3 125.77 3C126.654 3 127.451 3.09533 128.162 3.286C128.89 3.47667 129.505 3.78867 130.008 4.222C130.528 4.638 130.927 5.184 131.204 5.86C131.481 6.536 131.62 7.35067 131.62 8.304V13.582C131.62 14.31 131.629 14.9513 131.646 15.506C131.681 16.0433 131.733 16.572 131.802 17.092H128.604C128.535 16.7107 128.491 16.4247 128.474 16.234C128.474 16.026 128.474 15.7227 128.474 15.324C128.093 15.8787 127.512 16.364 126.732 16.78C125.969 17.196 124.99 17.404 123.794 17.404ZM124.86 14.752C125.276 14.752 125.683 14.7 126.082 14.596C126.481 14.4747 126.836 14.3013 127.148 14.076C127.46 13.8333 127.711 13.53 127.902 13.166C128.093 12.802 128.188 12.3773 128.188 11.892V11.242H124.73C124.071 11.242 123.551 11.398 123.17 11.71C122.806 12.0047 122.624 12.412 122.624 12.932C122.624 13.4867 122.815 13.9287 123.196 14.258C123.577 14.5873 124.132 14.752 124.86 14.752Z" fill="white"/>
<path d="M54 26.312H57.432V31.642H63.308V26.312H66.74V40.092H63.308V34.502H57.432V40.092H54V26.312Z" fill="white"/>
<path d="M76.1091 40.404C75.1731 40.404 74.2805 40.2653 73.4311 39.988C72.5991 39.6933 71.8711 39.26 71.2471 38.688C70.6231 38.0987 70.1291 37.362 69.7651 36.478C69.4011 35.5767 69.2191 34.528 69.2191 33.332V32.812C69.2191 31.668 69.3925 30.6713 69.7391 29.822C70.0858 28.9727 70.5625 28.2707 71.1691 27.716C71.7758 27.144 72.4778 26.7193 73.2751 26.442C74.0725 26.1473 74.9305 26 75.8491 26C78.0158 26 79.6625 26.572 80.7891 27.716C81.9158 28.86 82.4791 30.5153 82.4791 32.682V34.138H72.7291C72.7465 34.7447 72.8505 35.2733 73.0411 35.724C73.2318 36.1573 73.4831 36.5127 73.7951 36.79C74.1071 37.0673 74.4625 37.2753 74.8611 37.414C75.2771 37.5353 75.6931 37.596 76.1091 37.596C76.9931 37.596 77.6605 37.466 78.1111 37.206C78.5618 36.946 78.8825 36.5647 79.0731 36.062H82.2191C81.9418 37.5007 81.2571 38.584 80.1651 39.312C79.0731 40.04 77.7211 40.404 76.1091 40.404ZM75.9791 28.808C75.5805 28.808 75.1818 28.86 74.7831 28.964C74.4018 29.068 74.0638 29.2327 73.7691 29.458C73.4745 29.6833 73.2318 29.9867 73.0411 30.368C72.8505 30.7493 72.7465 31.2087 72.7291 31.746H79.1511C79.1338 31.174 79.0385 30.6973 78.8651 30.316C78.7091 29.9347 78.4838 29.6313 78.1891 29.406C77.9118 29.1807 77.5825 29.0247 77.2011 28.938C76.8198 28.8513 76.4125 28.808 75.9791 28.808Z" fill="white"/>
<path d="M88.0513 29.172H83.6573V26.312H95.8773V29.172H91.4833V40.092H88.0513V29.172Z" fill="white"/>
<path d="M103.937 40.404C103.001 40.404 102.109 40.2653 101.259 39.988C100.427 39.6933 99.6993 39.2513 99.0753 38.662C98.4513 38.0727 97.9573 37.336 97.5933 36.452C97.2293 35.568 97.0473 34.528 97.0473 33.332V32.812C97.0473 31.6853 97.2293 30.6973 97.5933 29.848C97.9573 28.9987 98.4513 28.288 99.0753 27.716C99.6993 27.144 100.427 26.7193 101.259 26.442C102.109 26.1473 103.001 26 103.937 26C104.873 26 105.757 26.1473 106.589 26.442C107.421 26.7193 108.149 27.144 108.773 27.716C109.415 28.288 109.917 28.9987 110.281 29.848C110.645 30.6973 110.827 31.6853 110.827 32.812V33.332C110.827 34.5107 110.645 35.542 110.281 36.426C109.917 37.31 109.415 38.0467 108.773 38.636C108.149 39.2253 107.421 39.6673 106.589 39.962C105.757 40.2567 104.873 40.404 103.937 40.404ZM103.937 37.492C104.908 37.492 105.714 37.1453 106.355 36.452C107.014 35.7587 107.343 34.7187 107.343 33.332V32.812C107.343 31.5467 107.014 30.5847 106.355 29.926C105.714 29.25 104.908 28.912 103.937 28.912C102.949 28.912 102.135 29.25 101.493 29.926C100.852 30.5847 100.531 31.5467 100.531 32.812V33.332C100.531 34.736 100.852 35.7847 101.493 36.478C102.135 37.154 102.949 37.492 103.937 37.492Z" fill="white"/>
<path d="M113.163 40.404C113.025 40.404 112.851 40.3953 112.643 40.378C112.435 40.378 112.262 40.3607 112.123 40.326V37.232C112.21 37.2493 112.34 37.258 112.513 37.258C112.843 37.258 113.129 37.1627 113.371 36.972C113.614 36.764 113.813 36.4173 113.969 35.932C114.143 35.4467 114.264 34.8053 114.333 34.008C114.42 33.1933 114.463 32.188 114.463 30.992V26.312H125.383V40.092H121.951V29.172H117.635V31.512C117.635 33.2973 117.54 34.7707 117.349 35.932C117.176 37.076 116.899 37.9773 116.517 38.636C116.153 39.2947 115.685 39.754 115.113 40.014C114.559 40.274 113.909 40.404 113.163 40.404Z" fill="white"/>
<path d="M134.736 40.404C133.8 40.404 132.907 40.2653 132.058 39.988C131.226 39.6933 130.498 39.2513 129.874 38.662C129.25 38.0727 128.756 37.336 128.392 36.452C128.028 35.568 127.846 34.528 127.846 33.332V32.812C127.846 31.6853 128.028 30.6973 128.392 29.848C128.756 28.9987 129.25 28.288 129.874 27.716C130.498 27.144 131.226 26.7193 132.058 26.442C132.907 26.1473 133.8 26 134.736 26C135.672 26 136.556 26.1473 137.388 26.442C138.22 26.7193 138.948 27.144 139.572 27.716C140.213 28.288 140.716 28.9987 141.08 29.848C141.444 30.6973 141.626 31.6853 141.626 32.812V33.332C141.626 34.5107 141.444 35.542 141.08 36.426C140.716 37.31 140.213 38.0467 139.572 38.636C138.948 39.2253 138.22 39.6673 137.388 39.962C136.556 40.2567 135.672 40.404 134.736 40.404ZM134.736 37.492C135.707 37.492 136.513 37.1453 137.154 36.452C137.813 35.7587 138.142 34.7187 138.142 33.332V32.812C138.142 31.5467 137.813 30.5847 137.154 29.926C136.513 29.25 135.707 28.912 134.736 28.912C133.748 28.912 132.933 29.25 132.292 29.926C131.651 30.5847 131.33 31.5467 131.33 32.812V33.332C131.33 34.736 131.651 35.7847 132.292 36.478C132.933 37.154 133.748 37.492 134.736 37.492Z" fill="white"/>
<path d="M144.346 26.312H154.226V29.172H147.778V40.092H144.346V26.312Z" fill="white"/>
<path d="M156.299 26.312H159.731V35.152L165.867 26.312H169.039V40.092H165.607V31.252L159.471 40.092H156.299V26.312Z" fill="white"/>
<path d="M172.168 26.312H175.6V35.152L181.736 26.312H184.908V40.092H181.476V31.252L175.34 40.092H172.168V26.312Z" fill="white"/>
<path fill-rule="evenodd" clip-rule="evenodd" d="M11.0795 22.5331C10.8059 22.5112 10.5292 22.5 10.25 22.5C4.58908 22.5 0 27.0891 0 32.75C0 38.4109 4.58908 43 10.25 43C15.9109 43 20.5 38.4109 20.5 32.75C20.5 32.3154 20.4729 31.8872 20.4204 31.4669C15.5732 31.0787 11.6771 27.3183 11.0795 22.5331Z" fill="white"/>
<path fill-rule="evenodd" clip-rule="evenodd" d="M20.5 10.25C20.5 4.58908 15.9109 5.624e-07 10.25 0C4.58908 -1.01831e-06 5.624e-07 4.58908 0 10.25C-1.01831e-06 15.9109 4.58908 20.5 10.25 20.5C10.5121 20.5 10.772 20.4901 11.0291 20.4708C11.408 15.4311 15.4311 11.408 20.4708 11.0291C20.4901 10.772 20.5 10.5121 20.5 10.25Z" fill="white"/>
<path fill-rule="evenodd" clip-rule="evenodd" d="M31.4669 20.4204C31.8872 20.4729 32.3154 20.5 32.75 20.5C38.4109 20.5 43 15.9109 43 10.25C43 4.58908 38.4109 1.05729e-06 32.75 0C27.0891 -1.05729e-06 22.5 4.58908 22.5 10.25C22.5 10.5292 22.5112 10.8059 22.5331 11.0795C27.3183 11.6771 31.0787 15.5732 31.4669 20.4204Z" fill="white"/>
<path fill-rule="evenodd" clip-rule="evenodd" d="M22.5863 31.4137C22.5293 31.851 22.5 32.2971 22.5 32.75C22.5 38.4109 27.0891 43 32.75 43C38.4109 43 43 38.4109 43 32.75C43 27.0891 38.4109 22.5 32.75 22.5C32.2971 22.5 31.851 22.5293 31.4137 22.5863C30.8158 27.1784 27.1784 30.8158 22.5863 31.4137Z" fill="white"/>
</svg>
