<svg width="41" height="40" viewBox="0 0 41 40" fill="none" xmlns="http://www.w3.org/2000/svg">
<circle cx="20.9082" cy="20" r="19.5" stroke="#CCCCCC"/>
<path d="M20.3927 20.3752C17.2128 20.3752 14.5698 17.7946 14.5698 14.741C14.5698 11.5817 17.2128 9 20.3938 9C23.6828 9 26.2166 11.5806 26.2166 14.741C26.2109 16.2403 25.5963 17.6762 24.5078 18.7329C23.4194 19.7896 21.9461 20.3807 20.4118 20.3763L20.3927 20.3752ZM20.3927 12.3187C19.0464 12.3187 18.0221 13.4243 18.0221 14.7421C18.0221 16.0577 19.0464 17.0587 20.3938 17.0587C21.7952 17.0587 22.7655 16.0577 22.7655 14.7421C22.7666 13.4232 21.7952 12.3187 20.3927 12.3187ZM22.7114 25.0635L26.0016 28.171C26.6488 28.8541 26.6488 29.8552 26.0016 30.4877C25.3015 31.1708 24.222 31.1708 23.6828 30.4877L20.3938 27.3273L17.2128 30.4877C16.8897 30.8034 16.4575 30.9607 15.9712 30.9607C15.5942 30.9607 15.163 30.8023 14.7848 30.4877C14.1376 29.8552 14.1376 28.8541 14.7848 28.1699L18.1279 25.0624C16.9206 24.713 15.7625 24.2183 14.6802 23.5895C13.8708 23.1682 13.7099 22.1155 14.141 21.3246C14.6802 20.5347 15.6504 20.3246 16.5138 20.8515C17.6828 21.5488 19.0259 21.9176 20.3955 21.9176C21.765 21.9176 23.1081 21.5488 24.2772 20.8515C25.1405 20.3246 26.1637 20.5347 26.6488 21.3246C27.1351 22.1155 26.9179 23.1671 26.1626 23.5895C25.1394 24.222 23.953 24.6961 22.7126 25.0646L22.7114 25.0635Z" fill="white"/>
</svg>
