<svg width="41" height="40" viewBox="0 0 41 40" fill="none" xmlns="http://www.w3.org/2000/svg">
<circle cx="20.9082" cy="20" r="19.5" stroke="white"/>
<path d="M7.33213 19.549L12.8622 21.722L15.0027 28.9696C15.1397 29.4335 15.6788 29.6051 16.0365 29.2971L19.1192 26.6515C19.4422 26.3741 19.9026 26.3605 20.2401 26.6184L25.8001 30.8684C26.1828 31.1612 26.7252 30.9405 26.8211 30.4535L30.8941 9.82701C30.9988 9.29502 30.5025 8.85126 30.0214 9.04723L7.32573 18.2653C6.76558 18.4925 6.77038 19.3274 7.33213 19.549ZM14.6577 20.5653L25.4656 13.5571C25.6597 13.4315 25.8597 13.708 25.6927 13.871L16.7732 22.6002C16.4596 22.9073 16.2574 23.3187 16.2001 23.7651L15.8964 26.1357C15.856 26.4521 15.4339 26.4834 15.3508 26.1772L14.1822 21.8542C14.0485 21.3612 14.2435 20.8344 14.6577 20.5653Z" fill="white"/>
</svg>
