<svg width="41" height="40" viewBox="0 0 41 40" fill="none" xmlns="http://www.w3.org/2000/svg">
<circle cx="20.9082" cy="20" r="19.5" stroke="#CCCCCC"/>
<g clip-path="url(#clip0_2006_5615)">
<path d="M25.8457 19.7815C27.252 19.7815 28.502 19.1429 29.2832 18.0252L28.1895 17.2269C27.5645 18.0252 26.7832 18.3445 25.8457 18.3445C24.2832 18.3445 23.0332 17.0672 23.0332 15.3109C23.0332 13.7143 24.127 12.2773 25.8457 12.2773C26.627 12.2773 27.0957 12.437 27.5645 12.7563V14.1933H28.9707V12.1176L28.6582 11.958C28.0332 11.3193 26.9395 11 25.8457 11C23.502 11 21.627 12.916 21.627 15.3109C21.627 17.8655 23.502 19.7815 25.8457 19.7815ZM28.8145 28.4034V26.3277V21.5378H26.002V22.9748H27.4082V26.3277C27.4082 27.7647 26.3145 28.7227 25.2207 28.7227C24.127 28.7227 23.502 27.9244 23.502 26.4874V21.5378H20.6895V22.9748H21.9395V26.8067C21.9395 28.7227 23.0332 30.1597 24.9082 30.1597C26.002 30.1597 26.7832 29.521 27.4082 28.563L27.5645 29.8403H29.752V28.4034H28.8145ZM21.3145 11.1597H18.9707L16.7832 17.3866L14.752 11.1597H12.0957V12.5966H13.502L16.002 19.6218H17.252L19.9082 12.5966H21.3145V11.1597ZM9.9082 29.8403H11.3145V28.4034H9.9082V29.8403ZM15.377 23.1345L15.2207 21.5378H12.7207V22.8151H14.127V28.4034H12.7207V29.8403H18.9707V28.563H15.5332V25.0504C15.6895 23.7731 16.627 22.6555 17.877 22.6555V23.9328H19.2832V21.3782H18.1895C16.9395 21.3782 16.002 22.1765 15.377 23.1345Z" fill="white"/>
</g>
<defs>
<clipPath id="clip0_2006_5615">
<rect width="20" height="19" fill="white" transform="translate(9.9082 11)"/>
</clipPath>
</defs>
</svg>
