<svg width="462" height="289" viewBox="0 0 462 289" fill="none" xmlns="http://www.w3.org/2000/svg">
<g clip-path="url(#clip0_2766_90732)">
<path d="M0 24C0 10.7452 10.7452 0 24 0H462V289H24C10.7452 289 0 278.255 0 265V24Z" fill="white"/>
<g clip-path="url(#clip1_2766_90732)">
<rect width="462" height="289" fill="white"/>
<path d="M14.8634 189.497C14.226 184.675 13.5887 179.852 12.9513 175.03C18.5085 177.875 26.359 178.929 29.4041 175.191C34.2731 169.227 39.7154 172.222 43.9623 171.88C45.9637 169.003 41.3793 166.259 45.6869 164.979C49.7155 163.784 52.8406 168.287 57.5139 166.54C62.3161 162.652 68.5126 159.362 71.2073 151.631C67.4837 143.188 67.3177 132.311 54.6751 127.208C61.7594 117.411 57.4105 105.964 63.0822 97.5733C61.9508 90.6306 54.7557 90.0137 52.8259 85.1522C53.7674 81.8929 55.6326 79.7129 58.17 77.7759C61.8641 77.5511 64.6647 82.5494 70.5631 78.9427C69.3938 68.8087 74.6184 59.7826 82.4473 51.6881C80.0688 46.6025 77.6479 41.8311 76.922 35.2087C88.1669 21.9992 99.4645 7.88572 121.591 13.2794C122.677 10.6236 119.235 6.36991 123.446 2.52593C134.116 1.14033 146.218 5.32361 156.74 -0.84265C161.847 -20.321 178.476 -30.1315 191.676 -41.8365C196.555 -46.1621 198.554 -51.4697 202.022 -55.1347C209.793 -59.2476 216 -56.0103 221.911 -53.6797C225.378 -49.9756 220.062 -45.8652 223.299 -42.4056C231.413 -33.7431 229.775 -22.434 231.315 -12.041C232.305 -5.33295 231.051 0.638011 223.349 3.14403C215.403 5.72749 211.884 0.664032 208.122 -4.83754C203.374 -11.7795 203.74 -20.6769 197.208 -30.3558C196.392 -17.7122 192.123 -9.30327 185.136 -1.57239C180.002 4.11384 183.342 12.5523 189.994 16.583C194.451 15.1357 191.046 9.26833 195.255 7.12936C199.427 10.677 197.722 18.3182 204.342 19.417C208.796 18.2704 207.591 12.2241 215.346 10.1844C220.709 8.60465 227.408 12.7269 233.281 18.9987C240.277 11.7388 244.196 3.01563 253.581 -1.23918C255.8 4.16677 255.705 6.90338 249.464 8.42238C241.646 10.3235 243.689 15.4222 247.174 22.1751C259.807 17.2162 272.61 18.0297 286.278 20.9868C287.314 21.9937 284.766 25.0021 288.911 27.9576C296.815 28.1883 306.363 30.0321 313.056 34.9174C319.797 33.9664 317.989 27.9047 322.066 26.0969C336.147 30.0625 337.312 46.3346 347.563 53.8903C353.238 50.6772 351.025 45.7839 350.815 41.8395C350.018 27.023 358.406 10.8278 370.708 4.78167C374.575 2.88101 377.188 4.92243 379.663 8.65493C374.205 22.1385 371.64 36.8675 368.592 51.3977C367.211 57.985 366.85 63.882 362.103 69.6388C357.222 75.5613 351.551 76.9211 342.618 76.1189C359.258 86.7255 368.235 81.5819 378.903 58.0742C393.718 56.917 379.359 73.4559 389.011 75.2234C394.288 61.7019 390.403 52.478 374.975 48.9979C379.694 39.0269 380.227 28.7763 385.093 19.5206C388.374 26.2972 390.224 32.9983 399.074 32.3064C400.211 27.7994 392.612 27.756 394.82 22.0127C400.252 27.6427 400.305 17.3657 405.327 19.0292C409.164 22.3143 413.188 25.7682 416.629 28.7237C413.021 37.6085 413.798 45.3723 419.16 52.5064C420.347 45.6338 419.787 38.8044 420.836 32.2256C422.103 24.3096 415.7 19.9675 413.728 13.6845C412.846 10.8561 413.18 7.89054 415.732 5.69747C422.699 2.84047 430.091 5.0106 437.082 4.61932C440.349 -14.2243 444.722 -21.2395 461.331 -23.264C470.008 -24.3221 475.371 -28.4027 481.826 -32.2975C483.477 -36.9935 481.479 -43.3223 488.675 -46.4811C491.737 -42.7784 495.699 -39.5642 500.046 -36.8872C513.432 -42.7372 519.461 -38.6382 523.35 -24.593C517.937 -15.0051 512.333 -5.06392 506.718 4.87864C507.377 5.78684 508.037 6.69607 508.696 7.60427C516.483 -6.7035 532.598 -3.75291 542.882 -11.8817C562.146 -7.23969 565.961 -8.90518 569.07 -23.2048C573.8 -23.2024 577.647 -27.6888 583.369 -25.9104C591.772 -20.33 593.186 -4.6141 608.948 -6.8473C608.945 -10.6338 608.928 -13.904 608.921 -17.5665C616.381 -19.3516 619.334 -29.1875 627.883 -27.057C633.16 -34.7671 628.105 -40.4455 625.679 -45.3036C626.898 -51.9325 630.862 -54.5908 635.764 -56.8969C639.096 -55.778 642.624 -54.5942 646.205 -53.3968C648.178 -58.2492 646.06 -63.9873 652.382 -67.7225C657.229 -65.1092 663.099 -65.5085 669.304 -66.9076C677.18 -68.6836 677.997 -75.2968 680.715 -80.7922C684.049 -87.5024 689.904 -89.5868 696.684 -87.8136C701.132 -86.6478 705.082 -85.1697 709.825 -89.5495C711.329 -104.697 721.709 -114.451 735.01 -120.312C733.802 -128.037 724.851 -122.616 723.838 -129.185C732.767 -158.312 755.966 -172.167 781.255 -183.539C775.924 -187.854 778.343 -192.625 782.799 -197.134C784.767 -199.116 788.061 -199.933 788.101 -203.479C789.079 -203.607 790.048 -203.734 791.027 -203.863C792.92 -199.506 795.511 -195.442 795.615 -191.044C800.378 -189.065 805.57 -190.286 807.37 -186.627C808.553 -172.105 789.261 -174.609 789.749 -162.909C786.708 -159.239 780.877 -164.11 779.812 -158.121C800.115 -148.129 796.566 -146.49 791.865 -133.243C802.298 -138.444 812.536 -140.088 822.973 -138.507C823.751 -132.54 818.243 -131.443 817.804 -129.194C821.109 -111.563 827.173 -96.2927 832.45 -81.2396C820.04 -69.7351 825.194 -53.6605 819.205 -42.6226C825.493 -23.3773 840.984 -20.0474 857.786 -18.0223C852.531 -5.51298 862.588 -3.03534 869.48 0.762195C870.056 6.29436 867.423 12.1181 870.879 15.6681C878.754 23.7644 876.563 36.3806 885.031 44.1747C887.427 46.3764 889.142 50.8712 885.112 55.3847C868.036 46.577 849.723 39.6363 835.06 26.4792C827.364 19.5765 821.798 11.2894 822.081 0.167359C822.204 -4.70662 820.548 -9.23072 817.979 -13.6009C811.802 -24.0764 809.496 -35.7946 808.131 -48.0057C802.368 -52.1335 797.23 -57.1056 792.125 -65.2775C786.729 -51.2486 802.36 -43.7223 797.492 -32.2072C794.355 -30.5947 792.485 -35.7151 788.251 -35.0244C784.325 -30.898 778.189 -26.2385 779.932 -19.7188C783.015 -8.1654 783.899 4.72402 794.665 13.1886C793.596 14.9873 792.971 17.6402 791.557 18.1663C778.081 23.1764 770.716 34.3148 763.156 45.3132C762.339 46.5119 761.791 48.1702 760.657 48.851C747.064 56.9761 744.824 68.9887 745.758 83.8232C746.935 102.381 746.527 121.113 744.076 139.065C749.156 141.866 753.009 138.293 756.854 140.156C760.788 142.059 764.993 142.556 769.123 140.533C774.53 137.885 770.402 131.611 773.295 128.229C786.125 125.395 796.358 130.374 800.593 140.758C804.57 150.52 810.235 158.537 816.384 166.605C820.661 172.203 823.186 178.597 823.593 185.444C824.729 204.32 828.323 222.957 827.241 242.081C826.011 263.854 825.025 266.275 805.116 273.154C803.326 276.405 803.739 279.692 804.913 282.999C803.944 283.126 802.965 283.255 801.997 283.382C802.285 277.874 800.731 272.94 797.931 268.161C790.299 255.151 790.396 255.096 802.185 244.941C799.495 231.338 796.706 217.53 788.667 204.974C780.669 213.601 778.72 224.754 767.781 229.651C759.285 220.307 749.411 218.276 737.438 222.337C730.042 224.845 721.035 220.818 718.293 215.454C712.287 203.682 704.049 197.701 691.343 198.488C678.823 199.272 667.347 202.858 662.069 215.894C669.578 227.737 668.73 251.539 660.276 262.052C657.225 261.889 653.59 260.83 650.49 261.709C642.082 264.096 631.672 259.57 625.294 269.239C614.442 285.699 599.738 289.505 581.073 283.187C573.71 280.693 565.424 276.311 557.269 282.027C548.497 288.169 541.748 285.454 536.058 277.56C533.267 273.71 529.211 271.903 524.722 271.611C518.706 271.217 513.488 268.547 508.105 266.59C500.977 274.736 501.622 284.323 502.875 293.645C494.689 300.853 485.841 299.28 479.54 294.222C470.371 286.847 462.283 288.678 452.512 291.736C441.824 295.079 434.771 305.21 422.267 306.352C417.236 299.914 406.666 303.917 401.387 295.602C396.107 287.28 390.744 277.862 377.575 282.368C376.216 282.836 372.967 280.309 371.795 278.425C368.888 273.775 364.647 279.675 361.431 276.763C359.458 260.894 353.173 246.62 344.308 233.074C338.053 232.675 332.954 239.224 325.5 236.037C322.141 230.325 315.476 227.295 309.696 223.274C308.294 219.102 310.884 214.371 307.423 210.398C303.118 208.899 298.985 205.332 293.939 206.318C274.696 210.071 256.268 204.061 237.49 201.818C235.016 211.116 228.072 216.222 221.034 221.262C220.241 226.068 224.012 230.669 220.611 237.579C215.655 232.189 207.247 234.062 203.344 226.158C200.841 221.088 194.768 218.05 190.093 218.446C179.735 219.333 177.486 211.248 173.416 205.615C171.59 203.091 170.32 199.931 168.221 197.231C157.902 183.953 141.815 182.477 129.046 193.946C126.14 192.234 127.507 187.148 122.895 186.612C112.552 185.404 110.969 197.045 102.289 198.636C103.097 211.042 111.493 222.57 102.449 234.423C92.8963 233.45 82.7107 232.425 73.5994 241.192C77.295 253.881 64.8835 263.484 66.234 276.071C59.7906 278.348 57.0357 275.736 55.2165 271.005C50.6766 259.188 47.4509 247.418 39.4662 236.37C29.3154 222.322 18.3465 207.515 14.8634 189.497Z" fill="#F4F7FF"/>
<path d="M76.0635 -57.3205C115.058 -66.9458 157.085 -176.346 134.901 -102.844C108.77 -16.2619 39.7333 -49.8112 -2.59917 -13.3441C-96.3219 67.3929 9.39015 215.851 185.5 99.4999C293.467 28.1689 383.636 198.829 350.501 215C307.636 235.918 272.236 36.2552 368.537 65.8348C445.578 89.4985 499.769 277.99 480.024 323.673" stroke="black" stroke-linecap="round" stroke-dasharray="10 10"/>
<rect x="193.062" y="138.271" width="73.3346" height="100.6" rx="11.1126" transform="rotate(-0.243307 193.062 138.271)" fill="#4A5C76"/>
<rect x="193.062" y="138.271" width="73.3346" height="100.6" rx="11.1126" transform="rotate(-0.243307 193.062 138.271)" fill="#4A5C76"/>
<rect x="193.062" y="138.271" width="73.3346" height="100.6" rx="11.1126" transform="rotate(-0.243307 193.062 138.271)" fill="#4A5C76"/>
<rect x="190.402" y="137.74" width="79.6539" height="104.076" rx="12.6" transform="rotate(-0.243307 190.402 137.74)" fill="white" stroke="black" stroke-width="0.8"/>
<mask id="mask0_2766_90732" style="mask-type:alpha" maskUnits="userSpaceOnUse" x="193" y="139" width="74" height="100">
<rect x="193.852" y="139.494" width="72.2963" height="98.7484" rx="11.1126" transform="rotate(-0.243307 193.852 139.494)" fill="#D9D9D9"/>
</mask>
<g mask="url(#mask0_2766_90732)">
<rect x="194.215" y="142.131" width="72.0185" height="96.1106" rx="11.1126" transform="rotate(-0.243307 194.215 142.131)" fill="#F3F4F7"/>
<path d="M230.393 164.102C229.756 164.104 226.568 168.5 223.394 169.974C221.57 164.883 225.161 159.742 227.053 157.875C228.809 155.212 233.459 149.775 238.016 149.33C243.712 148.775 245.321 153.017 249.04 155.126C252.76 157.235 252.369 158.697 254.644 163.999C256.465 168.24 255.213 173.158 254.689 174.621C254.689 174.621 253.612 170.592 249.091 166.943C238.452 158.358 231.188 164.098 230.393 164.102Z" fill="#4A5C76"/>
<path d="M250.586 176.099C250.456 170.47 247.23 165.889 245.633 164.303C249.083 165.35 252.553 171.045 253.487 172.634C254.235 173.906 255.671 177.14 256.296 178.598C258.153 179.165 261.925 181.017 262.149 183.884C262.373 186.751 261.55 188.534 260.845 188.935C261.259 186.581 258.529 184.513 257.378 183.904C257.385 185.391 259.344 189.207 260.324 190.929L258.478 193.327L254.36 190.955L256.358 193.336C256.227 193.558 255.646 194.189 254.377 194.938C253.108 195.687 249.787 195.975 248.285 196.026L248.254 188.723C249.086 186.861 250.716 181.728 250.586 176.099Z" fill="white"/>
<path d="M180.509 182.503C180.84 185.476 187.383 188.848 190.613 190.162L184.668 194.436C187 194.32 188.295 195.616 188.652 196.278C191.299 195.523 193.65 197.894 194.495 199.174C195.658 198.532 200.452 197.556 202.703 197.148C210.135 199.666 221.268 199.857 225.629 197.05C227.082 195.805 231.369 194.211 239.525 192.477C247.681 190.743 250.98 195.615 251.609 198.268C253.09 197.412 258.077 202.489 260.385 205.135C270.058 204.829 276.749 220.07 279.146 222.848C281.064 225.071 282.376 234.475 282.793 238.899C284.914 239.103 285.538 240.304 285.584 240.879C281.247 249.396 287.36 253.486 285.673 261.725C283.985 269.965 277.085 268.003 274.708 269.872C272.806 271.367 269.939 270.512 268.744 269.897C269.514 274.231 270.976 283.697 270.672 286.885C270.291 290.87 267.231 287.962 267.235 289.024L267.262 295.397L247.247 294.42L229.754 294.494C214.258 296.817 205.908 296.543 203.12 295.271L203.1 290.757C203.103 291.288 201.991 291.744 197.528 289.32C193.065 286.896 194.36 250.605 195.565 232.763C185.336 226.832 182.616 221.001 181.851 217.552C178.037 218.205 176.356 213.592 175.993 211.203C173.035 213.871 171.288 210.248 167.171 208.008C163.98 205.72 158.771 200.309 157.91 197.338C157.05 194.367 165.123 189.695 169.533 187.994L170.059 187.062C172.259 185.105 177.056 180.792 178.64 179.192C180.223 177.592 182.574 179.839 183.551 181.163L180.509 182.503Z" fill="url(#paint0_linear_2766_90732)" fill-opacity="0.8"/>
<path d="M264.894 268.85C263.837 269.598 251.101 266.298 244.865 264.554L238.32 252.498L244.689 223.259C245.038 222.151 245.947 219.855 246.794 219.533C247.852 219.13 272.531 225.93 273.727 226.854C274.685 227.593 271.448 241.337 269.709 248.116C268.545 254.716 265.951 268.102 264.894 268.85Z" fill="white"/>
<path d="M226.169 200.105C225.196 195.542 229.628 192.699 231.965 191.848L231.975 194.106C229.855 194.221 228.717 196.819 228.414 198.104L231.99 197.691C235.928 201.286 234.292 209.366 232.982 212.956C232.144 213.093 230.174 213.287 229.007 212.973C227.839 212.659 227.276 210.989 227.14 210.193C226.526 211.258 225.001 212.087 223.813 206.887C222.624 201.687 224.888 200.199 226.169 200.105Z" fill="white"/>
<path d="M245.047 214.495C240.92 216.212 238.909 214.875 238.419 213.992C237.643 206.029 243.446 201.622 246.445 200.415L250.16 201.461C252.478 198.052 249.959 195.531 248.409 194.697C248.053 194.167 247.554 193.107 248.402 193.103C249.462 193.099 251.457 194.816 252.799 198.661C253.872 201.737 252.383 204.638 251.504 205.704C252.054 210.376 247.429 213.511 245.047 214.495Z" fill="white"/>
<path d="M246.828 165.227C242.247 160.042 234.048 162.139 230.521 163.836C225.025 167.896 225.715 176.338 226.747 180.051C227.018 181.466 227.614 184.668 227.833 186.154C228.051 187.641 230.767 190.657 232.098 191.979L231.725 197.69C232.397 199.9 238.247 204.301 238.644 204.3C241.03 204.289 244.857 200.555 248.827 199.078C247.76 197.595 248.001 191.911 248.255 189.254L250.083 182.873C250.907 179.152 251.408 170.413 246.828 165.227Z" fill="#FFE3DB"/>
<path d="M231.3 191.051C229.811 190.101 228.591 187.655 228.366 186.815C225.323 180.064 227.118 173.674 231.74 169.937C235.309 167.665 236.282 163.602 238.334 162.208C229.455 162.245 227.083 165.442 223.259 169.973C218.163 176.01 222.357 176.085 218.797 180.482C215.95 183.999 217.108 188.234 218.042 189.912L218.834 188.979C218.423 192.168 221.945 193.481 223.757 193.739L225.342 192.404C224.171 191.241 225.15 188.82 225.324 188.288C225.332 189.988 226.754 192.088 227.727 192.394L231.3 191.051Z" fill="white"/>
<path d="M204.099 183.202L189.418 189.903C185.488 188.22 181.839 184.093 180.506 182.24C188.766 180.08 195.68 177.13 198.105 175.924C200.074 171.534 209.727 166.447 212.773 166.036C215.21 165.707 215.605 167.086 215.433 168.149C219.25 168.239 217.831 171.193 216.645 172.659C219.958 172.645 229.073 165.834 231.725 166.221C233.847 166.531 227.679 170.443 224.596 172.625C222.656 173.474 219.175 175.516 220.771 176.89C222.766 178.608 233.359 176.438 232.043 178.569C230.99 180.273 221.361 180.738 216.679 180.758C211.919 183.328 206.309 183.458 204.099 183.202Z" fill="#FFE3DB"/>
<path d="M243.817 174.001C243.642 174.489 243.426 175.464 243.956 175.461C244.618 175.459 244.479 173.733 243.817 174.001Z" stroke="black" stroke-width="0.797768" stroke-linecap="round"/>
<path d="M232.554 174.503C232.733 174.989 232.958 175.962 232.428 175.964C231.765 175.967 231.89 174.24 232.554 174.503Z" stroke="black" stroke-width="0.797768" stroke-linecap="round"/>
<path d="M240.901 174.41C241.474 174.054 242.959 173.513 244.079 173.733C245.406 173.993 246.465 173.856 247.128 173.853" stroke="black" stroke-width="0.797768" stroke-linecap="round"/>
<path d="M234.941 174.891C234.365 174.539 232.876 174.011 231.757 174.241C230.433 174.512 230.037 174.912 229.375 174.915" stroke="black" stroke-width="0.797768" stroke-linecap="round"/>
<path d="M240.599 181.382C240.375 181.309 239.81 181.295 239.347 181.815" stroke="black" stroke-width="0.797768" stroke-linecap="round"/>
<path d="M235.635 181.342C235.871 181.341 236.413 181.445 236.698 181.869" stroke="black" stroke-width="0.797768" stroke-linecap="round"/>
<path d="M236.124 172.708C236.48 173.326 236.874 174.563 236.669 176.158C236.464 177.752 236.062 178.86 235.887 179.215" stroke="black" stroke-width="0.797768" stroke-linecap="round"/>
<path d="M246.7 170.761C245.624 170.434 242.329 170.856 240.816 171.107C240.669 171.215 240.475 171.474 240.873 171.652C241.37 171.875 248.046 171.169 246.7 170.761Z" stroke="black" stroke-width="0.797768" stroke-linecap="round"/>
<path d="M230.314 171.268C231.104 170.904 233.493 171.21 234.589 171.408C234.694 171.51 234.83 171.761 234.537 171.953C234.17 172.192 229.327 171.722 230.314 171.268Z" stroke="black" stroke-width="0.797768" stroke-linecap="round"/>
<path d="M227.019 180.58C227.161 182.703 227.763 187.269 229.041 188.538C230.638 190.124 233.437 193.83 236.619 194.348C239.802 194.866 240.729 194.729 241.788 194.326C242.846 193.923 247.339 190.85 248.389 188.456C249.439 186.061 250.742 180.744 250.866 178.752" stroke="black" stroke-width="0.797768" stroke-linecap="round"/>
<path d="M245.633 164.303C247.274 165.845 250.561 170.177 250.582 175.17C250.609 181.41 253.024 188.305 258.872 192.263" stroke="black" stroke-width="0.797768" stroke-linecap="round"/>
<path d="M251.57 189.771C251.885 191.054 252.887 193.909 254.376 195.071" stroke="black" stroke-width="0.797768" stroke-linecap="round"/>
<path d="M254.821 175.018C253.212 170.555 247.347 161.904 236.743 161.949C233.297 161.964 227.079 164.513 224.449 169.305" stroke="black" stroke-width="0.797768" stroke-linecap="round"/>
<path d="M255.015 175.152C255.36 172.982 255.835 168.041 254.975 165.643C253.899 162.644 252.893 157.899 250.369 156.317M248.151 154.286C247.084 153.289 244.008 148.673 237.502 149.576C230.996 150.48 227.717 157.809 225.995 158.943C224.273 160.076 222.296 166.532 222.974 169.657" stroke="black" stroke-width="0.797768" stroke-linecap="round"/>
<path d="M254.378 164.267C252.647 162.504 248.39 158.716 245.205 157.667C241.224 156.356 236.982 155.976 233.536 155.858C230.779 155.763 226.349 159.208 224.808 160.409" stroke="black" stroke-width="0.797768" stroke-linecap="round"/>
<path d="M254.824 175.15C254.873 176.301 256.01 178.546 258.29 179.916C263.339 182.948 263.087 186.003 260.978 188.801" stroke="black" stroke-width="0.797768" stroke-linecap="round"/>
<path d="M246.8 158.453C246.848 159.338 246.839 161.348 246.419 162.306" stroke="black" stroke-width="0.797768" stroke-linecap="round"/>
<path d="M249.364 159.96C249.41 161.196 249.353 164.127 248.761 165.954" stroke="black" stroke-width="0.797768" stroke-linecap="round"/>
<path d="M238.335 162.209C233.595 169.399 227.377 171.816 227.398 176.861" stroke="black" stroke-width="0.797768" stroke-linecap="round"/>
<path d="M204.098 183.069C213.907 183.558 215.749 180.39 218.4 180.485C221.714 180.604 231.122 180.298 232.042 178.568C232.962 176.838 220.908 178.084 220.239 176.627C219.57 175.169 222.084 174.229 224.86 172.491C227.636 170.753 233.056 167.676 231.99 166.353C230.924 165.029 218.107 173.847 216.246 172.66" stroke="black" stroke-width="0.797768" stroke-linecap="round"/>
<path d="M212.968 180.638C214.416 178.508 213.514 178.299 214.142 176.384C214.927 173.991 217.044 173.053 215.845 171.597C214.694 170.2 211.975 173.706 211.179 175.282C211.123 175.394 211.009 175.462 210.884 175.456C209.55 175.395 206.804 175.509 204.998 176.423" stroke="black" stroke-width="0.797768" stroke-linecap="round"/>
<path d="M214.244 168.684C212.569 169.399 209.644 171.359 210.284 172.418C210.925 173.478 212.978 172.23 213.728 172.006" stroke="black" stroke-width="0.797768" stroke-linecap="round"/>
<path d="M209.732 167.506C209.161 168.129 208.401 169.366 209.743 169.897C210.406 170.159 211.598 169.889 212.392 169.62" stroke="black" stroke-width="0.797768" stroke-linecap="round"/>
<path d="M203.968 183.069C200 184.768 191.348 188.381 189.552 189.77" stroke="black" stroke-width="0.797768" stroke-linecap="round"/>
<path d="M206.158 168.986C200.337 171.268 200.557 173.285 199.292 174.99C197.711 177.121 185.003 180.362 180.373 182.506" stroke="black" stroke-width="0.797768" stroke-linecap="round"/>
<path d="M169.664 187.862C165.872 189.693 158.213 193.992 157.906 196.543C157.522 199.731 165.979 208.5 169.756 209.725C172.071 210.475 174.011 212.939 175.33 211.606C176.65 210.272 177.61 217.837 180.259 217.56C182.908 217.283 182.658 220.736 184.791 223.781C186.498 226.217 192.596 230.697 195.431 232.632" stroke="black" stroke-width="0.797768" stroke-linecap="round"/>
<path d="M195.119 221.48C195.411 227.808 195.843 242.164 195.236 248.965C194.729 254.637 194.435 268.584 195.206 278.575M268.875 269.765C269.961 275.691 271.496 287.785 270.016 288.747C268.166 289.95 242.584 288.864 236.616 287.694C230.647 286.525 200.329 293.558 197.261 289.056C196.585 288.063 196.071 285.971 195.69 283.221" stroke="black" stroke-width="0.797768" stroke-linecap="round"/>
<path d="M184.934 194.835C185.684 194.61 187.371 194.453 188.118 195.618C189.052 197.075 190.766 194.943 192.098 196.663C193.164 198.04 194.671 199.175 195.291 199.571" stroke="black" stroke-width="0.797768" stroke-linecap="round"/>
<path d="M196.872 198.37C198.769 197.653 202.086 196.568 203.362 197.413C204.957 198.468 217.242 199.504 220.2 199.067C222.054 198.794 222.186 198.661 223.244 198.258" stroke="black" stroke-width="0.797768" stroke-linecap="round"/>
<path d="M218.666 180.483C217.788 181.682 216.298 184.583 217.367 186.596" stroke="black" stroke-width="0.797768" stroke-linecap="round"/>
<path d="M221.722 182.329C219.309 186.234 217.79 192.596 223.623 193.209" stroke="black" stroke-width="0.797768" stroke-linecap="round"/>
<path d="M232.233 192.111C230.203 192.518 225.091 195.328 225.905 199.972" stroke="black" stroke-width="0.797768" stroke-linecap="round"/>
<path d="M231.973 193.971C230.649 194.375 228.93 195.312 228.41 197.704" stroke="black" stroke-width="0.797768" stroke-linecap="round"/>
<path d="M232.229 191.976L231.59 197.422" stroke="black" stroke-width="0.797768" stroke-linecap="round"/>
<path d="M247.992 189.389C248.003 191.911 248.187 197.726 248.827 198.68" stroke="black" stroke-width="0.797768" stroke-linecap="round"/>
<path d="M228.412 197.834C229.118 197.521 230.97 197.259 231.858 197.819C233.31 198.737 236.484 204.368 233.046 212.402C233.004 212.5 232.936 212.588 232.843 212.64C232.151 213.028 230.665 213.227 229.008 213.234C228.478 213.236 227.412 211.913 227.009 210.587" stroke="black" stroke-width="0.797768" stroke-linecap="round"/>
<path d="M227.358 198.905C230.527 196.236 232.462 202.336 232.159 206.055M229.142 213.238C230.336 213.073 231.107 211.471 231.579 209.642" stroke="black" stroke-width="0.797768" stroke-linecap="round"/>
<path d="M227.654 205.805C227.369 201.159 226.728 200.019 225.245 200.238C222.729 200.609 223.546 211.624 226.614 210.457C227.672 210.054 227.657 206.601 227.628 205.407" stroke="black" stroke-width="0.797768" stroke-linecap="round"/>
<path d="M248.402 193.103C249.641 193.541 252.201 195.052 252.53 197.6C252.859 200.148 251.756 202.605 251.361 203.182" stroke="black" stroke-width="0.797768" stroke-linecap="round"/>
<path d="M248.543 195.096C250.046 195.355 252.133 197.869 250.161 201.595" stroke="black" stroke-width="0.797768" stroke-linecap="round"/>
<path d="M250.972 205.041C251.496 203.578 250.777 201.054 248.308 201.866C243.808 203.345 238.947 213.192 241.606 215.172C242.669 215.964 245.049 214.671 245.179 213.962" stroke="black" stroke-width="0.797768" stroke-linecap="round"/>
<path d="M250.809 198.007C249.839 198.41 247.82 199.401 247.505 200.146" stroke="black" stroke-width="0.797768" stroke-linecap="round"/>
<path d="M249.236 201.467C248.305 200.807 247.603 200.472 246.447 200.284C244.458 199.961 237.328 206.165 238.285 213.066C238.448 214.242 239.883 214.785 241.74 215.308" stroke="black" stroke-width="0.797768" stroke-linecap="round"/>
<path d="M246.22 208.65C247.826 206.331 249.496 205.454 250.634 205.322C251.265 205.248 251.691 205.832 251.65 206.467C251.352 211.094 246.539 214.564 245.645 214.199C244.171 213.599 244.376 211.314 246.22 208.65Z" stroke="black" stroke-width="0.797768" stroke-linecap="round"/>
<path d="M252.533 197.6C252.672 199.016 253.272 202.935 252.956 203.573C252.641 204.212 252.036 205.348 251.773 205.703" stroke="black" stroke-width="0.797768" stroke-linecap="round"/>
<path d="M233.59 199.939C234.743 200.908 237.287 203.084 238.246 204.036" stroke="black" stroke-width="0.797768" stroke-linecap="round"/>
<path d="M236.133 205.902C237.235 205.189 239.358 203.79 241.161 203.889" stroke="black" stroke-width="0.797768" stroke-linecap="round"/>
<path d="M252.934 198.529C253.907 199.012 255.909 200.216 256.125 201.171C256.396 202.365 259.709 202.484 259.585 204.476" stroke="black" stroke-width="0.797768" stroke-linecap="round"/>
<path d="M254.946 204.495C256.269 204.046 257.597 204.483 259.586 204.74" stroke="black" stroke-width="0.797768" stroke-linecap="round"/>
<path d="M259.453 204.74C262.06 204.906 267.781 206.059 269.81 209.343C272.345 213.449 282.243 224.295 282.285 234.121M279.339 268.789C287.147 266.233 286.588 259.463 284.703 252.434C282.818 245.405 285.326 243.137 285.315 240.481C285.303 237.609 283.321 239.991 282.298 237.307" stroke="black" stroke-width="0.797768" stroke-linecap="round"/>
<path d="M242.263 244.251L246.94 222.057C247.025 221.304 247.593 219.823 249.184 219.923C250.775 220.022 265.989 224.366 272.801 226.329C273.709 226.59 273.997 227.333 274.001 228.183C274.005 229.032 271.151 243.553 269.068 252.37" stroke="black" stroke-width="0.797768" stroke-linecap="round"/>
<path d="M249.316 219.923C247.591 219.399 245.841 219.168 245.212 220.87C244.583 222.572 241.18 238.857 239.622 246.521" stroke="black" stroke-width="0.797768" stroke-linecap="round"/>
<path d="M231.746 216.144C232.123 221.852 232.67 234.092 231.836 237.389C231.002 240.685 231.505 242.657 231.861 243.231" stroke="black" stroke-width="0.797768" stroke-linecap="round"/>
<path d="M238.493 216.383C238.163 222.094 237.688 226.637 238.55 229.926C239.412 233.215 238.926 235.192 238.575 235.768" stroke="black" stroke-width="0.797768" stroke-linecap="round"/>
<path d="M232.071 238.259C231.604 238.122 230.707 238.098 230.86 239.098C231.052 240.348 233.293 239.782 232.071 238.259Z" stroke="black" stroke-width="0.797768" stroke-linecap="round"/>
<path d="M238.32 230.796C238.786 230.655 239.683 230.624 239.538 231.625C239.356 232.877 237.112 232.33 238.32 230.796Z" stroke="black" stroke-width="0.797768" stroke-linecap="round"/>
<path d="M247.879 194.431C245.1 195.505 241.134 195.516 238.87 195.098C242.729 194.397 246.648 191.262 247.859 189.784L247.879 194.431Z" fill="black"/>
<path d="M242.673 185.028C241.078 183.973 235.647 184.616 233.131 185.069C233.842 185.951 235.82 187.766 238.047 187.969C240.274 188.172 242.059 186.093 242.673 185.028Z" fill="white"/>
<path d="M232.468 185.074C234.012 184.713 237.606 184.096 239.622 184.512C241.638 184.928 243.644 185.026 244.395 185.023" stroke="black" stroke-width="0.797768" stroke-linecap="round"/>
<path d="M233.133 185.068C233.532 185.332 234.863 186.912 236.191 187.445C240.439 189.153 241.88 185.297 244 185.022" stroke="black" stroke-width="0.797768" stroke-linecap="round"/>
<path d="M229.585 191.859C228.651 190.535 228.38 189.075 227.566 184.697" stroke="black" stroke-width="0.797768" stroke-linecap="round"/>
<path d="M227.594 191.998C226.396 190.808 225.329 189.352 225.309 184.439" stroke="black" stroke-width="0.797768" stroke-linecap="round"/>
<path d="M192.648 205.158C192.412 208.043 191.27 213.603 188.589 212.77" stroke="black" stroke-width="0.797768" stroke-linecap="round"/>
</g>
<path d="M192.228 225.345L192.228 225.288H268.423L268.423 225.349C268.422 233.421 261.878 239.963 253.807 239.963H206.844C198.771 239.963 192.227 233.418 192.228 225.345Z" fill="white" stroke="url(#paint1_linear_2766_90732)" stroke-width="0.194327"/>
<rect x="60.3744" y="110.269" width="79.6539" height="104.076" rx="12.6" transform="rotate(-0.243307 60.3744 110.269)" fill="white" stroke="black" stroke-width="0.8"/>
<rect x="64.8477" y="114.058" width="70.523" height="93.1459" rx="11.1126" transform="rotate(0.137078 64.8477 114.058)" fill="#F3F4F7"/>
<rect x="63.4619" y="112.666" width="73.3012" height="95.3437" rx="12.5017" transform="rotate(0.137078 63.4619 112.666)" stroke="white" stroke-width="2.77815"/>
<mask id="mask1_2766_90732" style="mask-type:alpha" maskUnits="userSpaceOnUse" x="64" y="114" width="72" height="94">
<rect x="64.8477" y="114.64" width="70.523" height="92.5655" rx="11.1126" transform="rotate(0.137078 64.8477 114.64)" fill="#D9D9D9"/>
</mask>
<g mask="url(#mask1_2766_90732)">
<path d="M115.501 181.305L121.575 179.13L126.405 199.782L132.742 212.308L105.48 213.475L102.398 214.715L101.854 212.018L102.615 194.553L103.468 179.099L105.732 169.228L109.173 175.731C109.701 176.582 110.998 178.535 111.966 179.541C112.934 180.548 114.726 181.136 115.501 181.305Z" fill="white"/>
<path d="M106.404 165.773L108.429 162.059L108.624 161.748L102.032 159.511L100.236 161.402L92.9782 165.138L90.6784 167.453L88.3348 171.081L86.7988 174.069L85.5117 180.17L79.142 189.511L89.4805 202.571L92.2839 199.832L94.3748 197.525L96.4721 204.388L97.884 207.754L98.1636 213.788L99.2156 216.161L100.168 218.64L104.346 218.461L105.475 213.475L105.112 205.631L105.687 193.212L106.266 187.645L105.165 181.948L105.044 179.334L106.306 174.947L106.171 172.03L105.998 168.309L106.404 165.773Z" fill="#4BD0A0"/>
<path d="M148.999 231.164L145.71 223.445L135.264 219.358L117.09 220.135L102.66 222.667L94.5289 221.101C84.5938 217.495 63.7644 210.366 59.9281 210.691C55.1327 211.098 52.8842 214.519 51.6848 217.997C50.7253 220.779 52.8505 224.329 54.033 225.756L58.5765 231.205L70.0247 245.628L75.014 251.662C75.3631 252.42 76.2177 254.15 76.8437 255.01C77.4696 255.87 80.0645 254.503 81.2838 253.711L83.549 252.909L94.3457 246.502C94.7629 247.223 95.8145 248.837 96.6837 249.526C97.5528 250.214 99.5004 251.588 100.365 252.189L109.643 251.389L118.405 248.495L125.477 245.27C127.115 246.006 131.496 247.794 135.908 249.056C140.321 250.318 142.918 249.764 143.666 249.329L149.716 246.651L148.999 231.164Z" fill="#0066FF"/>
<path d="M94.2261 216.88L106.078 219.698C106.749 219.871 108.284 220.309 109.054 220.679C109.825 221.049 109.422 221.839 109.124 222.188L95.6137 226.494C93.1246 226.231 87.9983 225.671 87.4059 225.535C86.8136 225.4 77.8046 223.864 73.3742 223.113L56.1904 220.422L54.5948 215.351L50.0915 201.739C49.2221 198.787 47.289 192.306 46.5124 190.002C45.5416 187.121 45.8503 187.007 46.3493 186.482C46.7484 186.062 50.785 186.594 52.7534 186.913L67.6738 188.189C72.1947 188.634 81.7597 189.521 83.8524 189.512C85.9451 189.503 86.7997 190.629 86.9653 191.193L89.5578 201.965L94.2261 216.88Z" fill="#B3D2FF"/>
<path d="M122.036 198.155L129.25 211.551C130.469 211.499 133.381 211.253 135.28 210.688C137.18 210.123 137.63 209.446 137.617 209.177L140.38 210.067C142.158 210.797 145.708 213.487 145.685 218.405C145.662 223.323 141.931 223.973 140.069 223.684L143.595 225.246L147.085 230.538L148.089 238.657L148.234 241.775L146.614 247.487C146.579 248.227 146.555 249.807 146.74 250.202C146.926 250.597 152.037 250.076 154.569 249.766C155.676 249.551 157.924 248.978 158.065 248.407C158.206 247.837 156.093 246.51 155.019 245.918L157.846 243.681L161.606 243.52L163.59 243.435C164.059 243.012 164.945 241.503 164.739 238.851C164.532 236.2 161.795 233.301 160.452 232.183L157.151 228.696C157.289 227.145 157.543 223.601 157.461 221.831C157.379 220.061 156.863 217.96 156.615 217.131L157.177 215.696L157.52 214.069L157.394 211.354C157.74 209.794 158.41 206.192 158.321 204.261C158.209 201.847 155.994 199.221 155.283 192.903C154.571 186.585 153.049 178.589 150.523 173.76C147.997 168.93 144.234 166.774 142.465 164.733C140.696 162.693 139.542 162.642 133.866 159.861C129.326 157.637 127.111 157.867 126.571 158.259L126.529 157.354L124.551 155.323L121.196 152.947L122.044 155.43L121.123 160.407L119.115 166.74L118.115 170.008L116.583 173.096L116.115 176.542L116.26 179.66L118.101 185.526L120.275 191.782L122.036 198.155Z" fill="#4BD0A0"/>
<path d="M120.235 141.811C120.687 141.255 121.748 141.522 122.221 141.726C122.303 141.339 122.455 140.317 122.408 139.323C122.362 138.328 121.521 137.349 121.106 136.983C121.683 136.544 122.286 134.538 120.087 130.034C117.889 125.53 112.945 125.486 110.748 126.027C109.84 125.044 107.112 123.136 103.461 123.369C99.8105 123.602 97.4301 126.341 96.6963 127.682C95.9049 127.78 93.9659 128.45 92.5417 130.35C91.1174 132.251 91.6035 136.586 92.0246 138.515C92.2321 138.698 92.7181 139.31 93.0025 140.294C93.2869 141.278 93.2244 142.935 93.1576 143.64C93.5755 144.069 94.4978 145.077 94.8439 145.675C95.19 146.274 95.8623 147.612 96.1552 148.206L95.8627 141.896C95.8139 140.844 96.2129 138.719 96.6341 137.073C97.0553 135.426 98.582 134.02 100.347 133.465C102.112 132.911 103.754 133.99 105.908 133.227C108.062 132.464 109.235 132.031 111.533 132.22C113.83 132.409 116.161 135.471 117.075 138.018C117.806 140.056 118.031 144.332 118.052 146.215L118.486 144.855C118.881 144.072 119.784 142.366 120.235 141.811Z" fill="#4A5C76"/>
<path d="M121.218 141.578C120.337 141.462 119.134 143.136 118.643 143.987L118.385 144.861C118.144 143.242 117.524 139.59 116.969 137.928C116.276 135.85 114.819 134.475 112.961 133.022C111.103 131.569 108.15 132.27 107.085 132.89C106.019 133.511 103.925 133.409 102.02 133.107C100.116 132.806 100.052 133.575 97.6406 135.211C95.229 136.847 96.0357 143.518 96.2148 145.235C96.358 146.608 96.0085 147.223 95.8158 147.359C95.8373 148.54 95.9083 151.072 96.0196 151.757C96.131 152.442 97.1695 152.953 97.6749 153.123C97.9302 153.623 98.5985 155.019 99.229 156.601C99.8596 158.184 102.354 160.331 103.522 161.207L106.13 161.671L107.523 163.814C107.241 164.178 106.607 165.08 106.321 165.782C106.035 166.484 105.995 168.765 106.01 169.818L109.39 176.188C109.82 176.872 110.992 178.553 112.244 179.802C113.496 181.051 115.927 181.273 116.986 181.228L116.141 178.007C116.151 176.793 116.255 174.036 116.592 172.719C117.013 171.072 117.808 171.038 118.544 169.761C119.134 168.74 119.795 165.269 120.053 163.661L121.883 155.919L120.788 153.763L120.244 150.625C121.041 149.92 122.745 147.912 123.191 145.517C123.749 142.523 122.319 141.722 121.218 141.578Z" fill="#FEE1D5"/>
<path d="M140.629 178.488C140.712 180.288 139.56 182.337 138.509 183.774C137.849 184.677 137.376 185.666 136.621 186.52C136.388 186.785 135.551 188.009 135.535 187.663" stroke="black" stroke-width="0.797768" stroke-linecap="round"/>
<path d="M139.798 174.118C140.018 174.169 139.071 175.92 138.945 176.128C138.369 177.084 138.124 178.208 137.669 179.219C137.002 180.703 136.266 182.517 136.154 184.142C136.013 186.2 135.486 188.298 134.949 190.258C133.885 194.135 135.614 198.429 136.985 201.87" stroke="black" stroke-width="0.797768" stroke-linecap="round"/>
<path d="M86.3154 190.528C86.3 190.515 86.6283 190.953 86.7195 191.118C86.9578 191.55 87.0857 192.199 87.1858 192.676C87.5547 194.431 87.9944 196.167 88.3922 197.912C88.8378 199.868 89.2753 201.83 89.8284 203.763C90.1038 204.725 90.2966 205.718 90.6287 206.664C91.0474 207.858 91.5088 209.05 91.8425 210.268C92.1837 211.513 92.5954 212.734 92.9991 213.96C93.3386 214.991 93.8266 215.973 94.1221 217.02C94.5805 218.643 94.9362 220.287 95.3738 221.913C95.5665 222.629 95.6425 223.391 95.8383 224.09C95.9138 224.36 96.1402 225.026 95.7204 225.044" stroke="black" stroke-width="0.797768" stroke-linecap="round"/>
<path d="M84.2327 189.934C84.5631 189.542 83.7896 189.729 83.5123 189.699C82.8264 189.626 82.1259 189.7 81.441 189.615C79.7027 189.4 77.9001 189.508 76.1638 189.25C74.9941 189.077 73.8216 189.066 72.6572 188.911C71.3994 188.744 70.1468 188.531 68.8917 188.372C66.2151 188.035 63.5139 187.885 60.8429 187.557C59.6001 187.404 58.345 187.357 57.0973 187.258C56.6835 187.225 56.2748 187.12 55.8604 187.125C55.0217 187.136 54.1849 186.889 53.347 186.857C52.0057 186.807 50.693 186.722 49.367 186.509C48.6238 186.39 47.7963 186.256 47.0485 186.288C46.4689 186.312 46.1589 186.551 45.6926 186.801" stroke="black" stroke-width="0.797768" stroke-linecap="round"/>
<path d="M104.538 177.225C104.561 176.795 104.67 176.27 104.75 175.841C104.859 175.262 104.675 174.765 104.418 174.253C103.987 173.394 103.653 172.393 103.023 171.648C102.792 171.375 102.437 170.764 102.212 171.252" stroke="black" stroke-width="0.797768" stroke-linecap="round"/>
<path d="M103.538 172.561C103.496 172.425 103.138 172.502 103.027 172.507C102.598 172.525 102.347 172.649 102.059 172.966C101.62 173.449 101.202 173.926 100.782 174.425C100.673 174.554 100.224 175.295 99.9947 175.209C99.5362 175.036 100.068 173.325 100.131 173.04C100.607 170.858 100.408 168.582 100.588 166.37C100.669 165.378 101.097 164.635 101.554 163.781C101.658 163.587 102.052 162.622 102.08 163.211" stroke="black" stroke-width="0.797768" stroke-linecap="round"/>
<path d="M105.966 167.141C105.944 166.661 105.968 167.796 105.958 167.901C105.878 168.71 105.84 169.521 105.878 170.333C105.937 171.603 106.074 172.871 106.133 174.135C106.182 175.194 105.903 176.029 105.637 177.04C105.485 177.616 105.414 178.435 105.094 178.944" stroke="black" stroke-width="0.797768" stroke-linecap="round"/>
<path d="M105.17 180.614C105.233 181.983 105.312 183.316 105.594 184.661C105.923 186.235 106.14 187.841 106.127 189.45C106.114 191.016 105.554 192.58 105.482 194.151C105.396 196.02 105.015 197.935 104.576 199.752C104.079 201.813 103.642 203.902 103.209 205.976C103.061 206.686 102.902 207.401 102.801 208.119C102.739 208.554 102.62 208.857 102.832 209.26C103.234 210.028 103.226 210.931 103.498 211.732C103.63 212.121 103.664 212.761 103.683 213.167" stroke="black" stroke-width="0.797768" stroke-linecap="round"/>
<path d="M99.312 215.78C99.3056 216.01 99.1195 215.587 99.1 215.553C98.9051 215.216 98.7204 214.875 98.5487 214.526C98.2878 213.997 98.2541 213.367 98.2273 212.79C98.1668 211.484 98.2362 210.1 98.0034 208.81C97.8063 207.718 97.4097 206.737 96.9107 205.741C96.1986 204.319 95.9612 202.71 95.388 201.238C94.5978 199.21 94.2194 197.061 93.5785 194.99C93.2205 193.833 92.9116 192.685 92.6288 191.51C92.5164 191.043 92.468 190.591 92.4458 190.113C92.4148 189.444 92.3668 190.108 92.3812 190.419" stroke="black" stroke-width="0.797768" stroke-linecap="round"/>
<path d="M94.1295 197.555C94.1147 197.498 94.0675 197.658 94.0403 197.711C93.9411 197.905 93.7927 198.066 93.6437 198.226C93.3102 198.583 92.9699 198.935 92.6331 199.289C92.1254 199.824 91.581 200.297 91.0474 200.8C90.9137 200.926 90.1047 201.495 90.217 201.594" stroke="black" stroke-width="0.797768" stroke-linecap="round"/>
<path d="M88.8438 170.226C88.3214 171.149 87.6612 171.985 87.1552 172.917C86.6839 173.786 86.5574 174.749 86.417 175.703C86.2685 176.712 86.0857 177.745 85.8835 178.745C85.818 179.069 85.8001 179.418 85.6927 179.732C85.5311 180.205 85.1426 180.623 84.8504 181.025" stroke="black" stroke-width="0.797768" stroke-linecap="round"/>
<path d="M84.1797 181.89C83.3826 182.754 82.7123 183.786 82.151 184.803C81.631 185.744 80.8789 186.515 80.2964 187.408C80.0746 187.748 79.6627 187.983 79.5123 188.353C79.4472 188.513 78.8284 189.182 79.1523 189.089" stroke="black" stroke-width="0.797768" stroke-linecap="round"/>
<path d="M89.5844 169.132C89.5862 169.141 90.1871 168.073 90.3318 167.869C90.8475 167.141 91.2841 166.436 91.9902 165.849C92.5753 165.363 93.3034 164.972 93.9785 164.617C94.8035 164.184 95.5812 163.673 96.4069 163.24C97.8824 162.465 99.5786 161.949 100.707 160.762" stroke="black" stroke-width="0.797768" stroke-linecap="round"/>
<path d="M100.852 163.945C99.8871 163.986 98.9078 164.324 97.9552 164.487C97.01 164.648 96.077 164.844 95.1375 165.025C94.7487 165.099 94.3592 165.141 93.9731 165.226C93.6375 165.3 93.3066 165.473 92.9607 165.497C92.7152 165.515 92.1773 165.606 92.1914 165.91" stroke="black" stroke-width="0.797768" stroke-linecap="round"/>
<path d="M91.5563 186.281C91.5212 185.524 91.4473 184.744 91.2149 184.019C90.7448 182.551 90.2085 181.174 89.9089 179.655C89.5869 178.023 89.5617 176.341 89.381 174.693C89.3246 174.178 89.3155 173.658 89.2915 173.141C89.2667 172.604 89.2147 173.183 89.2248 173.401" stroke="black" stroke-width="0.797768" stroke-linecap="round"/>
<path d="M88.5572 179.426C88.4013 179.306 88.509 179.901 88.5213 179.976C88.627 180.62 88.9217 181.218 89.1416 181.83C89.4636 182.726 89.8212 183.768 90.3723 184.569C90.5715 184.859 90.7953 185.145 90.982 185.437C91.0808 185.592 91.2864 185.677 91.377 185.833" stroke="black" stroke-width="0.797768" stroke-linecap="round"/>
<path d="M124.605 176.364C124.806 176.342 124.156 175.955 124.075 175.898C123.485 175.48 122.91 175.041 122.28 174.68C121.366 174.154 120.565 173.359 119.533 173.056C118.905 172.871 118.262 172.623 117.601 172.851C117.218 172.984 116.666 173.581 116.846 173.963" stroke="black" stroke-width="0.797768" stroke-linecap="round"/>
<path d="M120.543 173.805C119.62 174.299 118.896 174.989 118.106 175.655" stroke="black" stroke-width="0.797768" stroke-linecap="round"/>
<path d="M118.956 168.483C118.96 169.055 118.509 169.558 118.222 170.033C117.84 170.665 117.356 171.236 116.984 171.874C116.546 172.626 116.212 173.597 116.237 174.462C116.271 175.646 116.189 176.835 116.245 178.029C116.264 178.439 116.141 179.208 116.335 179.602C116.475 179.885 116.516 180.27 116.582 180.579C116.732 181.275 116.974 181.917 117.201 182.593C117.699 184.074 118.338 185.511 118.807 187.003C119.329 188.664 120.003 190.275 120.477 191.95C120.795 193.073 121.029 194.239 121.461 195.324" stroke="black" stroke-width="0.797768" stroke-linecap="round"/>
<path d="M122.054 197.88C122.168 197.745 122.151 197.794 122.233 197.965C122.41 198.333 122.537 198.717 122.723 199.082C123.226 200.068 123.754 201.042 124.235 202.037C125.119 203.864 126.264 205.574 127.031 207.455C127.473 208.537 128 209.695 128.64 210.688C128.789 210.919 128.981 211.213 129.07 211.471C129.168 211.753 129.33 211.982 129.31 211.536" stroke="black" stroke-width="0.797768" stroke-linecap="round"/>
<path d="M136.459 209.332C136.44 208.919 136.154 208.593 135.919 208.259C135.267 207.336 134.631 206.404 133.956 205.496C132.55 203.609 131.015 201.823 129.527 199.997C128.455 198.683 127.391 197.347 126.457 195.941C126.219 195.583 125.951 195.275 125.666 194.954C125.568 194.843 125.463 194.63 125.692 194.763" stroke="black" stroke-width="0.797768" stroke-linecap="round"/>
<path d="M127.462 197.191C127.595 197.752 128.215 198.315 128.485 198.835C129.055 199.932 129.524 201.083 130.09 202.186C130.665 203.306 131.096 204.504 131.561 205.67C131.89 206.496 132.139 207.376 132.578 208.156C132.802 208.554 133.023 208.982 133.197 209.399C133.3 209.648 133.542 209.953 133.585 210.213C133.611 210.375 134.178 210.954 133.842 210.658" stroke="black" stroke-width="0.797768" stroke-linecap="round"/>
<path d="M124.157 190.502C124.097 190.131 123.817 189.727 123.693 189.366C123.424 188.586 123.137 187.824 122.932 187.025C122.558 185.566 122.573 184.058 122.884 182.586C123.108 181.525 123.563 180.449 123.703 179.38C123.771 178.862 123.985 178.272 123.961 177.758" stroke="black" stroke-width="0.797768" stroke-linecap="round"/>
<path d="M124.834 176.203C125.04 176.407 125.001 176.458 125.045 176.026C125.13 175.187 125.231 174.352 125.279 173.511C125.381 171.736 125.87 169.984 126.085 168.222C126.179 167.45 126.391 166.727 126.452 165.945C126.522 165.065 126.562 164.152 126.521 163.269C126.464 162.029 126.88 160.797 126.822 159.553C126.785 158.748 126.716 158.139 126.234 157.453C125.656 156.631 124.698 156.136 124.032 155.405C123.508 154.828 122.765 154.355 122.409 153.644C122.282 153.391 121.466 152.249 121.314 152.974" stroke="black" stroke-width="0.797768" stroke-linecap="round"/>
<path d="M121.08 153.057C121.638 153.093 121.935 154.482 121.953 154.884C121.997 155.816 121.973 156.647 121.802 157.572C121.611 158.606 121.288 159.598 121.037 160.616C120.618 162.307 120.098 163.97 119.614 165.645C119.463 166.166 119.266 166.651 119.291 167.177" stroke="black" stroke-width="0.797768" stroke-linecap="round"/>
<path d="M140.399 163.314C140.377 163.189 139.689 162.761 139.563 162.666C138.911 162.175 138.185 161.797 137.505 161.346C136.946 160.975 136.344 160.691 135.688 160.517C134.447 160.186 133.236 159.766 132.056 159.268C131.007 158.825 129.964 158.398 128.851 158.148C128.505 158.071 128.213 157.99 127.854 158.006C127.728 158.011 127.277 158.03 127.303 158.029" stroke="black" stroke-width="0.797768" stroke-linecap="round"/>
<path d="M141.328 171.399C141.665 171.738 140.419 171.054 139.979 170.849C138.855 170.324 137.807 169.77 136.742 169.136C135.022 168.112 133.354 166.995 131.6 166.029C130.472 165.407 129.276 164.8 128.066 164.337C127.79 164.232 127.516 164.216 127.231 164.179C127.143 164.167 126.604 164.037 126.882 164.198" stroke="black" stroke-width="0.797768" stroke-linecap="round"/>
<path d="M121.849 155.988C121.793 155.591 121.388 155.122 121.222 154.75C120.865 153.949 120.552 153.044 120.411 152.178C120.312 151.569 120.036 150.89 120.008 150.298" stroke="black" stroke-width="0.797768" stroke-linecap="round"/>
<path d="M119.618 150.313C119.933 150.299 120.243 150.435 120.565 150.331C121.077 150.166 121.455 149.246 121.758 148.855C122.505 147.892 122.738 146.551 122.921 145.406C123.056 144.559 123.123 143.199 122.683 142.439C122.492 142.109 122.081 141.759 121.669 141.727C121.439 141.71 120.952 141.677 120.966 141.981" stroke="black" stroke-width="0.797768" stroke-linecap="round"/>
<path d="M120.116 144.145C120.15 143.739 121.028 144.662 121.09 144.744C121.218 144.914 121.996 146.015 121.456 145.834" stroke="black" stroke-width="0.797768" stroke-linecap="round"/>
<path d="M119.888 144.382C120.541 144.957 120.59 145.708 120.618 146.519C120.632 146.909 120.578 147.336 120.419 147.7C120.354 147.849 120.289 147.913 120.297 148.084" stroke="black" stroke-width="0.797768" stroke-linecap="round"/>
<path d="M122.356 141.39C122.321 140.622 122.44 139.903 122.208 139.14C122.028 138.547 121.758 138.056 121.424 137.533C121.304 137.346 121.123 137.099 121.122 136.871C121.121 136.659 121.297 136.458 121.37 136.262C121.51 135.883 121.532 135.522 121.514 135.126C121.465 134.074 121.174 133.124 120.862 132.117C120.212 130.015 119.001 128.133 117.107 126.888C116.402 126.425 115.547 126.166 114.708 126.063C114.472 126.034 113.327 125.898 113.214 126.144" stroke="black" stroke-width="0.797768" stroke-linecap="round"/>
<path d="M109.309 125.251C109.339 125.28 108.643 124.682 108.448 124.533C107.922 124.13 107.271 123.905 106.676 123.622C105.954 123.278 105.172 123.305 104.391 123.277C103.533 123.245 102.6 123.272 101.784 123.54C100.335 124.016 99.1887 124.807 98.0636 125.77C97.7609 126.029 97.2079 126.679 97.0943 127.064" stroke="black" stroke-width="0.797768" stroke-linecap="round"/>
<path d="M96.1797 127.785C96.1454 127.948 95.0647 128.02 94.8716 128.102C94.2256 128.378 93.6438 128.865 93.1736 129.36C92.7632 129.792 92.4398 130.234 92.259 130.795C92.1543 131.12 92.0863 131.465 91.949 131.761" stroke="black" stroke-width="0.797768" stroke-linecap="round"/>
<path d="M93.077 133.991C93.1285 134.332 93.2632 134.606 93.28 134.969C93.3041 135.489 93.2048 135.841 93.0277 136.329C92.8681 136.77 92.697 137.32 92.4168 137.701C92.3567 137.782 92.0398 138.21 92.0899 138.208" stroke="black" stroke-width="0.797768" stroke-linecap="round"/>
<path d="M92.3766 139.334C92.8974 139.374 93.0802 140.957 93.1594 141.291C93.3189 141.964 93.2749 142.584 93.2674 143.243C93.265 143.455 93.1375 143.582 93.1346 143.78C93.1295 144.125 93.5176 144.263 93.8175 144.527C94.4493 145.084 94.8369 145.868 95.2526 146.574C95.4563 146.92 95.8265 147.427 95.8456 147.839" stroke="black" stroke-width="0.797768" stroke-linecap="round"/>
<path d="M96.0821 147.829C96.0445 147.796 95.8582 147.548 95.8422 147.662C95.7938 148.004 95.8722 148.403 95.8881 148.748C95.9233 149.505 95.9584 150.263 95.9935 151.021C96.0261 151.724 96.2753 152.793 97.1112 153.022" stroke="black" stroke-width="0.797768" stroke-linecap="round"/>
<path d="M97.502 152.91C97.8633 152.895 97.8668 153.422 97.9277 153.635C97.996 153.873 98.1368 154.122 98.2444 154.349C98.3684 154.611 98.3808 154.907 98.5076 155.169C99.0009 156.188 99.4991 157.264 100.256 158.149C100.909 158.914 101.781 159.512 102.464 160.246C103.448 161.303 105.074 161.584 106.545 161.736C107.918 161.878 109.51 161.856 110.79 161.342C111.561 161.032 112.398 160.533 113.058 160.068C113.769 159.568 114.664 159.015 115.211 158.373C116.172 157.245 117.137 156.006 117.667 154.658C117.933 153.981 118.17 153.26 118.283 152.55C118.313 152.361 118.679 151.471 118.527 151.349" stroke="black" stroke-width="0.797768" stroke-linecap="round"/>
<path d="M105.946 161.905C106.548 162.495 107.046 163.252 107.486 163.956C108.137 164.998 108.853 166.071 109.344 167.191C109.402 167.324 111.127 170.337 110.438 170.366" stroke="black" stroke-width="0.797768" stroke-linecap="round"/>
<path d="M108.194 162.872C108.437 162.836 108.741 162.376 108.348 162.79C108.137 163.012 107.995 163.219 107.868 163.494C107.703 163.85 108.223 163.129 108.28 163.021C108.338 162.908 108.524 162.7 108.34 162.622C108.271 162.592 107.877 162.573 108.055 162.423C108.11 162.376 107.289 162.149 107.192 162.127C106.543 161.975 107.218 162.157 107.458 162.297C107.612 162.386 108.209 162.788 108.105 163.028C107.952 163.382 107.504 162.802 107.437 162.686C107.242 162.349 107.736 163.211 107.778 163.333C107.803 163.408 107.968 163.717 107.904 163.804C107.853 163.875 107.406 163.181 107.383 163.143C107.312 163.023 106.88 161.976 106.673 161.984C106.408 161.996 106.993 162.392 107.122 162.615C107.342 162.994 107.609 163.317 107.795 163.72C107.889 163.922 107.972 164.373 108.189 164.467" stroke="black" stroke-width="0.797768" stroke-linecap="round"/>
<path d="M116.406 183.242C116.446 183.235 116.845 183.072 116.772 183.015C116.69 182.951 116.374 183.018 116.283 183.036C115.939 183.103 115.613 183.124 115.263 183.139C114.565 183.169 113.688 182.759 113.064 182.474C112.296 182.124 111.782 181.684 111.166 181.13C109.855 179.948 108.806 178.573 107.998 177.036C107.688 176.447 107.409 175.842 107.092 175.257C107.047 175.174 106.865 174.701 106.868 174.769" stroke="black" stroke-width="0.797768" stroke-linecap="round"/>
<path d="M116.798 181.481C114.016 181.6 111.781 179.65 110.242 177.629C109.818 177.071 109.488 176.455 109.11 175.873C108.89 175.534 108.701 175.155 108.525 174.793C108.351 174.432 108.099 174.138 107.987 173.753C107.798 173.108 107.408 172.516 107.19 171.873C107.108 171.632 107.014 171.379 106.919 171.142C106.819 170.889 106.85 170.968 106.861 171.203" stroke="black" stroke-width="0.797768" stroke-linecap="round"/>
<path d="M116.624 210.028C117.468 209.901 115.564 207.798 115.41 207.655C114.495 206.804 113.539 206.048 112.558 205.268C111.454 204.391 110.515 203.34 109.46 202.411C108.25 201.345 107.037 200.288 105.797 199.257C105.625 199.114 105.39 199.031 105.231 198.868C105.156 198.791 104.715 198.512 104.907 198.764" stroke="black" stroke-width="0.797768" stroke-linecap="round"/>
<path d="M107.352 200.481C107.438 201.288 108.109 202.232 108.447 202.948C109.28 204.713 110.124 206.444 110.744 208.29C111.037 209.16 111.261 210.077 111.447 210.975C111.501 211.237 111.399 211.391 111.72 211.377" stroke="black" stroke-width="0.797768" stroke-linecap="round"/>
<path d="M105.152 198.906C105.241 202.737 105.348 206.571 105.098 210.4C105.066 210.9 105.039 211.397 105.006 211.897C104.989 212.147 105.047 212.46 104.964 212.7C104.916 212.838 105.012 213.784 104.875 213.341" stroke="black" stroke-width="0.797768" stroke-linecap="round"/>
<path d="M120.633 141.765C120.178 141.785 119.879 142.288 119.616 142.606C119.198 143.112 118.972 143.743 118.697 144.324C118.465 144.814 118.247 145.367 118.162 145.903C118.146 145.997 118.089 146.408 118.086 146.353" stroke="black" stroke-width="0.797768" stroke-linecap="round"/>
<path d="M119.133 141.605C118.746 142.156 118.543 142.714 118.266 143.312" stroke="black" stroke-width="0.797768" stroke-linecap="round"/>
<path d="M117.232 139.786C117.107 137.1 115.447 134.107 112.919 132.835C111.597 132.17 110.303 132.011 108.834 132.099C108.221 132.136 107.596 132.425 107.047 132.669C106.888 132.739 106.499 132.894 106.433 133.037" stroke="black" stroke-width="0.797768" stroke-linecap="round"/>
<path d="M103.129 133.181C102.428 133.211 101.738 133.165 101.036 133.195C99.952 133.241 99.0818 133.933 98.3107 134.602C97.0436 135.701 96.6205 137.162 96.1699 138.687C95.6799 140.345 95.8985 142.188 95.9773 143.887C96.0218 144.848 96.3126 147.72 96.2681 146.759" stroke="black" stroke-width="0.797768" stroke-linecap="round"/>
<path d="M100.518 131.242C98.9847 131.173 97.5233 129.562 97.4559 128.109" stroke="black" stroke-width="0.797768" stroke-linecap="round"/>
<path d="M102.765 144.642C101.337 143.901 99.9199 143.963 98.8315 144.995" stroke="black" stroke-width="0.797768" stroke-linecap="round"/>
<path d="M101.292 144.555C101.305 144.838 101.397 145.204 101.035 145.421C100.701 145.621 100.205 144.855 100.429 144.724C100.638 144.6 101.174 145.193 100.933 145.337C100.522 145.583 100.239 144.849 100.456 144.792C100.726 144.721 101.012 145.22 100.766 145.312C100.504 145.41 100.139 144.904 100.581 144.865C100.762 144.85 100.851 144.876 100.926 144.982C100.955 145.023 100.97 145.119 100.886 145.039C100.778 144.937 100.799 144.662 100.863 144.546" stroke="black" stroke-width="0.797768" stroke-linecap="round"/>
<path d="M113.426 144.2C112.776 143.783 111.741 143.65 110.881 143.716C110.332 143.759 109.673 144.128 109.195 144.381" stroke="black" stroke-width="0.797768" stroke-linecap="round"/>
<path d="M111.781 144.087C111.969 144.079 111.923 144.519 111.907 144.63C111.84 145.092 111.367 145.056 111.232 144.634C111.198 144.527 111.123 144.037 111.385 144.235C111.535 144.349 111.741 145.032 111.431 145.051C111.067 145.073 110.888 144.504 110.977 144.231C111.02 144.099 111.219 144.169 111.292 144.226C111.463 144.359 111.569 144.552 111.576 144.762C111.581 144.926 111.45 145 111.291 144.948C111.068 144.874 110.94 144.7 110.901 144.483C110.857 144.238 110.913 144.085 110.929 144.427" stroke="black" stroke-width="0.797768" stroke-linecap="round"/>
<path d="M114.344 141.45C113.757 141.076 112.212 140.617 111.046 140.666C110.332 140.697 109.397 140.855 108.376 141.403" stroke="black" stroke-width="0.797768" stroke-linecap="round"/>
<path d="M102.834 141.538C101.665 141.153 100.65 141.072 99.6843 141.238C99.1911 141.323 98.0489 141.793 97.6253 142.063" stroke="black" stroke-width="0.797768" stroke-linecap="round"/>
<path d="M110.113 154.023C110.052 154.033 109.791 154.169 109.745 154.207C109.61 154.322 109.36 154.283 109.18 154.291C108.294 154.328 107.408 154.366 106.522 154.404C105.701 154.439 103.252 154.696 104.072 154.661" stroke="black" stroke-width="0.797768" stroke-linecap="round"/>
<path d="M103.593 154.529C103.458 154.393 103.977 154.588 104.068 154.584" stroke="black" stroke-width="0.797768" stroke-linecap="round"/>
<path d="M107.34 155.508L105.766 155.575" stroke="black" stroke-width="0.797768" stroke-linecap="round"/>
<path d="M94.2097 197.628C94.1997 197.411 94.311 196.876 94.0992 197.228C93.9624 197.455 93.7713 198.048 93.5704 198.199C93.4717 198.274 93.5381 197.957 93.5537 197.837C93.5869 197.582 93.6401 197.332 93.7115 197.084C93.8348 196.655 93.994 196.297 93.7763 196.972C93.5957 197.532 93.3568 198.101 93.1089 198.637C92.9005 199.087 93.1116 197.821 93.1288 197.742C93.2564 197.154 93.6427 195.395 93.5821 195.993C93.5096 196.708 93.1197 197.435 92.9099 198.122C92.8777 198.227 92.4447 199.413 92.5088 198.92C92.6264 198.015 92.8985 197.128 93.0365 196.223C93.0707 195.999 93.1951 195.328 93.1543 195.552C93.0948 195.877 92.981 196.202 92.8926 196.52C92.6351 197.448 92.3718 198.372 92.0881 199.292C92.0133 199.534 91.778 200.1 91.9043 199.485C92.0993 198.535 92.4249 197.6 92.658 196.657C92.8117 196.035 92.9109 195.408 92.9692 194.771C92.9982 194.454 93.0964 195.042 93.1072 195.103C93.186 195.548 93.2625 195.99 93.3484 196.433C93.4448 196.931 93.376 196.651 93.3597 196.298C93.3422 195.922 93.2744 194.795 93.3074 195.17C93.3411 195.553 93.3791 195.985 93.5023 196.351C93.7613 197.119 93.2882 194.748 93.1676 193.949C93.1445 193.796 93.0796 193.657 93.0724 193.502C93.0618 193.274 93.1049 193.957 93.0865 194.184C93.0065 195.168 92.7987 196.171 92.6103 197.14C92.4874 197.772 92.3251 198.398 92.2427 199.036C92.224 199.181 92.1958 200.103 92.1836 199.84" stroke="black" stroke-width="0.797768" stroke-linecap="round"/>
<path d="M137.549 207.311C137.492 207.637 137.128 208.545 137.336 208.282C137.426 208.167 137.518 208.059 137.618 207.953C137.782 207.781 137.586 208.428 137.508 208.51C137.426 208.596 137.761 207.973 137.847 208.074C137.852 208.08 137.385 209.262 137.298 208.696C137.142 207.677 136.82 206.403 137.065 205.375C137.163 204.965 137.291 204.48 137.524 204.12C137.678 203.882 137.781 203.819 137.769 203.54C137.744 203.012 137.316 203.545 137.13 203.744C136.571 204.342 136.129 205.057 135.984 205.86C135.863 206.532 135.931 207.262 135.768 207.918C135.686 208.251 135.887 207.242 135.998 206.918C136.154 206.461 136.336 206.013 136.478 205.552C136.722 204.753 136.722 206.651 136.72 206.815C136.716 207.139 136.518 208.867 136.46 207.627C136.453 207.478 136.558 205.796 136.758 206.312C136.858 206.569 137.299 208.983 137.071 208.993C136.906 209 136.801 208.773 136.744 208.661C136.664 208.502 136.611 208.338 136.568 208.167C136.55 208.094 136.56 207.919 136.493 207.955C136.43 207.989 136.676 208.562 136.695 208.625C136.705 208.66 136.777 209.114 136.718 209.033C136.198 208.319 136.344 206.964 136.312 206.132C136.304 205.915 136.222 205.5 136.45 205.342C136.637 205.213 136.67 205.407 136.679 205.543C136.696 205.811 136.489 207.395 136.413 206.524C136.359 205.905 136.389 205.302 136.596 204.712C136.619 204.648 136.839 204.108 136.846 204.136C136.892 204.33 136.843 204.577 136.783 204.763C136.671 205.105 136.615 204.902 136.674 204.675C136.74 204.417 136.901 204.201 137.062 203.992C137.24 203.761 136.937 204.608 136.91 204.673C136.388 205.917 135.474 207.005 136.254 208.281C136.377 208.483 136.502 208.691 136.581 208.913C136.632 209.056 136.393 208.569 136.361 208.517C136.272 208.372 135.543 207.211 135.954 207.851C136.247 208.309 136.575 208.761 136.764 209.272C136.8 209.368 136.382 208.755 136.307 208.579C136.136 208.175 136.339 209.065 136.374 209.166C136.503 209.545 136.564 209.88 136.535 209.252" stroke="black" stroke-width="0.797768" stroke-linecap="round"/>
<path d="M121.358 153.884C121.05 153.528 121.345 154.345 121.385 154.452C121.451 154.628 121.672 155.41 121.653 155.322C121.558 154.88 121.348 154.464 121.29 154.013C121.236 153.598 121.457 154.212 121.496 154.299C121.511 154.334 121.853 155.057 121.771 154.667C121.687 154.266 121.544 153.846 121.357 153.479C121.174 153.12 120.664 153.078 121.162 153.057C121.594 153.039 121.775 153.386 121.823 153.792C121.886 154.338 121.774 155.988 121.829 155.441C121.899 154.752 122.079 153.938 121.708 153.295C121.522 152.974 121.226 152.742 121.248 153.205" stroke="black" stroke-width="0.797768" stroke-linecap="round"/>
<path d="M105.383 151.391C105.372 151.502 104.696 150.799 104.632 150.623C104.348 149.848 104.507 148.91 104.499 148.108C104.485 146.689 104.675 142.44 104.741 143.857" stroke="black" stroke-width="0.797768" stroke-linecap="round"/>
<path d="M107.628 151.105C107.851 151.07 107.134 150.573 107.018 150.527" stroke="black" stroke-width="0.797768" stroke-linecap="round"/>
<path d="M108.211 162.794C108.375 163.039 108.14 163.555 108.101 163.823C108.054 164.147 107.816 165.1 107.918 164.788C108.105 164.216 108.295 163.642 108.522 163.084C108.562 162.988 108.834 162.494 108.812 162.431C108.779 162.337 107.829 162.43 108.115 162.418C108.412 162.406 108.617 162.337 108.854 162.197C108.945 162.143 109.497 162.038 109.259 161.973C108.983 161.897 107.368 161.615 107.382 161.918" stroke="black" stroke-width="0.797768" stroke-linecap="round"/>
<path d="M107.254 164.278C107.237 164.237 106.622 165.311 106.537 165.448C106.469 165.559 106.315 166.142 106.315 166.14" stroke="black" stroke-width="0.797768" stroke-linecap="round"/>
</g>
<g filter="url(#filter0_b_2766_90732)">
<path d="M64.7461 194.88L135.449 195.761L135.46 198.493C135.48 203.441 131.475 207.463 126.527 207.463H73.6897C68.7661 207.463 64.7708 203.479 64.7566 198.555L64.7461 194.88Z" fill="white"/>
<path d="M64.8707 198.555L64.8605 194.995L135.335 195.874L135.346 198.493C135.366 203.378 131.412 207.349 126.527 207.349H73.6897C68.829 207.349 64.8847 203.416 64.8707 198.555Z" stroke="url(#paint2_linear_2766_90732)" stroke-width="0.228186"/>
</g>
<rect x="340.402" y="33.24" width="79.6539" height="105.944" rx="12.6" transform="rotate(-0.243307 340.402 33.24)" fill="white" stroke="black" stroke-width="0.8"/>
<rect width="71.7377" height="98.4094" rx="11.1126" transform="matrix(-0.999982 0.00598834 0.00598834 0.999982 416.039 36.5018)" fill="#F3F4F7"/>
<mask id="mask2_2766_90732" style="mask-type:alpha" maskUnits="userSpaceOnUse" x="344" y="36" width="73" height="99">
<rect width="71.7377" height="97.7962" rx="11.1126" transform="matrix(-0.999982 0.00598834 0.00598834 0.999982 416.039 36.5018)" fill="#D9D9D9"/>
</mask>
<g mask="url(#mask2_2766_90732)">
<path d="M430.478 110.791L401.64 138.448L402.151 139.078L409.739 137.259L413.542 137.87L441.37 110.726L440.607 110.224L433.895 110.264L430.478 110.791Z" fill="white"/>
<path d="M409.991 137.009C407.571 138.949 408.26 143.985 408.907 146.261L414.982 145.592C418.755 141.094 426.475 131.667 427.174 129.94C428.048 127.782 429.254 117.642 428.114 117.649C427.202 117.655 425.904 122.306 425.369 124.631C425.484 122.731 425.437 118.982 424.323 119.192C423.21 119.401 422.454 124.353 422.216 126.803L421.677 121.487C420.745 120.902 418.963 120.845 419.294 125.301C419.624 129.757 417.943 132.402 417.061 133.167C416.922 131.057 416.289 126.839 414.87 126.847C413.452 126.856 413.544 131.077 413.768 133.187L409.991 137.009Z" fill="#FFE3DB"/>
<path d="M400.408 120.589L389.527 122.428C392.213 126.844 390.08 130.277 391.352 131.156C392.37 131.859 395.825 130.833 397.426 130.233C397.557 130.95 398.276 132.583 400.105 133.383C401.933 134.183 402.636 133.157 402.886 132.48C404.407 132.673 405.203 131.748 405.41 131.072C407.428 129.641 405.976 126.846 404.872 125.882C404.025 125.338 403.276 124.185 406.517 125.492C411.468 127.489 414.374 126.332 413.611 125.83C413.001 125.428 404.555 122.169 400.408 120.589Z" fill="#FFE3DB"/>
<path d="M334.708 149.87C339.39 153.388 340.486 155.872 340.448 156.675C343.66 157.162 351.222 158.13 355.782 158.103C360.341 158.075 366.89 158.965 369.595 159.413C370.821 159.744 373.729 160.3 375.551 159.884C377.372 159.468 381.615 157.399 383.509 156.417L385.134 152.861C388.426 152.588 395.312 151.913 396.524 151.399C398.04 150.757 408.043 150.317 412.603 150.29C416.25 150.268 416.882 145.705 416.741 143.426L414.853 145.337L408.777 146.007C407.136 142.673 408.818 138.618 409.863 137.008C408.346 137.397 404.881 138.355 403.163 139.074C401.445 139.794 401.177 138.791 401.258 138.199L387.822 136.38L390.984 135.601C392.15 127.387 390.399 122.643 389.378 121.298L387.732 121.308L387.723 119.789C388.16 108.235 385.529 98.8616 384.158 95.619L370.548 85.9481C370.547 85.6948 370.745 84.9084 371.549 83.789C372.352 82.6696 371.197 81.5536 370.519 81.1354L369.137 82.9169C366.702 82.4248 358.456 75.9304 354.637 72.7447L356.27 70.4552L354.624 70.465L350.481 76.5692C343.196 78.3354 334.829 85.4021 331.555 88.7147C328.05 95.5244 330.202 109.536 331.717 115.691C331.631 118.225 333.675 139.533 334.708 149.87Z" fill="#4BD0A0"/>
<path d="M358.815 50.8089C360.894 42.5892 371.211 41.0667 376.11 41.3329C376.125 43.8659 377.318 48.5196 378.942 48.9152C380.971 49.4096 386.314 53.3039 388.738 56.2024C390.677 58.5213 389.587 64.0077 388.799 66.4611L387.663 67.1011C387.081 68.5822 386.02 71.9238 386.435 73.4412C386.849 74.9586 384.753 74.6756 383.654 74.3444L381.896 76.888C381.522 77.9457 380.423 80.4938 379.015 82.2248C377.606 83.9557 373.184 81.542 371.149 80.1187L369.52 82.9149C363.323 80.2163 357.354 74.6708 355.144 72.2354C360.532 62.5774 356.217 61.0834 358.815 50.8089Z" fill="#FFE3DB"/>
<path d="M362.557 62.4364C362.46 63.1462 359.658 64.7757 358.269 65.5017L358.215 56.5096C358.188 51.9502 358.663 46.6279 368.388 42.1368C376.169 38.5439 385.243 43.7668 388.808 46.8274L391.746 51.116C392.425 51.6186 392.526 50.8318 392.891 51.9957C393.408 53.6391 395.435 53.7537 395.941 53.624C396.174 58.6887 391.965 59.4317 390.016 58.3457C389.37 56.1964 385.424 52.927 383.77 51.6704C382.447 50.6651 379.157 49.756 377.678 49.4271C378.979 55.2454 375.309 55.774 371.127 55.4191C367.782 55.1351 366.867 55.9934 366.827 56.4581L365.173 55.0748C361.831 55.5001 362.037 60.1597 362.557 62.4364Z" fill="#5A5A5A"/>
<path d="M386.527 67.6112C386.033 69.6406 386.552 71.7906 386.558 72.8038C386.566 74.0703 385.428 74.4571 383.906 73.9596" stroke="black" stroke-width="0.780923" stroke-linecap="round"/>
<path d="M391.22 68.5969C390.455 67.7149 389.18 66.8825 388.581 66.5209C387.981 66.1593 386.553 69.1686 386.415 69.8922" stroke="black" stroke-width="0.780923" stroke-linecap="round"/>
<path d="M391.219 68.7245C390.299 70.2498 388.483 72.9458 387.065 73.0556" stroke="black" stroke-width="0.780923" stroke-linecap="round"/>
<path d="M387.787 66.7182L386.515 65.7125" stroke="black" stroke-width="0.780923" stroke-linecap="round"/>
<path d="M386.561 65.1685C385.96 64.1159 383.959 63.1745 382.946 62.688C382.801 62.6183 382.625 62.6602 382.526 62.787C378.956 67.3515 379.86 69.6819 381.856 69.9193C383.183 70.077 385.451 67.1311 386.542 65.4834C386.605 65.3884 386.617 65.2675 386.561 65.1685Z" stroke="black" stroke-width="0.780923" stroke-linecap="round"/>
<path d="M383.349 65.858C382.67 65.2288 380.653 64.1263 379.536 63.7277" stroke="black" stroke-width="0.780923" stroke-linecap="round"/>
<path d="M381.664 65.2363C381.412 65.4979 381.061 66.0462 381.669 66.1466C382.43 66.2721 382.677 65.2302 381.664 65.2363Z" stroke="black" stroke-width="0.780923" stroke-linecap="round"/>
<path d="M381.938 62.8263C377.997 60.4435 369.888 55.6792 368.976 55.6847C368.064 55.6901 367.5 55.9468 367.332 56.0745" stroke="black" stroke-width="0.780923" stroke-linecap="round"/>
<path d="M389.759 57.7144C389.976 58.5997 390.282 60.3711 389.784 61.8939C389.287 63.4167 389.005 65.656 389.052 66.4578" stroke="black" stroke-width="0.780923" stroke-linecap="round"/>
<path d="M383.906 73.9628C383.572 74.5136 382.652 76.0981 382.655 76.5033C382.658 77.0099 379.481 75.2558 378.209 74.3768" stroke="black" stroke-width="0.780923" stroke-linecap="round"/>
<path d="M381.769 76.8876C381.645 77.3528 381.271 78.3344 380.766 78.5401C380.134 78.7972 379.759 81.1505 379.393 81.968C378.768 83.3649 373.704 83.6486 366.942 75.4566C365.589 73.8181 365.53 72.4 365.512 69.2591" stroke="black" stroke-width="0.780923" stroke-linecap="round"/>
<path d="M381.358 50.5468C383.855 51.6717 387.711 53.9284 389.758 57.4624C392.318 61.88 397.226 56.5312 395.815 53.6266" stroke="black" stroke-width="0.780923" stroke-linecap="round"/>
<path d="M393.292 55.0331C393.342 56.2993 392.069 58.1308 389.12 56.3246" stroke="black" stroke-width="0.780923" stroke-linecap="round"/>
<path d="M370.029 41.3692C378.003 40.4349 383.209 42.6835 388.68 46.7037C389.637 47.4072 390.472 49.8593 392.509 51.7469" stroke="black" stroke-width="0.780923" stroke-linecap="round"/>
<path d="M368.262 42.1385C365.018 43.2979 359.09 47.3863 358.193 52.7111C357.467 57.0217 359.401 64.1028 357.023 68.9299C356.21 70.5812 355.897 71.2164 355.144 72.3608" stroke="black" stroke-width="0.780923" stroke-linecap="round"/>
<path d="M368.388 42.138C377.284 47.1509 378.462 49.2716 378.074 52.2123C377.589 55.8882 373.663 55.9117 371.126 55.167" stroke="black" stroke-width="0.780923" stroke-linecap="round"/>
<path d="M367.725 58.1013C367.38 56.879 366.26 54.5891 364.541 55.2073C362.393 55.9801 361.909 59.7826 362.683 62.0577C363.301 63.8779 364.806 64.1559 365.481 64.0675" stroke="black" stroke-width="0.780923" stroke-linecap="round"/>
<path d="M364.298 57.234C364.846 56.9775 366.021 57.2491 366.344 60.3881" stroke="black" stroke-width="0.780923" stroke-linecap="round"/>
<path d="M371.023 79.994C370.731 80.5024 369.771 82.4079 369.774 82.9145" stroke="black" stroke-width="0.780923" stroke-linecap="round"/>
<path d="M370.774 81.1334C371.413 82.0162 372.563 83.6558 371.043 83.6649C369.143 83.6763 355.761 74.3551 354.509 72.2384C353.614 70.7239 354.751 70.2527 355.64 70.7117" stroke="black" stroke-width="0.780923" stroke-linecap="round"/>
<path d="M352.865 72.7544C352.198 74.1938 351.489 75.6251 349.974 76.4447C348.081 77.4693 333.051 84.5253 331.432 89.0945C329.813 93.6638 325.838 106.733 336.339 125.921C346.502 144.493 347.584 142.572 353.405 141.651C359.225 140.73 389.346 136.876 390.733 135.855C392.12 134.833 391.541 122.804 389.379 121.298C383.472 121.797 370.846 122.878 367.606 123.201C363.556 123.605 356.334 123.269 354.82 124.164" stroke="black" stroke-width="0.780923" stroke-linecap="round"/>
<path d="M351.165 105.567C352.376 110.331 354.574 120.746 355.698 122.259" stroke="black" stroke-width="0.780923" stroke-linecap="round"/>
<path d="M344.787 98.643C346.61 99.9408 350.438 103.194 351.163 105.824C351.195 104.093 349.957 99.068 344.752 92.8171" stroke="black" stroke-width="0.780923" stroke-linecap="round"/>
<path d="M371.676 83.5331C370.839 84.8046 369.798 87.2173 370.57 89.2391" stroke="black" stroke-width="0.780923" stroke-linecap="round"/>
<path d="M371.056 85.9446C374.406 88.542 381.718 94.1386 384.16 95.7451C387.211 97.7533 388.212 116.745 387.604 121.055" stroke="black" stroke-width="0.780923" stroke-linecap="round"/>
<path d="M390.377 122.242C393.287 121.803 398.037 120.803 399.454 120.592C401.226 120.328 412.356 124.704 413.248 125.585C414.139 126.467 411.059 127.057 407.676 125.872C405.9 125.249 404.672 124.792 404.378 125.005" stroke="black" stroke-width="0.780923" stroke-linecap="round"/>
<path d="M403.105 123.622C404.084 124.882 406.067 127.606 406.173 128.416" stroke="black" stroke-width="0.780923" stroke-linecap="round"/>
<path d="M403.122 127.694L405.167 130.721" stroke="black" stroke-width="0.780923" stroke-linecap="round"/>
<path d="M401.17 129.917C401.723 130.547 402.811 132.061 402.712 132.568" stroke="black" stroke-width="0.780923" stroke-linecap="round"/>
<path d="M391.657 130.709C394.954 131.45 396.15 131.045 397.059 130.432" stroke="black" stroke-width="0.780923" stroke-linecap="round"/>
<path d="M399.798 130.971C399.034 130.301 397.457 129.162 397.259 129.973C397.012 130.988 401.092 135.523 402.721 132.6" stroke="black" stroke-width="0.780923" stroke-linecap="round"/>
<path d="M411.67 142.19C410.946 141.181 409.823 138.224 411.129 136.493C412.283 134.966 413.524 133.72 414.001 133.129C414.102 133.004 414.136 132.843 414.116 132.683C413.869 130.673 413.735 127.017 414.997 126.718C416.641 126.328 416.798 131.393 417.065 133.671" stroke="black" stroke-width="0.780923" stroke-linecap="round"/>
<path d="M408.78 146.005C410.384 145.953 413.82 145.747 414.729 145.336C415.866 144.823 424.665 133.751 426.3 131.715C427.934 129.679 429.138 119.159 428.751 118.022C428.422 117.055 427.231 118.031 426.74 120.694" stroke="black" stroke-width="0.780923" stroke-linecap="round"/>
<path d="M421.856 129.968C422.01 127.476 422.215 122.316 421.806 121.609C421.294 120.725 419.142 120.991 418.934 128.592C418.883 130.492 417.822 133.158 417.065 133.669" stroke="black" stroke-width="0.780923" stroke-linecap="round"/>
<path d="M401.135 138.326L429.092 111.561C430.477 110.286 430.787 110.285 433.137 110.271C435.328 110.257 438.307 110.24 440.404 110.227C441.024 110.223 441.33 110.98 440.882 111.409L428.528 123.217" stroke="black" stroke-width="0.780923" stroke-linecap="round"/>
<path d="M350.479 76.1882C351.629 77.9122 356.093 82.9939 361.427 85.495" stroke="black" stroke-width="0.780923" stroke-linecap="round"/>
<path d="M352.547 125.189C351.411 125.829 349.75 127.714 349.66 129.64" stroke="black" stroke-width="0.780923" stroke-linecap="round"/>
<path d="M388.074 51.2675C388.035 51.6899 388.086 53.1672 385.042 52.5522" stroke="black" stroke-width="0.780923" stroke-linecap="round"/>
<path d="M354.126 96.8103C354.819 99.8037 356.009 106.678 355.22 110.229" stroke="black" stroke-width="0.780923" stroke-linecap="round"/>
<path d="M385.609 62.6789C384.508 62.0945 382.179 60.901 381.672 60.8027" stroke="black" stroke-width="0.780923" stroke-linecap="round"/>
<path d="M389.17 64.6858C388.21 63.8898 388.99 64.2567 388.513 64.0575" stroke="black" stroke-width="0.780923" stroke-linecap="round"/>
<path d="M383.73 108.159C384.593 111.321 384.792 116.386 384.569 121.326" stroke="black" stroke-width="0.780923" stroke-linecap="round"/>
<path d="M370.019 81.7717L365.667 74.1985C366.814 75.3315 369.787 78.2268 371.144 79.3585L370.019 81.7717Z" fill="black"/>
<path d="M354.892 72.3645L355.642 70.8401C355.388 70.6306 354.753 70.3389 354.249 70.8485C353.746 71.3581 354.468 72.0715 354.892 72.3645Z" fill="black"/>
</g>
<rect x="1.38073" y="-1.39737" width="74.5158" height="100.574" rx="12.5017" transform="matrix(-0.999982 0.00598834 0.00598834 0.999982 418.809 36.4935)" stroke="white" stroke-width="2.77815"/>
<g filter="url(#filter1_b_2766_90732)">
<path d="M344.352 121.568H418.545V123.022C418.545 129.696 413.134 135.107 406.46 135.107H356.437C349.763 135.107 344.352 129.696 344.352 123.022V121.568Z" fill="white"/>
<path d="M344.432 121.649H418.465V123.022C418.465 129.652 413.09 135.027 406.46 135.027H356.437C349.807 135.027 344.432 129.652 344.432 123.022V121.649Z" stroke="url(#paint3_linear_2766_90732)" stroke-width="0.161421"/>
</g>
<path d="M20.1669 61.1979C19.5224 49.0648 28.8359 38.7065 40.969 38.062L170.786 31.1668C182.919 30.5224 193.278 39.8358 193.922 51.969C194.566 64.1022 185.253 74.4605 173.12 75.1049L43.3028 82.0001C31.1696 82.6445 20.8113 73.3311 20.1669 61.1979Z" fill="#4BD0A0"/>
<path d="M54.8554 67.607C53.9367 67.6558 53.0842 67.5676 52.2978 67.3423C51.5247 67.1163 50.8437 66.7386 50.2548 66.2091C49.6652 65.6663 49.1866 64.9506 48.8189 64.0622C48.4646 63.1731 48.2535 62.0894 48.1856 60.8112L48.1644 60.4118C48.0993 59.1869 48.2036 58.1332 48.4772 57.2508C48.7634 56.3543 49.1712 55.6116 49.7007 55.0227C50.2435 54.4331 50.8873 53.985 51.6321 53.6784C52.3902 53.3711 53.2087 53.1941 54.0874 53.1474C54.873 53.1057 55.6169 53.1596 56.3191 53.3093C57.0214 53.4589 57.6428 53.7196 58.1833 54.0915C58.7364 54.4493 59.1889 54.926 59.541 55.5215C59.9064 56.1163 60.138 56.8317 60.2358 57.6677L57.1202 57.8332C56.9313 57.0421 56.5807 56.4732 56.0682 56.1265C55.5558 55.7799 54.9401 55.6257 54.2211 55.6639C53.8083 55.6858 53.4128 55.7802 53.0344 55.9472C52.6694 56.1135 52.3496 56.3775 52.0751 56.7392C51.8006 57.1009 51.5849 57.5664 51.4282 58.1355C51.2849 58.7039 51.2354 59.4075 51.28 60.2463L51.3012 60.6458C51.3479 61.5245 51.4803 62.2585 51.6986 62.8478C51.9161 63.4237 52.1809 63.8837 52.4929 64.2276C52.8175 64.5575 53.1704 64.7924 53.5517 64.9324C53.9456 65.0584 54.3357 65.1111 54.7218 65.0906C55.4807 65.0503 56.0962 64.824 56.5684 64.4117C57.0398 63.9861 57.3086 63.391 57.3748 62.6264L60.4904 62.4609C60.4705 63.3432 60.3171 64.0991 60.03 64.7285C59.743 65.358 59.3501 65.8795 58.8514 66.2932C58.3526 66.7069 57.7617 67.0187 57.0785 67.2286C56.3953 67.4385 55.6543 67.5646 54.8554 67.607ZM62.1733 56.3631L71.7598 55.8539L72.322 66.439L69.6857 66.579L69.2402 58.1908L64.9262 58.42L65.3718 66.8081L62.7355 66.9482L62.1733 56.3631ZM79.5168 66.2972C78.7978 66.3354 78.1064 66.2653 77.4427 66.0869C76.7916 65.8945 76.2147 65.5913 75.712 65.1774C75.2087 64.7502 74.7991 64.2044 74.4835 63.5402C74.1671 62.8627 73.9845 62.0646 73.9357 61.1459L73.9145 60.7465C73.8678 59.8677 73.9603 59.0951 74.1919 58.4285C74.4236 57.762 74.7611 57.2033 75.2044 56.7525C75.6471 56.2883 76.169 55.9335 76.7702 55.6879C77.3706 55.429 78.0237 55.2808 78.7294 55.2434C80.3937 55.155 81.6819 55.5272 82.594 56.36C83.5062 57.1928 84.0064 58.4413 84.0948 60.1056L84.1542 61.2241L76.6648 61.6219C76.7028 62.0872 76.8043 62.489 76.9691 62.8274C77.1333 63.1525 77.3408 63.4152 77.5918 63.6155C77.8428 63.8158 78.1242 63.9611 78.4361 64.0513C78.7606 64.1275 79.0827 64.1572 79.4022 64.1402C80.0812 64.1041 80.5886 63.977 80.9241 63.7589C81.2597 63.5408 81.4905 63.2348 81.6164 62.8409L84.033 62.7126C83.8787 63.829 83.3969 64.6891 82.5878 65.2929C81.7787 65.8966 80.755 66.2314 79.5168 66.2972ZM78.9438 57.395C78.6376 57.4113 78.3334 57.4675 78.0315 57.5636C77.7428 57.6591 77.4899 57.7994 77.2727 57.9845C77.0556 58.1696 76.8815 58.4125 76.7506 58.7132C76.6197 59.0139 76.5586 59.371 76.5672 59.7844L81.5002 59.5224C81.4636 59.0838 81.3709 58.7215 81.2222 58.4356C81.0868 58.1491 80.9013 57.9253 80.6658 57.7642C80.4436 57.6024 80.1842 57.496 79.8878 57.445C79.5913 57.394 79.2767 57.3773 78.9438 57.395ZM94.864 65.2417L86.296 65.6967L85.7338 55.1117L88.3701 54.9716L88.8156 63.3598L92.9298 63.1413L92.4843 54.7531L95.1206 54.6131L95.5661 63.0013L97.064 62.9217L97.3133 67.6151L94.9966 67.7381L94.864 65.2417ZM98.3137 54.4435L107.9 53.9343L108.462 64.5194L105.826 64.6594L105.381 56.2712L101.067 56.5004L101.512 64.8885L98.876 65.0286L98.3137 54.4435ZM110.289 53.8074L112.746 53.677L112.828 55.2348C113.069 54.7413 113.466 54.2996 114.02 53.9097C114.573 53.5198 115.289 53.3015 116.168 53.2548C117.579 53.1799 118.701 53.5609 119.533 54.3979C120.378 55.221 120.847 56.5046 120.94 58.2488L120.961 58.6482C121.058 60.4723 120.724 61.8586 119.96 62.8072C119.209 63.7417 118.14 64.2457 116.756 64.3192C116.037 64.3574 115.389 64.2383 114.814 63.9617C114.251 63.6712 113.783 63.2821 113.41 62.7945L113.7 68.2469L111.063 68.3869L110.289 53.8074ZM116.018 62.1153C116.71 62.0785 117.275 61.7881 117.714 61.2441C118.152 60.6868 118.342 59.8688 118.285 58.7904L118.263 58.3909C118.21 57.3923 117.944 56.6587 117.466 56.1901C116.986 55.7082 116.387 55.4864 115.668 55.5246C114.909 55.5649 114.288 55.8182 113.805 56.2844C113.335 56.7366 113.123 57.3955 113.169 58.2609L113.233 59.4592C113.283 60.4046 113.56 61.0975 114.064 61.5381C114.581 61.9646 115.232 62.157 116.018 62.1153ZM127.945 63.7249C127.226 63.7631 126.534 63.693 125.871 63.5147C125.219 63.3223 124.642 63.0124 124.139 62.5852C123.635 62.158 123.226 61.6122 122.91 60.9481C122.595 60.2839 122.412 59.4924 122.364 58.5737L122.342 58.1743C122.296 57.3088 122.396 56.5425 122.641 55.8752C122.886 55.2079 123.236 54.6419 123.692 54.1771C124.148 53.7122 124.69 53.3563 125.318 53.1093C125.958 52.8483 126.638 52.6987 127.357 52.6605C128.076 52.6224 128.761 52.6995 129.412 52.8919C130.062 53.0709 130.639 53.3675 131.142 53.7814C131.658 54.1946 132.073 54.72 132.387 55.3575C132.701 55.9951 132.881 56.7466 132.927 57.6121L132.949 58.0115C132.997 58.9169 132.899 59.7165 132.655 60.4104C132.412 61.1043 132.056 61.6907 131.587 62.1696C131.132 62.6477 130.591 63.0169 129.964 63.2772C129.337 63.5375 128.664 63.6868 127.945 63.7249ZM127.826 61.4881C128.571 61.4485 129.176 61.1493 129.641 60.5906C130.118 60.0311 130.329 59.2188 130.272 58.1536L130.251 57.7542C130.2 56.7822 129.907 56.0567 129.374 55.5776C128.854 55.0845 128.221 54.8578 127.476 54.8974C126.717 54.9377 126.105 55.2306 125.64 55.776C125.174 56.3081 124.967 57.0602 125.019 58.0321L125.04 58.4316C125.097 59.51 125.386 60.3025 125.907 60.8089C126.427 61.302 127.067 61.5284 127.826 61.4881ZM139.92 63.0889C139.201 63.1271 138.51 63.057 137.846 62.8786C137.195 62.6862 136.618 62.383 136.115 61.9691C135.612 61.5419 135.202 60.9962 134.887 60.332C134.57 59.6545 134.388 58.8564 134.339 57.9377L134.318 57.5382C134.271 56.6595 134.363 55.8868 134.595 55.2202C134.827 54.5537 135.164 53.995 135.608 53.5442C136.05 53.08 136.572 52.7252 137.173 52.4796C137.774 52.2207 138.427 52.0726 139.133 52.0351C140.797 51.9467 142.085 52.3189 142.997 53.1517C143.909 53.9845 144.41 55.233 144.498 56.8973L144.557 58.0158L137.068 58.4136C137.106 58.8789 137.207 59.2807 137.372 59.6191C137.536 59.9442 137.744 60.2069 137.995 60.4072C138.246 60.6075 138.527 60.7528 138.839 60.843C139.164 60.9193 139.486 60.9489 139.805 60.9319C140.484 60.8959 140.992 60.7688 141.327 60.5507C141.663 60.3326 141.894 60.0266 142.02 59.6327L144.436 59.5043C144.282 60.6207 143.8 61.4808 142.991 62.0846C142.182 62.6883 141.158 63.0231 139.92 63.0889ZM139.347 54.1867C139.041 54.203 138.737 54.2592 138.435 54.3554C138.146 54.4508 137.893 54.5911 137.676 54.7762C137.459 54.9613 137.285 55.2042 137.154 55.5049C137.023 55.8056 136.962 56.1627 136.97 56.5762L141.903 56.3141C141.867 55.8755 141.774 55.5132 141.625 55.2274C141.49 54.9408 141.304 54.717 141.069 54.5559C140.847 54.3942 140.587 54.2878 140.291 54.2367C139.994 54.1857 139.68 54.1691 139.347 54.1867ZM146.137 51.9034L148.773 51.7634L148.994 55.9175L149.992 55.8645L153.007 51.5385L155.923 51.3836L152.195 56.6087L156.685 61.9581L153.53 62.1257L150.103 57.9415L149.104 57.9946L149.335 62.3484L146.699 62.4885L146.137 51.9034ZM160.318 53.3533L156.942 53.5326L156.826 51.3357L166.213 50.8371L166.329 53.034L162.954 53.2133L163.4 61.6014L160.763 61.7415L160.318 53.3533Z" fill="white"/>
<mask id="path-218-inside-1_2766_90732" fill="white">
<path fill-rule="evenodd" clip-rule="evenodd" d="M57.6667 207.681C57.6667 209.051 57.3436 210.347 56.7683 211.5L56.7754 211.5L56.7078 211.619C56.6087 211.81 56.5025 211.997 56.3897 212.179L48.8337 225.5L41.3591 212.31C40.4982 210.97 40 209.383 40 207.681C40 202.887 43.9548 199 48.8333 199C53.7118 199 57.6667 202.887 57.6667 207.681ZM48.9853 211.488C50.9199 211.488 52.4882 209.92 52.4882 207.985C52.4882 206.051 50.9199 204.482 48.9853 204.482C47.0507 204.482 45.4824 206.051 45.4824 207.985C45.4824 209.92 47.0507 211.488 48.9853 211.488Z"/>
</mask>
<path fill-rule="evenodd" clip-rule="evenodd" d="M57.6667 207.681C57.6667 209.051 57.3436 210.347 56.7683 211.5L56.7754 211.5L56.7078 211.619C56.6087 211.81 56.5025 211.997 56.3897 212.179L48.8337 225.5L41.3591 212.31C40.4982 210.97 40 209.383 40 207.681C40 202.887 43.9548 199 48.8333 199C53.7118 199 57.6667 202.887 57.6667 207.681ZM48.9853 211.488C50.9199 211.488 52.4882 209.92 52.4882 207.985C52.4882 206.051 50.9199 204.482 48.9853 204.482C47.0507 204.482 45.4824 206.051 45.4824 207.985C45.4824 209.92 47.0507 211.488 48.9853 211.488Z" fill="#4BD0A0"/>
<path d="M56.7683 211.5L56.0525 211.143L55.4421 212.365L56.807 212.299L56.7683 211.5ZM56.7754 211.5L57.4712 211.894L58.1883 210.63L56.7366 210.7L56.7754 211.5ZM56.7078 211.619L56.012 211.224L56.0046 211.237L55.9977 211.25L56.7078 211.619ZM56.3897 212.179L55.7091 211.759L55.7012 211.772L55.6939 211.785L56.3897 212.179ZM48.8337 225.5L48.1377 225.894L48.8334 227.122L49.5296 225.895L48.8337 225.5ZM41.3591 212.31L42.0551 211.915L42.0442 211.896L42.0321 211.877L41.3591 212.31ZM57.484 211.857C58.1133 210.597 58.4667 209.178 58.4667 207.681H56.8667C56.8667 208.924 56.5739 210.098 56.0525 211.143L57.484 211.857ZM56.7366 210.7L56.7295 210.701L56.807 212.299L56.8142 212.299L56.7366 210.7ZM57.4037 212.013L57.4712 211.894L56.0795 211.105L56.012 211.224L57.4037 212.013ZM57.0703 212.6C57.1936 212.4 57.3096 212.196 57.418 211.987L55.9977 211.25C55.9078 211.424 55.8115 211.593 55.7091 211.759L57.0703 212.6ZM49.5296 225.895L57.0856 212.574L55.6939 211.785L48.1379 225.105L49.5296 225.895ZM40.6631 212.704L48.1377 225.894L49.5297 225.106L42.0551 211.915L40.6631 212.704ZM39.2 207.681C39.2 209.541 39.7452 211.278 40.6861 212.742L42.0321 211.877C41.2512 210.662 40.8 209.224 40.8 207.681H39.2ZM48.8333 198.2C43.5262 198.2 39.2 202.432 39.2 207.681H40.8C40.8 203.342 44.3835 199.8 48.8333 199.8V198.2ZM58.4667 207.681C58.4667 202.432 54.1405 198.2 48.8333 198.2V199.8C53.2832 199.8 56.8667 203.342 56.8667 207.681H58.4667ZM51.6882 207.985C51.6882 209.478 50.4781 210.688 48.9853 210.688V212.288C51.3617 212.288 53.2882 210.362 53.2882 207.985H51.6882ZM48.9853 205.282C50.4781 205.282 51.6882 206.493 51.6882 207.985H53.2882C53.2882 205.609 51.3617 203.682 48.9853 203.682V205.282ZM46.2824 207.985C46.2824 206.493 47.4926 205.282 48.9853 205.282V203.682C46.6089 203.682 44.6824 205.609 44.6824 207.985H46.2824ZM48.9853 210.688C47.4926 210.688 46.2824 209.478 46.2824 207.985H44.6824C44.6824 210.362 46.6089 212.288 48.9853 212.288V210.688Z" fill="black" mask="url(#path-218-inside-1_2766_90732)"/>
<mask id="path-220-inside-2_2766_90732" fill="white">
<path fill-rule="evenodd" clip-rule="evenodd" d="M288.667 130.681C288.667 132.051 288.344 133.347 287.768 134.5L287.775 134.5L287.708 134.619C287.609 134.81 287.503 134.997 287.39 135.179L279.834 148.5L272.359 135.31C271.498 133.97 271 132.383 271 130.681C271 125.887 274.955 122 279.833 122C284.712 122 288.667 125.887 288.667 130.681ZM279.985 134.488C281.92 134.488 283.488 132.92 283.488 130.985C283.488 129.051 281.92 127.482 279.985 127.482C278.051 127.482 276.482 129.051 276.482 130.985C276.482 132.92 278.051 134.488 279.985 134.488Z"/>
</mask>
<path fill-rule="evenodd" clip-rule="evenodd" d="M288.667 130.681C288.667 132.051 288.344 133.347 287.768 134.5L287.775 134.5L287.708 134.619C287.609 134.81 287.503 134.997 287.39 135.179L279.834 148.5L272.359 135.31C271.498 133.97 271 132.383 271 130.681C271 125.887 274.955 122 279.833 122C284.712 122 288.667 125.887 288.667 130.681ZM279.985 134.488C281.92 134.488 283.488 132.92 283.488 130.985C283.488 129.051 281.92 127.482 279.985 127.482C278.051 127.482 276.482 129.051 276.482 130.985C276.482 132.92 278.051 134.488 279.985 134.488Z" fill="#4BD0A0"/>
<path d="M287.768 134.5L287.053 134.143L286.442 135.365L287.807 135.299L287.768 134.5ZM287.775 134.5L288.471 134.894L289.188 133.63L287.737 133.7L287.775 134.5ZM287.708 134.619L287.012 134.224L287.005 134.237L286.998 134.25L287.708 134.619ZM287.39 135.179L286.709 134.759L286.701 134.772L286.694 134.785L287.39 135.179ZM279.834 148.5L279.138 148.894L279.833 150.122L280.53 148.895L279.834 148.5ZM272.359 135.31L273.055 134.915L273.044 134.896L273.032 134.877L272.359 135.31ZM288.484 134.857C289.113 133.597 289.467 132.178 289.467 130.681H287.867C287.867 131.924 287.574 133.098 287.053 134.143L288.484 134.857ZM287.737 133.7L287.73 133.701L287.807 135.299L287.814 135.299L287.737 133.7ZM288.404 135.013L288.471 134.894L287.08 134.105L287.012 134.224L288.404 135.013ZM288.07 135.6C288.194 135.4 288.31 135.196 288.418 134.987L286.998 134.25C286.908 134.424 286.811 134.593 286.709 134.759L288.07 135.6ZM280.53 148.895L288.086 135.574L286.694 134.785L279.138 148.105L280.53 148.895ZM271.663 135.704L279.138 148.894L280.53 148.106L273.055 134.915L271.663 135.704ZM270.2 130.681C270.2 132.541 270.745 134.278 271.686 135.742L273.032 134.877C272.251 133.662 271.8 132.224 271.8 130.681H270.2ZM279.833 121.2C274.526 121.2 270.2 125.432 270.2 130.681H271.8C271.8 126.342 275.383 122.8 279.833 122.8V121.2ZM289.467 130.681C289.467 125.432 285.141 121.2 279.833 121.2V122.8C284.283 122.8 287.867 126.342 287.867 130.681H289.467ZM282.688 130.985C282.688 132.478 281.478 133.688 279.985 133.688V135.288C282.362 135.288 284.288 133.362 284.288 130.985H282.688ZM279.985 128.282C281.478 128.282 282.688 129.493 282.688 130.985H284.288C284.288 128.609 282.362 126.682 279.985 126.682V128.282ZM277.282 130.985C277.282 129.493 278.493 128.282 279.985 128.282V126.682C277.609 126.682 275.682 128.609 275.682 130.985H277.282ZM279.985 133.688C278.493 133.688 277.282 132.478 277.282 130.985H275.682C275.682 133.362 277.609 135.288 279.985 135.288V133.688Z" fill="black" mask="url(#path-220-inside-2_2766_90732)"/>
<mask id="path-222-inside-3_2766_90732" fill="white">
<path fill-rule="evenodd" clip-rule="evenodd" d="M324.667 32.681C324.667 34.0513 324.344 35.3474 323.768 36.4999L323.775 36.4995L323.708 36.6186C323.609 36.8097 323.503 36.9968 323.39 37.1794L315.834 50.5L308.359 37.3098C307.498 35.9701 307 34.3827 307 32.681C307 27.8866 310.955 24 315.833 24C320.712 24 324.667 27.8866 324.667 32.681ZM315.985 36.4882C317.92 36.4882 319.488 34.9199 319.488 32.9853C319.488 31.0507 317.92 29.4824 315.985 29.4824C314.051 29.4824 312.482 31.0507 312.482 32.9853C312.482 34.9199 314.051 36.4882 315.985 36.4882Z"/>
</mask>
<path fill-rule="evenodd" clip-rule="evenodd" d="M324.667 32.681C324.667 34.0513 324.344 35.3474 323.768 36.4999L323.775 36.4995L323.708 36.6186C323.609 36.8097 323.503 36.9968 323.39 37.1794L315.834 50.5L308.359 37.3098C307.498 35.9701 307 34.3827 307 32.681C307 27.8866 310.955 24 315.833 24C320.712 24 324.667 27.8866 324.667 32.681ZM315.985 36.4882C317.92 36.4882 319.488 34.9199 319.488 32.9853C319.488 31.0507 317.92 29.4824 315.985 29.4824C314.051 29.4824 312.482 31.0507 312.482 32.9853C312.482 34.9199 314.051 36.4882 315.985 36.4882Z" fill="#4BD0A0"/>
<path d="M323.768 36.4999L323.053 36.1425L322.442 37.3651L323.807 37.2989L323.768 36.4999ZM323.775 36.4995L324.471 36.8942L325.188 35.63L323.737 35.7005L323.775 36.4995ZM323.708 36.6186L323.012 36.2239L323.005 36.2369L322.998 36.2502L323.708 36.6186ZM323.39 37.1794L322.709 36.759L322.701 36.7717L322.694 36.7847L323.39 37.1794ZM315.834 50.5L315.138 50.8944L315.833 52.122L316.53 50.8947L315.834 50.5ZM308.359 37.3098L309.055 36.9154L309.044 36.8961L309.032 36.8774L308.359 37.3098ZM324.484 36.8572C325.113 35.5966 325.467 34.1785 325.467 32.681H323.867C323.867 33.9241 323.574 35.0982 323.053 36.1425L324.484 36.8572ZM323.737 35.7005L323.73 35.7008L323.807 37.2989L323.814 37.2986L323.737 35.7005ZM324.404 37.0133L324.471 36.8942L323.08 36.1048L323.012 36.2239L324.404 37.0133ZM324.07 37.5998C324.194 37.4003 324.31 37.1959 324.418 36.987L322.998 36.2502C322.908 36.4236 322.811 36.5933 322.709 36.759L324.07 37.5998ZM316.53 50.8947L324.086 37.5741L322.694 36.7847L315.138 50.1053L316.53 50.8947ZM307.663 37.7042L315.138 50.8944L316.53 50.1056L309.055 36.9154L307.663 37.7042ZM306.2 32.681C306.2 34.5413 306.745 36.278 307.686 37.7423L309.032 36.8774C308.251 35.6621 307.8 34.2241 307.8 32.681H306.2ZM315.833 23.2C310.526 23.2 306.2 27.4317 306.2 32.681H307.8C307.8 28.3415 311.383 24.8 315.833 24.8V23.2ZM325.467 32.681C325.467 27.4317 321.141 23.2 315.833 23.2V24.8C320.283 24.8 323.867 28.3415 323.867 32.681H325.467ZM318.688 32.9853C318.688 34.4781 317.478 35.6882 315.985 35.6882V37.2882C318.362 37.2882 320.288 35.3617 320.288 32.9853H318.688ZM315.985 30.2824C317.478 30.2824 318.688 31.4926 318.688 32.9853H320.288C320.288 30.6089 318.362 28.6824 315.985 28.6824V30.2824ZM313.282 32.9853C313.282 31.4926 314.493 30.2824 315.985 30.2824V28.6824C313.609 28.6824 311.682 30.6089 311.682 32.9853H313.282ZM315.985 35.6882C314.493 35.6882 313.282 34.4781 313.282 32.9853H311.682C311.682 35.3617 313.609 37.2882 315.985 37.2882V35.6882Z" fill="black" mask="url(#path-222-inside-3_2766_90732)"/>
</g>
</g>
<defs>
<filter id="filter0_b_2766_90732" x="47.0845" y="177.218" width="106.038" height="47.9062" filterUnits="userSpaceOnUse" color-interpolation-filters="sRGB">
<feFlood flood-opacity="0" result="BackgroundImageFix"/>
<feGaussianBlur in="BackgroundImageFix" stdDeviation="8.8308"/>
<feComposite in2="SourceAlpha" operator="in" result="effect1_backgroundBlur_2766_90732"/>
<feBlend mode="normal" in="SourceGraphic" in2="effect1_backgroundBlur_2766_90732" result="shape"/>
</filter>
<filter id="filter1_b_2766_90732" x="331.858" y="109.074" width="99.1823" height="38.5273" filterUnits="userSpaceOnUse" color-interpolation-filters="sRGB">
<feFlood flood-opacity="0" result="BackgroundImageFix"/>
<feGaussianBlur in="BackgroundImageFix" stdDeviation="6.24698"/>
<feComposite in2="SourceAlpha" operator="in" result="effect1_backgroundBlur_2766_90732"/>
<feBlend mode="normal" in="SourceGraphic" in2="effect1_backgroundBlur_2766_90732" result="shape"/>
</filter>
<linearGradient id="paint0_linear_2766_90732" x1="166.322" y1="172.155" x2="288.374" y2="256.799" gradientUnits="userSpaceOnUse">
<stop stop-color="#4BD0A0"/>
<stop offset="0.2" stop-color="#55D4A7"/>
<stop offset="0.7" stop-color="#B5FFEA"/>
<stop offset="1" stop-color="#91E3FD"/>
</linearGradient>
<linearGradient id="paint1_linear_2766_90732" x1="268.518" y1="238.999" x2="224.702" y2="191.913" gradientUnits="userSpaceOnUse">
<stop stop-color="white"/>
<stop offset="1" stop-color="white" stop-opacity="0"/>
</linearGradient>
<linearGradient id="paint2_linear_2766_90732" x1="135.497" y1="206.339" x2="89.069" y2="162.722" gradientUnits="userSpaceOnUse">
<stop stop-color="white"/>
<stop offset="1" stop-color="white" stop-opacity="0"/>
</linearGradient>
<linearGradient id="paint3_linear_2766_90732" x1="418.545" y1="134.108" x2="377.404" y2="88.4987" gradientUnits="userSpaceOnUse">
<stop stop-color="white"/>
<stop offset="1" stop-color="white" stop-opacity="0"/>
</linearGradient>
<clipPath id="clip0_2766_90732">
<path d="M0 24C0 10.7452 10.7452 0 24 0H462V289H24C10.7452 289 0 278.255 0 265V24Z" fill="white"/>
</clipPath>
<clipPath id="clip1_2766_90732">
<rect width="462" height="289" fill="white"/>
</clipPath>
</defs>
</svg>
