<svg width="41" height="40" viewBox="0 0 41 40" fill="none" xmlns="http://www.w3.org/2000/svg">
<circle cx="20.9082" cy="20" r="19.5" stroke="#CCCCCC"/>
<path d="M30.8977 15.3583C30.7758 14.9059 30.5375 14.4934 30.2065 14.1617C29.8756 13.83 29.4636 13.5908 29.0115 13.4678C27.335 13.0075 20.6283 13 20.6283 13C20.6283 13 13.9226 12.9925 12.2451 13.4325C11.7933 13.5611 11.3821 13.8037 11.051 14.137C10.72 14.4703 10.4802 14.8832 10.3546 15.3359C9.91249 17.0123 9.9082 20.4893 9.9082 20.4893C9.9082 20.4893 9.90392 23.9834 10.3428 25.6427C10.589 26.5602 11.3116 27.2849 12.2301 27.5322C13.9237 27.9925 20.6122 28 20.6122 28C20.6122 28 27.319 28.0075 28.9954 27.5686C29.4477 27.4458 29.8601 27.2072 30.1919 26.8762C30.5236 26.5451 30.7632 26.1333 30.887 25.6813C31.3302 24.0059 31.3334 20.53 31.3334 20.53C31.3334 20.53 31.3548 17.0348 30.8977 15.3583ZM18.483 23.7105L18.4883 17.2874L24.0625 20.5043L18.483 23.7105Z" fill="white"/>
</svg>
